<svg width="212" height="59" viewBox="0 0 212 59" fill="none" xmlns="http://www.w3.org/2000/svg">
<path d="M49.6536 47C58.2341 47 65.19 40.0076 65.19 31.3821C65.19 22.7565 58.2341 15.7642 49.6536 15.7642C41.0731 15.7642 34.1172 22.7565 34.1172 31.3821C34.1172 40.0076 41.0731 47 49.6536 47Z" fill="#EAA700"/>
<path d="M62.6335 39.9686L65.2277 44.576L60.6543 42.3627L62.6335 39.9686Z" fill="#EAA700"/>
<path d="M41.2282 14.8228C42.0037 14.8228 42.6323 14.1909 42.6323 13.4114C42.6323 12.6319 42.0037 12 41.2282 12C40.4528 12 39.8242 12.6319 39.8242 13.4114C39.8242 14.1909 40.4528 14.8228 41.2282 14.8228Z" fill="#EAA700"/>
<path d="M43.1259 17.6598L40.9823 13.6905C40.8888 13.5168 40.9398 13.2903 41.0971 13.1864C41.2543 13.0824 41.4584 13.1394 41.5533 13.3131L43.6969 17.2824C43.7904 17.4562 43.7394 17.6826 43.5821 17.7866C43.4248 17.8905 43.2208 17.8336 43.1259 17.6598Z" fill="#EAA700"/>
<path d="M33.5486 21.3058C34.324 21.3058 34.9526 20.6739 34.9526 19.8944C34.9526 19.1149 34.324 18.483 33.5486 18.483C32.7731 18.483 32.1445 19.1149 32.1445 19.8944C32.1445 20.6739 32.7731 21.3058 33.5486 21.3058Z" fill="#EAA700"/>
<path d="M37.8163 21.8441L33.8677 19.6893C33.6948 19.5953 33.4696 19.6466 33.3662 19.8047C33.2627 19.9628 33.3194 20.1678 33.4922 20.2633L37.4408 22.4181C37.6137 22.5121 37.8389 22.4608 37.9424 22.3027C38.0458 22.1447 37.9891 21.9396 37.8163 21.8441Z" fill="#EAA700"/>
<path d="M48.9838 29.6873C48.9129 29.6873 48.8464 29.7015 48.7826 29.72L41.0186 31.7139L41.0215 31.7182C39.0465 32.2836 37.5957 34.1436 37.5957 36.3554C37.5957 39.0159 39.6911 41.1736 42.2753 41.1736C44.1568 41.1736 45.7748 40.0285 46.5186 38.3793L46.5228 38.3835L46.5568 38.2966C46.5795 38.244 46.6008 38.1913 46.6206 38.1371L49.6185 30.6885C49.627 30.67 49.6341 30.6529 49.6412 30.633L49.6525 30.6059H49.6511C49.6723 30.5361 49.6865 30.4663 49.6865 30.3923C49.6865 30.002 49.372 29.6859 48.9838 29.6859V29.6873Z" fill="white"/>
<path d="M60.0036 23.9648C60.0036 21.8855 58.3276 20.2006 56.2591 20.2006C54.6779 20.2006 53.3278 21.1876 52.7795 22.5819H52.7752L50.6401 28.0708C50.6033 28.1563 50.582 28.2503 50.582 28.35C50.582 28.7402 50.8966 29.0564 51.2848 29.0564C51.3754 29.0564 51.4633 29.0379 51.5426 29.0051L56.993 27.6549C57.0624 27.6407 57.129 27.6222 57.1956 27.6051L57.3387 27.5695C58.8801 27.1024 60.0036 25.6667 60.0036 23.9648Z" fill="white"/>
<path d="M89.0438 28.3413H81.2398V21.1435H77.2266V39.3989H81.2398V31.9138H89.0438V39.3989H93.0314V21.1435H89.0438V28.3413Z" fill="black"/>
<path d="M100.101 25.373H96.2598V39.3879H100.101V25.373Z" fill="black"/>
<path d="M109.374 34.9226L105.71 25.373H101.771L107.335 39.3891H111.274L116.863 25.373H113.194L109.374 34.9226Z" fill="black"/>
<path d="M127.106 26.2339C126.094 25.6604 124.959 25.3743 123.699 25.3743C122.439 25.3743 121.217 25.6739 120.172 26.272C119.128 26.8713 118.315 27.7015 117.734 28.7638C117.152 29.826 116.861 31.032 116.861 32.3817C116.861 33.7313 117.164 34.9324 117.77 35.9873C118.376 37.041 119.229 37.8724 120.328 38.4791C121.428 39.0858 122.711 39.3903 124.178 39.3903C125.341 39.3903 126.37 39.2012 127.261 38.8205C128.153 38.441 128.895 37.897 129.485 37.1884L127.501 34.9115C127.071 35.35 126.596 35.6791 126.079 35.8977C125.561 36.1175 124.967 36.2268 124.298 36.2268C123.517 36.2268 122.848 36.0794 122.289 35.7847C121.731 35.49 121.292 35.0638 120.975 34.5075C120.8 34.2017 120.678 33.8628 120.598 33.4956H130.323C130.339 33.3273 130.355 33.1456 130.371 32.9515C130.386 32.7575 130.395 32.5843 130.395 32.4333C130.395 30.9657 130.099 29.7094 129.511 28.6643C128.92 27.6192 128.12 26.8087 127.108 26.2351L127.106 26.2339ZM122.038 28.8018C122.524 28.5071 123.086 28.3585 123.723 28.3585C124.361 28.3585 124.918 28.5059 125.397 28.8018C125.875 29.0966 126.25 29.5067 126.521 30.0287C126.701 30.375 126.811 30.7655 126.864 31.1917H120.554C120.617 30.7692 120.728 30.3824 120.903 30.041C121.174 29.5092 121.551 29.0966 122.039 28.8018H122.038Z" fill="black"/>
<path d="M161.419 26.2339C160.406 25.6604 159.271 25.3743 158.012 25.3743C156.752 25.3743 155.529 25.6739 154.485 26.272C153.44 26.8713 152.628 27.7015 152.046 28.7638C151.465 29.826 151.174 31.032 151.174 32.3817C151.174 33.7313 151.477 34.9324 152.083 35.9873C152.689 37.041 153.541 37.8724 154.641 38.4791C155.74 39.0858 157.023 39.3903 158.49 39.3903C159.653 39.3903 160.682 39.2012 161.574 38.8205C162.466 38.441 163.207 37.897 163.797 37.1884L161.813 34.9115C161.383 35.35 160.908 35.6791 160.391 35.8977C159.873 36.1175 159.28 36.2268 158.61 36.2268C157.83 36.2268 157.16 36.0794 156.602 35.7847C156.043 35.49 155.605 35.0638 155.287 34.5075C155.113 34.2017 154.99 33.8628 154.911 33.4956H164.635C164.651 33.3273 164.667 33.1456 164.683 32.9515C164.699 32.7575 164.708 32.5843 164.708 32.4333C164.708 30.9657 164.412 29.7094 163.823 28.6643C163.233 27.6192 162.433 26.8087 161.42 26.2351L161.419 26.2339ZM156.35 28.8018C156.836 28.5071 157.398 28.3585 158.036 28.3585C158.674 28.3585 159.231 28.5059 159.71 28.8018C160.187 29.0966 160.562 29.5067 160.834 30.0287C161.013 30.375 161.123 30.7655 161.177 31.1917H154.867C154.929 30.7692 155.04 30.3824 155.215 30.041C155.486 29.5092 155.864 29.0966 156.351 28.8018H156.35Z" fill="black"/>
<path d="M176.565 26.2339C175.553 25.6604 174.418 25.3743 173.158 25.3743C171.898 25.3743 170.676 25.6739 169.631 26.272C168.587 26.8713 167.774 27.7015 167.193 28.7638C166.611 29.826 166.32 31.032 166.32 32.3817C166.32 33.7313 166.623 34.9324 167.229 35.9873C167.835 37.041 168.688 37.8724 169.787 38.4791C170.887 39.0858 172.17 39.3903 173.637 39.3903C174.8 39.3903 175.829 39.2012 176.72 38.8205C177.612 38.441 178.354 37.897 178.944 37.1884L176.96 34.9115C176.53 35.35 176.055 35.6791 175.538 35.8977C175.02 36.1175 174.426 36.2268 173.757 36.2268C172.976 36.2268 172.307 36.0794 171.748 35.7847C171.19 35.49 170.751 35.0638 170.434 34.5075C170.259 34.2017 170.137 33.8628 170.057 33.4956H179.782C179.798 33.3273 179.814 33.1456 179.83 32.9515C179.845 32.7575 179.854 32.5843 179.854 32.4333C179.854 30.9657 179.558 29.7094 178.97 28.6643C178.379 27.6192 177.579 26.8087 176.566 26.2351L176.565 26.2339ZM171.497 28.8018C171.983 28.5071 172.545 28.3585 173.182 28.3585C173.82 28.3585 174.377 28.5059 174.856 28.8018C175.334 29.0966 175.709 29.5067 175.98 30.0287C176.16 30.375 176.27 30.7655 176.323 31.1917H170.013C170.076 30.7692 170.187 30.3824 170.362 30.041C170.633 29.5092 171.01 29.0966 171.498 28.8018H171.497Z" fill="black"/>
<path d="M146.89 30.0631C146.741 29.9943 146.582 29.939 146.425 29.8825C147.094 29.5104 147.637 29.0143 148.035 28.3831C148.478 27.6794 148.699 26.8504 148.699 25.895C148.699 24.4716 148.153 23.3246 147.062 22.4563C145.97 21.5881 144.342 21.1546 142.176 21.1546H133.756V39.3891H142.668C144.933 39.3891 146.648 38.9507 147.814 38.0738C148.979 37.197 149.562 35.9763 149.562 34.4142C149.562 33.3556 149.324 32.4603 148.848 31.7308C148.372 31.0013 147.72 30.4462 146.891 30.0631H146.89ZM141.683 24.3316C142.652 24.3316 143.394 24.5048 143.912 24.8523C144.428 25.1999 144.687 25.7378 144.687 26.4673C144.687 27.1967 144.428 27.7395 143.912 28.0957C143.395 28.4518 142.652 28.6299 141.683 28.6299H137.72V24.3316H141.683ZM144.736 35.6631C144.195 36.0279 143.414 36.2096 142.398 36.2096H137.72V31.7026H142.398C143.416 31.7026 144.195 31.8855 144.736 32.2491C145.277 32.6138 145.549 33.1873 145.549 33.9684C145.549 34.7494 145.277 35.2972 144.736 35.6619V35.6631Z" fill="black"/>
<path d="M98.1909 19.601H98.1713C96.8395 19.601 95.7598 20.6864 95.7598 22.0253V22.0449C95.7598 23.3838 96.8395 24.4692 98.1713 24.4692H98.1909C99.5228 24.4692 100.602 23.3838 100.602 22.0449V22.0253C100.602 20.6864 99.5228 19.601 98.1909 19.601Z" fill="black"/>
</svg>
