<?xml version="1.0" encoding="utf-8"?>
<svg xmlns="http://www.w3.org/2000/svg" fill="none" height="100%" overflow="visible" preserveAspectRatio="none" style="display: block;" viewBox="0 0 360.528 141.12" width="100%">
<g id="Group 47">
<g id="Group 48">
<g id="Group 40">
<g id="Group 34">
<g id="Group 11">
<path d="M223.705 59.8801H208.601C209.244 62.8258 211.868 64.4861 216.207 64.4861C218.617 64.4861 221.723 63.7898 223.544 62.6651L223.812 68.5029C221.937 69.7347 218.402 70.4845 215.725 70.4845C206.513 70.4845 201.425 65.6643 201.425 58.1127C201.425 50.7754 206.513 45.9552 213.261 45.9552C219.474 45.9552 223.972 49.8113 223.972 56.3453C223.972 57.2558 223.865 58.7554 223.705 59.8801ZM213.315 50.8825C210.53 50.8825 208.709 52.8105 208.334 55.9704H217.599V55.2742C217.599 52.6499 215.939 50.8825 213.315 50.8825Z" fill="var(--fill-0, #8FD7E5)" id="e"/>
<g id="Vector">
<path clip-rule="evenodd" d="M174.404 30.4069C168.76 32.9859 165.498 39.3614 164.732 46.7438C163.957 54.212 165.884 61.4352 169.13 64.8707L164.898 68.8334C160.056 63.7089 158.084 54.5253 158.953 46.1495C159.827 37.7265 163.722 28.8489 172.11 25.0923L172.198 25.0528L172.288 25.0193C175.823 23.71 181.252 23.1373 185.539 25.6867C187.779 27.0181 189.562 29.1308 190.494 32.0948C191.35 34.815 191.453 38.1255 190.742 42.0686C195.444 45.1326 197.692 50.17 197.93 53.8244C198.276 59.1224 196.096 64.5499 191.317 67.6629C186.493 70.8058 179.689 71.1727 171.595 67.7727L173.853 62.444C180.779 65.3531 185.417 64.5945 188.136 62.8233C190.901 61.0222 192.365 57.7469 192.133 54.1996C192.006 52.2593 190.825 49.3584 188.184 47.3657C186.645 49.4017 184.606 51.3286 182.474 52.7312C180.645 53.9343 178.497 54.9227 176.262 55.1615C173.923 55.4111 171.49 54.8241 169.53 52.9015C167.654 51.0618 167.153 47.6251 168.719 44.7674C170.41 41.6805 174.111 39.7055 179.785 39.3942C181.773 39.285 183.583 39.4359 185.221 39.7902C185.572 37.1259 185.382 35.195 184.95 33.8235C184.442 32.2074 183.567 31.2507 182.56 30.6522C180.382 29.3566 177.02 29.4638 174.404 30.4069ZM182.428 45.212C181.701 45.1411 180.927 45.1239 180.105 45.169C175.499 45.4218 174.168 46.8987 173.819 47.5366C173.492 48.1329 173.603 48.5846 173.643 48.7489C173.662 48.8236 173.665 48.8389 173.607 48.7817C174.136 49.3004 174.752 49.5059 175.642 49.4108C176.635 49.3047 177.895 48.811 179.271 47.9058C180.445 47.1339 181.524 46.1855 182.428 45.212Z" fill="var(--fill-0, #8FD7E5)" fill-rule="evenodd"/>
<path d="M172.154 24.6578C175.748 23.3265 181.31 22.7235 185.737 25.3553C188.058 26.7354 189.902 28.925 190.862 31.9792C191.724 34.7172 191.835 38.0112 191.165 41.8863C195.833 45.0337 198.073 50.0897 198.316 53.7992C198.669 59.2141 196.441 64.7854 191.528 67.9859C186.564 71.22 179.616 71.5605 171.445 68.1282L171.088 67.9784L173.647 61.9393L174.002 62.0884C180.85 64.9647 185.346 64.181 187.926 62.5004C190.557 60.7861 191.972 57.6538 191.748 54.2247C191.633 52.4643 190.586 49.8191 188.251 47.91C186.718 49.8639 184.747 51.6981 182.686 53.0535C180.827 54.2764 178.62 55.2976 176.303 55.5451C173.869 55.8049 171.315 55.1928 169.259 53.1766C167.245 51.201 166.742 47.5718 168.38 44.5824C170.161 41.3314 174.021 39.3243 179.764 39.0091C181.619 38.9073 183.325 39.0286 184.888 39.3292C185.162 36.9187 184.971 35.1744 184.582 33.939C184.102 32.4131 183.288 31.5333 182.363 30.9835C180.324 29.7713 177.103 29.8478 174.55 30.7643C169.09 33.2675 165.874 39.4761 165.115 46.7836C164.733 50.4741 165.018 54.1019 165.797 57.2262C166.578 60.3562 167.848 62.9524 169.41 64.6059L169.676 64.8873L164.881 69.3774L164.617 69.098C159.669 63.8607 157.694 54.5461 158.569 46.1098C159.45 37.6202 163.385 28.577 171.952 24.7403L172.04 24.7007L172.052 24.6958L172.063 24.6913L172.154 24.6578ZM185.342 26.0181C181.193 23.551 175.898 24.0937 172.423 25.3809L172.342 25.4102L172.267 25.4441C164.059 29.1205 160.204 37.8329 159.337 46.1893C158.49 54.3503 160.372 63.221 164.918 68.2853L168.589 64.8485C167.03 63.0666 165.807 60.453 165.048 57.413C164.247 54.1998 163.956 50.4817 164.348 46.7041C165.121 39.2535 168.424 32.7156 174.244 30.0563L174.258 30.0495L174.273 30.0443C176.949 29.0794 180.443 28.944 182.758 30.3207C183.846 30.9678 184.782 32.0015 185.319 33.7078C185.771 35.1463 185.96 37.1365 185.604 39.8406L185.549 40.2556L185.139 40.1671C183.537 39.8206 181.762 39.6719 179.806 39.7793C174.202 40.0869 170.658 42.0297 169.057 44.9525C167.564 47.6786 168.063 50.9227 169.8 52.6264C171.665 54.4552 173.978 55.0174 176.22 54.7779C178.374 54.548 180.463 53.5924 182.262 52.4091C184.356 51.0314 186.363 49.1353 187.876 47.1334L188.109 46.8254L188.417 47.0581C191.151 49.1217 192.385 52.1281 192.518 54.1746C192.758 57.84 191.245 61.2584 188.347 63.1463C185.538 64.9764 180.869 65.7159 174.059 62.9463L172.102 67.5652C179.959 70.7725 186.492 70.3461 191.106 67.34C195.751 64.3145 197.883 59.0308 197.545 53.8496C197.314 50.3063 195.123 45.384 190.531 42.3917L190.317 42.252L190.362 42C191.066 38.0979 190.958 34.8539 190.126 32.2104C189.222 29.3366 187.499 27.3008 185.342 26.0181ZM180.083 44.7838C180.924 44.7377 181.718 44.7554 182.466 44.8283L183.241 44.9036L182.711 45.4741C181.789 46.4671 180.686 47.4367 179.484 48.2278C178.078 49.1528 176.758 49.6792 175.683 49.7941C174.713 49.8976 173.987 49.6755 173.371 49.0894C173.356 49.076 173.344 49.0641 173.337 49.0571L173.877 48.5069C173.873 48.5044 173.87 48.5013 173.865 48.4982C173.86 48.4945 173.814 48.4603 173.744 48.4425C173.703 48.4323 173.631 48.4212 173.546 48.4455C173.452 48.4723 173.38 48.5313 173.334 48.5991C173.262 48.7053 173.269 48.8115 173.269 48.8172C173.27 48.8426 173.273 48.8607 173.274 48.8627C173.273 48.8603 173.272 48.854 173.269 48.8409C173.219 48.6376 173.086 48.0713 173.48 47.3515C173.918 46.5519 175.405 45.0406 180.083 44.7838ZM181.57 45.5404C181.107 45.5228 180.626 45.5265 180.126 45.554C175.594 45.8027 174.419 47.2451 174.157 47.7217C173.917 48.1606 173.976 48.4828 174.011 48.627C174.415 48.9658 174.888 49.1035 175.601 49.0273C176.512 48.93 177.713 48.4691 179.059 47.5838C179.965 46.9879 180.815 46.2819 181.57 45.5404Z" fill="var(--fill-0, #8FD7E5)"/>
</g>
</g>
<g id="Group 12">
<path d="M295.677 46.4297L288.7 66.2728C285.64 75.0567 280.863 79.184 275.496 79.9777L272.598 74.6863C275.979 74.0513 278.287 72.3051 279.682 69.7123L270.397 46.5885L277.589 46.271L281.561 56.3777C282.473 58.9706 283.279 61.3517 283.601 62.8863H283.869C284.137 61.3517 284.781 58.9706 285.533 56.3777L288.753 46.4297H295.677Z" fill="var(--fill-0, #8FD7E5)" id="y"/>
<path d="M245.074 46.3516C247.425 46.0091 249.718 46.8029 251.576 47.8864C252.097 48.1902 252.607 48.5312 253.102 48.9005C253.499 48.6058 253.904 48.3299 254.316 48.0772C256.099 46.9839 258.289 46.1425 260.548 46.3308C263.519 46.5786 266.688 48.1238 268.077 50.266C269.391 52.293 269.957 54.777 270.117 57.1415C270.435 61.8203 268.251 67.2239 266.223 70.5712L261.135 67.5484C262.444 65.3878 263.466 61.217 263.216 57.5352C263.093 55.7194 262.678 54.3259 262.103 53.4394C261.603 52.6683 260.994 52.2638 260.05 52.1851C259.549 52.1433 258.648 52.3311 257.441 53.0715C257.387 53.1044 257.334 53.1383 257.28 53.1727C258.399 54.7256 259.312 56.4677 259.809 58.2531C260.392 60.3485 260.475 62.8139 259.208 65.0096C257.831 67.3943 255.313 68.4029 253.068 68.386C250.838 68.3693 248.353 67.3382 247.009 65.0096C245.755 62.8368 245.804 60.4117 246.363 58.3306C246.853 56.5056 247.781 54.7328 248.915 53.1641C248.798 53.0888 248.681 53.0169 248.564 52.9489C247.337 52.2334 246.441 52.091 245.937 52.1643C245.092 52.2875 244.461 52.7133 243.925 53.5728C243.337 54.5167 242.917 55.9378 242.774 57.7274C242.484 61.3687 243.419 65.4152 244.711 67.5484L239.623 70.5712C237.578 67.1965 235.511 61.8794 235.878 57.2656C236.065 54.9277 236.643 52.4982 237.894 50.489C239.198 48.3955 242.228 46.7662 245.074 46.3516ZM253.094 57.5675C252.627 58.3552 252.289 59.1306 252.099 59.8395C251.789 60.9921 251.932 61.6967 252.161 62.0943C252.252 62.2519 252.549 62.5067 253.113 62.511C253.661 62.5151 253.949 62.2797 254.056 62.0943C254.272 61.7198 254.42 61.0092 254.088 59.813C253.892 59.1097 253.554 58.344 253.094 57.5675Z" fill="var(--fill-0, #8FD7E5)" id="Vector 2 (Stroke)"/>
</g>
</g>
<g id="Group 10">
<g id="ooman">
<path d="M360.528 117.124H353.756V103.101C353.756 100.328 352.317 99.2085 349.917 99.2085C348.371 99.2085 346.611 99.795 345.172 100.701V117.124H338.4V93.8231L345.172 93.5032V95.6893C347.411 93.9831 349.757 93.1832 352.423 93.1832C357.276 93.1832 360.528 95.7959 360.528 101.661V117.124Z" fill="var(--fill-0, #8FD7E5)" id="Vector_2"/>
<path d="M333.352 117.124H326.9V115.311C325.194 116.644 322.688 117.604 319.862 117.604C314.636 117.604 311.81 114.938 311.81 110.566C311.81 105.82 315.436 103.314 321.088 103.314C323.168 103.314 325.46 103.741 326.687 104.274V102.994C326.687 100.222 325.034 99.1551 321.301 99.1551C318.689 99.1551 315.703 99.9016 313.996 100.861L313.73 94.8895C315.969 93.8231 319.115 93.1832 322.314 93.1832C329.459 93.1832 333.352 96.0626 333.352 102.568V117.124ZM326.687 111.685V108.326C325.674 107.846 324.074 107.526 322.741 107.526C320.022 107.526 318.582 108.38 318.582 110.459C318.582 112.325 319.808 113.072 322.154 113.072C323.807 113.072 325.674 112.485 326.687 111.685Z" fill="var(--fill-0, #8FD7E5)" id="Vector_3"/>
<path d="M308.167 117.124H301.342V103.101C301.342 102.728 301.289 102.461 301.182 102.194C300.969 100.008 299.689 99.2085 297.823 99.2085C297.663 99.2085 297.556 99.2085 297.45 99.2618C296.17 99.3151 294.57 99.8483 293.237 100.701C293.344 101.341 293.344 101.981 293.344 102.674V117.124H286.572V103.101C286.572 102.728 286.519 102.461 286.412 102.194C286.199 100.008 284.919 99.2085 283 99.2085C281.667 99.2085 279.96 99.795 278.574 100.701V117.124H271.802V93.8231L278.574 93.5032V95.6893C280.12 94.4629 281.773 93.7698 283.32 93.4498C284.333 93.2899 285.292 93.2366 286.252 93.3432C288.865 93.5032 290.944 94.5696 292.171 96.6491C294.677 94.1963 297.29 93.1832 300.116 93.1832C304.914 93.1832 308.167 95.7959 308.167 101.661V117.124Z" fill="var(--fill-0, #8FD7E5)" id="Vector_4"/>
<path d="M265.825 105.74C265.825 112.576 260.714 117.511 253.661 117.511C246.659 117.511 241.497 112.576 241.497 105.74C241.497 98.9028 246.659 93.9679 253.661 93.9679C260.714 93.9679 265.825 98.9028 265.825 105.74ZM259.079 105.74C259.079 102.09 256.728 99.7253 253.661 99.7253C250.595 99.7253 248.244 102.09 248.244 105.74C248.244 109.389 250.595 111.754 253.661 111.754C256.779 111.754 259.079 109.389 259.079 105.74Z" fill="var(--fill-0, #8FD7E5)" id="Vector_5"/>
<path d="M239.143 105.74C239.143 112.576 234.032 117.511 226.979 117.511C219.976 117.511 214.814 112.576 214.814 105.74C214.814 98.9028 219.976 93.9679 226.979 93.9679C234.032 93.9679 239.143 98.9028 239.143 105.74ZM232.396 105.74C232.396 102.09 230.045 99.7253 226.979 99.7253C223.912 99.7253 221.561 102.09 221.561 105.74C221.561 109.389 223.912 111.754 226.979 111.754C230.096 111.754 232.396 109.389 232.396 105.74Z" fill="var(--fill-0, #8FD7E5)" id="Vector_6"/>
</g>
<g id="Group 9">
<path d="M171.722 71.0628C174.242 70.1873 177.361 70.4531 179.829 72.087C182.533 73.8771 184.099 77.0621 183.646 81.0832C183.107 85.8644 181.025 90.0214 177.558 93.1538C177.636 93.97 177.678 94.852 177.678 95.8201V117.604H170.695V97.2921C167.141 98.6617 163.001 99.3543 158.398 99.3543V92.2858C163.092 92.2858 166.802 91.4436 169.596 90.0829C169.346 89.5523 169.049 88.996 168.67 88.2985C168.197 87.43 167.626 86.3871 167.03 85.1206C165.64 82.1674 165.313 79.1564 166.242 76.4928C167.177 73.8111 169.24 71.925 171.722 71.0628ZM176.007 78.0037C175.435 77.6251 174.578 77.5437 173.989 77.7483C173.361 77.9664 172.996 78.3597 172.826 78.8458C172.65 79.3504 172.542 80.3971 173.334 82.0807C173.829 83.1325 174.304 84.0012 174.787 84.8893C174.867 85.0359 174.947 85.185 175.029 85.3363C175.932 83.8579 176.495 82.167 176.708 80.2816C176.804 79.4238 176.672 78.917 176.55 78.6405C176.428 78.3664 176.248 78.1636 176.007 78.0037Z" fill="var(--fill-0, #8FD7E5)" id="Vector 3 (Stroke)"/>
<path d="M205.764 93.1833V100.206H174.679V93.1833H205.764Z" fill="var(--fill-0, #8FD7E5)" id="Vector 6 (Stroke)"/>
<path d="M200.004 100.419C200.004 90.0382 209.328 79.8274 223.973 79.8274V87.0629C212.81 87.0629 207.24 94.5299 207.24 100.419V117.604H200.004V100.419Z" fill="var(--fill-0, #8FD7E5)" id="Vector 7 (Stroke)"/>
</g>
</g>
</g>
<g id="Vector_7">
<path clip-rule="evenodd" d="M65.6616 141.035C43.277 139.759 20.691 123.966 19.4816 97.0797L25.4689 96.8128C25.502 97.5494 25.5538 98.2767 25.6237 98.9948C27.744 120.776 46.5164 133.968 66.0043 135.079C76.0096 135.649 85.9427 132.987 93.5989 126.823C101.207 120.698 106.819 110.915 107.888 96.7231L108.062 96.7361L113.864 97.1693C112.686 112.808 106.405 124.186 97.3676 131.462C88.3784 138.699 76.9136 141.677 65.6616 141.035Z" fill="#8FD7E5" fill-rule="evenodd"/>
<path clip-rule="evenodd" d="M77.9608 102.645C72.1877 104.724 64.9457 103.933 58.7986 98.7554L62.0512 94.9289C66.814 98.9408 72.1603 99.4033 76.2481 97.9315C80.417 96.4304 83.084 93.0511 83.084 89.3233H88.1193C88.1193 95.6207 83.6528 100.596 77.9608 102.645Z" fill="#8FD7E5" fill-rule="evenodd"/>
<path d="M3.2197 94.3665C0.783207 80.6653 18.9554 61.5408 28.346 53.6912L35.9602 60.6488C33.8864 62.1065 32.0807 64.0121 30.5266 66.1271C22.9798 76.3977 27.7256 91.812 20.5499 102.343C19.8897 103.312 19.1688 104.029 18.4479 104.535C13.8795 106.676 5.65619 108.068 3.2197 94.3665Z" fill="#8FD7E5"/>
<path clip-rule="evenodd" d="M8.91645 70.0904C14.5053 62.3717 21.5801 55.4515 26.4187 51.4069L30.3722 51.4938L37.9864 58.4514L37.6884 63.0859C35.9435 64.3124 34.3594 65.9636 32.945 67.8885C32.926 67.9142 32.9072 67.9401 32.8884 67.9659C29.7232 72.3279 29.0452 77.8742 28.3803 84.4369C28.3689 84.5494 28.3575 84.6622 28.3461 84.7753C28.3377 84.8589 28.3293 84.9426 28.3208 85.0265C27.8724 89.4777 27.3761 94.404 25.6237 98.9948C24.9607 100.732 24.1178 102.421 23.0296 104.018C22.1853 105.257 21.2171 106.241 20.1761 106.972L19.724 107.234C17.1903 108.422 13.0539 109.709 8.9795 108.184C4.65299 106.565 1.58113 102.267 0.268678 94.8867C-0.470557 90.7297 0.383589 86.3833 2.00573 82.2494C3.63514 78.0971 6.12022 73.9523 8.91645 70.0904ZM7.58821 84.4203C6.19488 87.971 5.69119 91.153 6.1702 93.8467C7.29424 100.167 9.55228 102.025 11.0887 102.6C12.8009 103.24 14.9447 102.829 16.9097 101.956C17.2662 101.672 17.667 101.26 18.0697 100.669C21.1536 96.1426 21.7449 90.4752 22.4173 83.8382L22.4264 83.7478C23.0631 77.4629 23.7953 70.2349 28.1077 64.3661C29.0949 63.0225 30.1955 61.7282 31.4177 60.5478L28.29 57.6898C23.9109 61.5926 18.2969 67.3385 13.7784 73.579C11.1623 77.1921 8.97427 80.888 7.58821 84.4203Z" fill="#8FD7E5" fill-rule="evenodd"/>
<path clip-rule="evenodd" d="M8.9913 102.912V96.9461H11.9879V102.912H8.9913Z" fill="white" fill-rule="evenodd"/>
<path clip-rule="evenodd" d="M13.4851 102.912V96.9461H16.4818V102.912H13.4851Z" fill="white" fill-rule="evenodd"/>
<path d="M131.628 95.8583C134.065 82.1571 115.893 63.0326 106.502 55.183L98.8877 62.1406C100.962 63.5983 102.767 65.5039 104.321 67.6189C111.868 77.8895 107.122 93.3038 114.298 103.835C114.958 104.804 115.679 105.52 116.4 106.027C120.968 108.168 129.192 109.559 131.628 95.8583Z" fill="#8FD7E5"/>
<path clip-rule="evenodd" d="M125.932 71.582C120.343 63.8632 113.268 56.9431 108.43 52.8984L104.476 52.9853L96.8619 59.9429L97.1599 64.5774C98.9048 65.8039 100.489 67.4551 101.903 69.38C101.973 69.4744 102.041 69.5693 102.108 69.6648C105.147 73.9947 105.814 79.4692 106.468 85.9284C106.488 86.1211 106.507 86.3147 106.527 86.5093C106.527 86.5122 106.527 86.5151 106.528 86.518C106.856 89.7755 107.209 93.2875 108.062 96.7361C108.816 99.7829 109.959 102.78 111.819 105.509C112.663 106.748 113.631 107.732 114.672 108.464L115.124 108.726C117.658 109.913 121.794 111.201 125.869 109.676C130.195 108.056 133.267 103.758 134.58 96.3782C135.319 92.2213 134.465 87.8748 132.843 83.741C131.213 79.5886 128.728 75.4439 125.932 71.582ZM127.26 85.9118C128.653 89.4625 129.157 92.6446 128.678 95.3382C127.554 101.659 125.296 103.516 123.76 104.091C122.047 104.732 119.904 104.32 117.939 103.447C117.582 103.164 117.181 102.751 116.779 102.16C113.695 97.6341 113.103 91.9667 112.431 85.3298L112.422 85.2393C111.785 78.9545 111.053 71.7264 106.741 65.8576C105.753 64.514 104.653 63.2198 103.431 62.0393L106.558 59.1813C110.937 63.0842 116.551 68.83 121.07 75.0705C123.686 78.6836 125.874 82.3795 127.26 85.9118Z" fill="#8FD7E5" fill-rule="evenodd"/>
<path clip-rule="evenodd" d="M125.858 104.404V98.4379H122.861V104.404H125.858Z" fill="white" fill-rule="evenodd"/>
<path clip-rule="evenodd" d="M121.362 104.404V98.4379H118.365V104.404H121.362Z" fill="white" fill-rule="evenodd"/>
<path d="M61.4331 82.0308C61.4331 83.6776 60.0908 85.0126 58.4351 85.0126C56.7793 85.0126 55.4371 83.6776 55.4371 82.0308C55.4371 80.3841 56.7793 79.0491 58.4351 79.0491C60.0908 79.0491 61.4331 80.3841 61.4331 82.0308Z" fill="#8FD7E5"/>
<path d="M80.9111 82.0308C80.9111 83.6776 79.5689 85.0126 77.9131 85.0126C76.2573 85.0126 74.9151 83.6776 74.9151 82.0308C74.9151 80.3841 76.2573 79.0491 77.9131 79.0491C79.5689 79.0491 80.9111 80.3841 80.9111 82.0308Z" fill="#8FD7E5"/>
<path d="M101.886 86.5054C101.886 88.9767 98.8675 90.9801 95.1437 90.9801C91.42 90.9801 88.4013 88.9767 88.4013 86.5054C88.4013 84.0342 91.42 82.0308 95.1437 82.0308C98.8675 82.0308 101.886 84.0342 101.886 86.5054Z" fill="#F2714E"/>
<path d="M46.448 86.5054C46.448 88.9767 43.4293 90.9801 39.7056 90.9801C35.9818 90.9801 32.9631 88.9767 32.9631 86.5054C32.9631 84.0342 35.9818 82.0308 39.7056 82.0308C43.4293 82.0308 46.448 84.0342 46.448 86.5054Z" fill="#F2714E"/>
<path d="M70.7184 5.47784L77.5388 14.3619L62.3998 25.4016L61.2149 9.06378C60.8356 3.83331 67.5196 1.31124 70.7184 5.47784Z" fill="white"/>
<path clip-rule="evenodd" d="M64.3881 8.83569C64.2364 6.74351 66.91 5.73466 68.1895 7.40132L73.0381 13.7169L65.1588 19.4626L64.3881 8.83569ZM73.2461 3.55436C68.128 -3.1122 57.4336 0.923087 58.0405 9.29186L59.2253 25.6297L64.2796 27.957L79.4187 16.9173L80.0665 12.4384L73.2461 3.55436Z" fill="#8FD7E5" fill-rule="evenodd"/>
<path d="M86.8722 6.63371L79.4667 13.7991L92.9102 25.8383L95.7712 11.4443C96.7811 6.36352 90.6031 3.02384 86.8722 6.63371Z" fill="white"/>
<path clip-rule="evenodd" d="M92.2227 8.67798C92.4275 6.61602 89.8383 5.52671 88.4932 7.10894L84.0176 12.3734L91.3235 17.7341L92.2227 8.67798ZM83.6374 3.0187C89.0179 -3.31017 99.3747 1.04694 98.5557 9.29486L97.1056 23.899L92.0496 26.1413L77.5009 15.4661L76.9625 10.8702L83.6374 3.0187Z" fill="#8FD7E5" fill-rule="evenodd"/>
<path d="M25.1767 45.2051V61.7666C25.1767 64.219 26.8497 66.3632 29.232 66.9956C30.4993 67.3321 31.7157 67.6568 32.8884 67.9659C46.6266 71.5868 54.3795 73.0555 67.9772 65.9312C79.2573 71.876 91.5867 73.1205 102.108 69.6648C103.955 69.0582 105.746 68.3068 107.466 67.4105C109.103 66.5575 110.032 64.8188 110.032 62.9807V40.2312C110.032 35.4219 109.734 30.4848 107.577 26.1804C95.5925 2.2641 56.436 6.48448 47.5913 25.5615C30.0866 25.5615 25.3546 39.3612 25.1767 45.2051Z" fill="#8FD7E5"/>
<path d="M106.373 46.2047C106.373 56.0351 98.9484 63.1307 88.7022 63.1307C78.5301 63.1307 71.0311 56.0351 71.0311 46.2047C71.0311 36.3743 78.5301 29.2787 88.7022 29.2787C98.9484 29.2787 106.373 36.3743 106.373 46.2047ZM96.5725 46.2047C96.5725 40.9569 93.157 37.557 88.7022 37.557C84.2473 37.557 80.8318 40.9569 80.8318 46.2047C80.8318 51.4525 84.2473 54.8525 88.7022 54.8525C93.2313 54.8525 96.5725 51.4525 96.5725 46.2047Z" fill="var(--fill-0, #E9F7FA)"/>
<path d="M67.944 46.2047C67.944 56.0351 60.5192 63.1307 50.2729 63.1307C40.1009 63.1307 32.6018 56.0351 32.6018 46.2047C32.6018 36.3743 40.1009 29.2787 50.2729 29.2787C60.5192 29.2787 67.944 36.3743 67.944 46.2047ZM58.1432 46.2047C58.1432 40.9569 54.7278 37.557 50.2729 37.557C45.818 37.557 42.4026 40.9569 42.4026 46.2047C42.4026 51.4525 45.818 54.8525 50.2729 54.8525C54.802 54.8525 58.1432 51.4525 58.1432 46.2047Z" fill="var(--fill-0, #E9F7FA)"/>
<path clip-rule="evenodd" d="M66.0043 135.079C76.0096 135.649 85.9427 132.987 93.5989 126.823C101.207 120.698 106.819 110.915 107.888 96.7231L108.062 96.7361C107.209 93.2875 106.856 89.7755 106.528 86.518L106.527 86.5093C106.507 86.3147 106.488 86.1211 106.468 85.9284C105.814 79.4692 105.147 73.9947 102.108 69.6648C91.5867 73.1205 79.2573 71.876 67.9772 65.9312C54.3795 73.0555 46.6266 71.5868 32.8884 67.9659C29.7232 72.3279 29.0452 77.8742 28.3803 84.4369L28.3461 84.7753L28.3208 85.0265C27.8724 89.4777 27.3761 94.404 25.6237 98.9948C27.744 120.776 46.5164 133.968 66.0043 135.079ZM77.9608 102.645C72.1877 104.724 64.9457 103.933 58.7986 98.7554L62.0512 94.9289C66.814 98.9408 72.1603 99.4033 76.2481 97.9315C80.417 96.4304 83.084 93.0511 83.084 89.3233H88.1193C88.1193 95.6207 83.6528 100.596 77.9608 102.645ZM58.4351 85.0126C60.0908 85.0126 61.4331 83.6776 61.4331 82.0308C61.4331 80.3841 60.0908 79.0491 58.4351 79.0491C56.7793 79.0491 55.4371 80.3841 55.4371 82.0308C55.4371 83.6776 56.7793 85.0126 58.4351 85.0126ZM77.9131 85.0126C79.5689 85.0126 80.9111 83.6776 80.9111 82.0308C80.9111 80.3841 79.5689 79.0491 77.9131 79.0491C76.2573 79.0491 74.9151 80.3841 74.9151 82.0308C74.9151 83.6776 76.2573 85.0126 77.9131 85.0126ZM95.1437 90.9801C98.8675 90.9801 101.886 88.9767 101.886 86.5054C101.886 84.0342 98.8675 82.0308 95.1437 82.0308C91.42 82.0308 88.4013 84.0342 88.4013 86.5054C88.4013 88.9767 91.42 90.9801 95.1437 90.9801ZM39.7056 90.9801C43.4293 90.9801 46.448 88.9767 46.448 86.5054C46.448 84.0342 43.4293 82.0308 39.7056 82.0308C35.9818 82.0308 32.9631 84.0342 32.9631 86.5054C32.9631 88.9767 35.9818 90.9801 39.7056 90.9801Z" fill="#FBFBFB" fill-rule="evenodd"/>
</g>
</g>
</g>
</svg>