<svg width="395" height="57" viewBox="0 0 395 57" fill="none" xmlns="http://www.w3.org/2000/svg">
<g clip-path="url(#clip0_399_4558)">
<path d="M40.2549 57L39.7733 50.4953C41.8244 50.6141 44.8327 50.6141 46.4617 50.6141H47.187C48.3344 50.5547 48.8754 50.1923 48.8754 49.4082V45.7964H22.4788V56.9347H13.9236V31.2247C13.8642 31.2841 13.8047 31.3435 13.6799 31.4029L13.2578 31.7653C12.9546 32.0088 12.6573 32.2464 12.3541 32.49L11.6882 33.0306C9.3399 34.9552 6.8667 36.9453 3.85248 38.6323L0 32.6741C6.56944 28.9436 13.3172 21.8983 17.4135 15.0906H1.56953V8.52647H20.4931C21.5751 6.29882 22.4847 3.22764 23.5667 1L31.6998 2.62767C30.9745 4.43354 30.1302 6.48297 29.292 8.52647H64V15.0906H26.5156C25.7308 16.5341 24.1078 18.5835 23.0792 20.2112H56.2831V49.5923C56.2831 52.9011 55.6827 54.8318 52.9063 55.8535C50.2547 56.9347 46.64 57 40.249 57H40.2549ZM48.8695 30.4465V26.2288H22.4788V30.4465H48.8754H48.8695ZM48.8695 40.2006V36.0483H22.4788V40.2006H48.8754H48.8695Z" fill="#E7FF51"/>
</g>
<g clip-path="url(#clip1_399_4558)">
<path d="M111.512 57L110.782 50.4669C112.541 50.5265 115.03 50.5265 116.664 50.5265H117.514C118.543 50.4669 119.273 50.1029 119.273 49.2557V17.5685H101.195V12.1869H94.0374V22.7711H101.195V29.1193H94.0374V39.6439C96.4611 39.0413 99.555 38.3731 101.985 37.7108L102.954 42.1259C104.833 41.1594 107.203 40.0675 109.567 38.922L110.171 38.6177L110.716 38.3731C112.355 37.5856 113.929 36.8636 115.39 36.2551L117.514 41.8813C116.544 42.4839 115.509 43.0925 114.42 43.6951L113.875 43.9994C113.271 44.3633 112.601 44.7272 111.996 45.0852L111.452 45.4492C110.907 45.7535 110.363 46.0518 109.812 46.3561L109.268 46.6603C109.088 46.7797 108.902 46.8393 108.723 46.9646L108.178 47.2689C105.689 48.5994 103.325 49.8702 101.201 50.9561L96.7124 45.2105L96.108 45.3895C94.2887 45.8728 92.4695 46.4157 90.6503 46.899L90.0458 47.078L89.4414 47.1973C85.6833 48.2235 82.1046 49.2557 79.0706 50.0373L77.006 43.4445C79.1304 43.0209 81.979 42.4183 84.8933 41.7501L85.4978 41.6307C85.6174 41.5711 85.7431 41.5711 85.803 41.5711L86.4672 41.3921V29.1134H79.0646V22.7652H86.4612V12.1869H78.5799V5.77903H101.931V11.3397H119.279V1H126.861V11.3397H138.142C136.263 9.46623 132.744 6.4413 130.015 4.74686L134.258 1.24462C137.412 2.81973 141.11 5.71937 142.929 7.47347L139.231 11.3456H144.264V17.5745H126.855V20.0565C127.4 23.5647 128.735 27.3712 129.949 30.2171C132.738 27.4965 135.712 23.1411 137.352 20.1161L144.144 23.32C143.48 24.1076 142.75 24.8952 142.08 25.7424L141.655 26.2257L141.05 26.9535C138.986 29.4355 136.987 31.8519 135.168 33.4867L130.494 31.5536C133.528 38.0271 138.076 43.2237 144.994 47.1555L141.11 52.9011C134.617 48.85 130.434 44.3156 126.855 39.5365V49.2736C126.855 52.6625 125.886 54.5359 123.456 55.5621C121.093 56.7136 117.873 57.0119 111.506 57.0119L111.512 57ZM108.783 33.8387C107.508 31.3567 104.779 26.524 102.595 23.1351L108.783 20.8381C111.392 24.2269 114.486 28.5764 116.185 31.118L108.783 33.8387Z" fill="#E7FF51"/>
</g>
<g clip-path="url(#clip2_399_4558)">
<path d="M262.315 39.9485L255 37.4682C258.267 32.7465 260.825 24.7237 262.016 18.232L269.272 19.8855C267.847 26.4354 265.706 35.1685 262.315 39.9485ZM294.42 56H289.364C277.291 56 273.308 53.9332 272.833 47.7967C268.967 50.0382 264.45 52.2215 259.218 54.2883L256.126 48.2682C261.359 46.3237 268.551 42.9585 273.965 39.5933V15.6354H281.814V33.3986C286.39 30.0334 290.731 26.0802 294.596 21.9523L295.013 21.539C300.07 16.1128 304.287 10.442 307.144 5.48744L314.817 8.20054C311.069 14.1624 306.194 20.5958 300.427 26.7323L300.011 27.1457C295.846 31.5122 291.329 35.6459 286.396 39.3022L285.92 39.6574C284.554 40.6588 283.187 41.6078 281.82 42.4927V46.0326C281.82 48.8679 283.07 49.3977 289.845 49.3977H294.303C301.084 49.3977 301.976 47.5114 302.451 40.4841L309.766 41.7242C308.634 52.5242 306.499 56.0058 294.426 56.0058L294.42 56ZM291.388 17.5799C289.364 16.2816 286.331 14.273 283.181 12.2702L282.647 11.915C282.348 11.7404 282.113 11.5599 281.814 11.3852L280.981 10.8554C280.805 10.739 280.623 10.6167 280.447 10.5585L279.914 10.2033C278.013 8.96323 276.23 7.84539 274.622 6.83817L279.614 2C281.163 2.94318 282.882 3.9504 284.671 5.01003L285.263 5.36518L285.797 5.72032C289.722 8.14232 293.646 10.5585 295.846 11.9733L291.388 17.5799ZM313.744 42.8362C312.201 38.2309 308.094 30.3245 304.111 25.1312L311.01 22.1794C315.234 27.4309 319.334 34.988 321 39.5293L313.744 42.8362Z" fill="#475259"/>
</g>
<g clip-path="url(#clip3_399_4558)">
<path d="M334 0H345V9H334V0Z" fill="#E7FF51"/>
<path d="M334 14H345.068V71H334V14Z" fill="#475259"/>
<path d="M384.225 57V33.3685C384.225 26.6816 381.769 23.7048 377.54 23.7048C373.311 23.7048 368.253 27.3489 366.692 32.474V57H355.917V14.9356H365.651V22.7369C368.773 17.4578 375.011 14.1877 382.29 14.1877C392.838 14.1877 394.993 22.583 394.993 30.7583V56.9927H384.218L384.225 57Z" fill="#475259"/>
</g>
<path d="M163.363 17.2039C163.067 12.0808 167.612 7.11786 173.36 7.11786C178.905 7.11786 183.517 11.6692 183.472 17.5241C183.427 22.6472 178.814 27.4958 173.338 27.4501C168.134 27.4043 163.044 22.8759 163.363 17.2039ZM173.451 13.0185C171.02 12.6755 169.02 15.2828 169.089 17.3411C169.202 19.9942 171.179 21.7095 173.36 21.6637C175.905 21.618 177.61 19.8569 177.746 17.2497C177.86 15.2599 175.883 12.7441 173.451 13.0185Z" fill="#475259"/>
<path d="M235.62 17.364C235.802 22.9674 230.939 27.4729 225.509 27.45C220.101 27.4272 215.352 22.5785 215.511 17.1124C215.647 11.8292 219.783 7.18645 225.486 7.11784C231.121 7.04922 235.848 11.7606 235.62 17.364ZM229.849 17.364C230.121 15.1455 227.849 12.9042 225.691 13.0185C223.168 13.1557 221.191 14.8939 221.214 17.2954C221.214 19.5596 223.373 21.7781 225.554 21.7323C227.758 21.6866 230.099 19.7654 229.849 17.364Z" fill="#475259"/>
<path d="M209.765 10.2919C209.97 15.5751 205.016 20.4237 199.654 20.3322C194.359 20.2407 189.542 15.8266 189.633 10.0861C189.701 4.48269 194.018 0 199.722 0C205.198 0 209.97 4.61992 209.765 10.2919ZM199.79 5.90069C197.313 5.90069 195.314 7.73036 195.359 10.0861C195.427 12.8534 197.336 14.4773 199.699 14.5459C201.948 14.6145 203.971 12.6247 204.039 10.269C204.107 8.1649 201.948 5.53475 199.79 5.90069Z" fill="#E7FF51"/>
<path d="M241.596 35.2719C241.483 34.9059 241.278 34.5857 241.006 34.3342C240.983 34.3342 240.96 34.2655 240.937 34.2655C240.778 34.1283 240.619 34.014 240.46 33.8996C238.597 32.4587 236.575 31.2695 234.325 30.4004C231.78 29.4169 229.122 28.9595 226.418 28.7765C225.191 28.6851 223.964 28.868 222.737 28.9824C219.283 29.3254 216.147 30.469 213.193 32.2072C212.716 32.4587 212.398 32.4587 211.943 32.2072C210.921 31.6125 209.876 31.0179 208.785 30.5833C206.785 29.8057 204.763 29.2797 202.65 28.9595C199.991 28.5707 197.356 28.6851 194.742 29.1882C191.97 29.7371 189.38 30.7663 186.949 32.2529C186.562 32.4816 186.267 32.5274 185.858 32.2529C182.04 29.9201 177.86 28.8223 172.929 28.7079C171.974 28.525 170.566 28.8909 169.18 29.1196C165.976 29.6685 163.044 30.8349 160.386 32.5502C159.727 32.9619 159.091 33.4193 158.477 33.8996C158 34.3799 158 34.9517 158 35.5463C158 37.2616 159.386 38.6339 161.09 38.6339C161.431 38.6339 161.772 38.5881 162.067 38.4509C162.635 38.1079 163.022 37.719 163.522 37.4217C165.271 36.2782 167.18 35.4777 169.248 35.0203C173.247 34.1283 177.132 34.4943 180.882 36.1638C181.495 36.4154 181.586 36.6899 181.154 37.1473C180.518 37.8334 180.018 38.5881 179.496 39.32C178.087 41.2412 177.064 43.3224 176.769 45.701C176.564 47.3706 176.996 48.9944 177.655 50.5039C179.132 53.8659 183.04 56.5875 187.312 56.1072C189.38 55.8785 191.22 55.1924 192.743 53.843C196.378 50.6411 197.106 45.4723 194.629 41.3098C193.743 39.8232 192.811 38.3823 191.675 37.0558C191.289 36.5984 191.334 36.3697 191.925 36.141C193.72 35.432 195.515 34.8373 197.446 34.6544C200.809 34.3113 203.991 34.7916 207.081 36.1638C207.558 36.3697 207.694 36.5755 207.308 37.0558C206.376 38.1993 205.49 39.4115 204.695 40.6923C203.195 43.0022 202.582 45.5409 203.059 48.2396C204.059 53.843 209.603 57.3194 215.102 55.8099C219.51 54.5978 222.146 50.8241 222.237 46.41C222.259 44.5346 221.646 42.7964 220.692 41.2183C219.851 39.7774 218.942 38.3594 217.783 37.1244C217.306 36.5984 217.465 36.3697 218.056 36.141C219.533 35.5463 221.055 35.066 222.623 34.7916C225.168 34.357 227.69 34.4943 230.144 35.1346C232.644 35.775 234.916 36.8728 236.916 38.4509C237.052 38.5653 237.188 38.7025 237.347 38.794C237.802 39.1142 238.37 39.2971 238.961 39.2971C239.324 39.2971 239.665 39.2285 239.96 39.1142C239.983 39.1142 240.006 39.0913 240.029 39.0913C240.733 38.794 241.301 38.2222 241.596 37.5132V37.4675C241.687 37.2845 241.733 37.1015 241.778 36.9186C241.801 36.7356 241.824 36.5755 241.824 36.3925C241.824 36.0037 241.733 35.6149 241.596 35.2719ZM187.608 50.1837C185.767 50.6868 184.063 50.0236 183.177 48.4684C182.381 47.0961 182.359 45.7925 183.177 44.3745C183.949 43.0251 184.79 41.6986 185.858 40.5322C186.29 40.0519 186.608 40.0519 186.994 40.555C188.244 42.1331 189.584 43.6197 190.221 45.5866C190.334 45.9068 190.38 46.227 190.357 46.4557C190.357 48.1482 189.107 49.7949 187.608 50.1837ZM213.08 50.298C211.125 50.5725 209.444 49.4289 208.853 47.5307C208.512 46.5243 208.626 45.6324 209.08 44.7404C209.83 43.1852 210.875 41.7901 212.012 40.4864C212.375 40.0747 212.693 40.0519 213.057 40.4864C214.216 41.8815 215.329 43.2767 216.124 44.9234C216.374 45.4037 216.329 45.9526 216.442 46.41C216.42 48.4226 215.011 50.0236 213.08 50.298Z" fill="url(#paint0_linear_399_4558)"/>
<defs>
<linearGradient id="paint0_linear_399_4558" x1="158" y1="42.4108" x2="241.824" y2="42.4108" gradientUnits="userSpaceOnUse">
<stop stop-color="#DBF1F5"/>
<stop offset="0.2" stop-color="#B4E2EA"/>
<stop offset="0.51" stop-color="#E7FF51"/>
<stop offset="0.855" stop-color="#B4E2EA"/>
</linearGradient>
<clipPath id="clip0_399_4558">
<rect width="64" height="56" fill="white" transform="translate(0 1)"/>
</clipPath>
<clipPath id="clip1_399_4558">
<rect width="68" height="56" fill="white" transform="translate(77 1)"/>
</clipPath>
<clipPath id="clip2_399_4558">
<rect width="66" height="54" fill="white" transform="translate(255 2)"/>
</clipPath>
<clipPath id="clip3_399_4558">
<rect width="61" height="57" fill="white" transform="translate(334)"/>
</clipPath>
</defs>
</svg>
