<svg width="298" height="96" viewBox="0 0 298 96" fill="none" xmlns="http://www.w3.org/2000/svg">
<path d="M38.6661 6.56543C38.6661 6.92442 38.6146 7.24239 38.9958 7.42701C39.0267 7.43727 39.0473 7.50907 39.0576 7.5501C39.1915 7.95012 39.4697 8.22706 39.7994 8.47322C39.9952 8.61682 40.1703 8.8117 40.3558 8.98607C40.6958 9.28352 40.84 9.63226 40.8606 10.0733C40.8812 10.34 41.0563 10.6169 41.1079 10.9041C41.3448 12.1144 41.5715 13.3145 41.7775 14.5248C41.86 15.0172 42.066 15.4172 42.4369 15.7557C42.6636 15.9608 42.983 16.1249 42.8902 16.5147C42.8902 16.5455 42.9314 16.5967 42.9417 16.648C42.9623 16.7506 42.9829 16.8532 42.9829 16.9455C42.9726 17.1404 42.9624 17.3352 42.9005 17.5096C42.8799 17.5917 42.7666 17.6635 42.6739 17.684C42.6121 17.7045 42.5193 17.6327 42.4369 17.5917C42.1999 17.4686 42.0145 17.4891 41.8393 17.6737C41.623 17.8994 41.3654 18.1353 41.077 18.2173C40.7576 18.3097 40.3661 18.2481 40.0055 18.2584C39.923 18.2584 39.7891 18.2584 39.7582 18.3097C39.6243 18.5558 39.3976 18.6071 39.1297 18.6174C39.0267 18.6174 38.9443 18.7097 38.8516 18.7507C38.7691 18.7917 38.6764 18.8225 38.5837 18.843C38.254 18.9353 37.9037 18.9866 37.6049 19.1405C36.9559 19.4584 36.3377 19.8379 35.6989 20.1764C35.5238 20.2687 35.328 20.3508 35.1323 20.361C34.782 20.361 34.4935 20.4944 34.3699 20.7816C33.9372 21.8073 33.4632 22.8227 33.4426 24.033C33.4426 24.3613 33.5251 24.5972 33.7723 24.8126C33.8444 24.8741 33.896 24.9562 33.9681 24.9972C34.2462 25.151 34.2565 25.3972 34.3081 25.6536C34.4008 26.1255 34.5244 26.6075 34.6378 27.0794C34.6687 27.2024 34.7305 27.3255 34.7202 27.4383C34.6481 28.0743 34.5553 28.7102 34.4729 29.3461C34.4523 29.5205 34.3493 29.6231 34.1741 29.6641C33.9887 29.7051 33.8135 29.7872 33.6281 29.859C33.1748 30.0231 32.7214 30.177 32.2784 30.3513C32.0518 30.4436 31.8148 30.5462 31.6294 30.6898C31.5469 30.7513 31.5057 30.9462 31.5366 31.0693C31.5778 31.2334 31.7118 31.3463 31.9178 31.3668C33.6178 31.5616 35.3177 31.7668 37.0177 31.9822C37.2031 32.0027 37.2856 31.9514 37.2443 31.7668C37.1413 31.3052 37.0795 30.8231 36.9043 30.3821C36.7807 30.0846 36.7189 29.818 36.7498 29.541C36.8116 28.7615 36.8734 27.982 36.9353 27.1922C36.9353 27.1306 36.9765 27.0691 36.9971 26.987C37.2237 27.1306 37.4401 27.2435 37.6358 27.3768C37.8625 27.5204 38.0274 27.5204 38.1819 27.3255C38.5219 26.8845 38.8825 26.4537 39.3873 26.187C39.4594 26.1562 39.5006 26.0844 39.5625 26.0229C39.8921 25.7254 40.2115 25.4382 40.5412 25.1408C40.5618 25.1613 40.5824 25.1818 40.603 25.1921C40.2836 26.0844 39.9643 26.9768 39.6449 27.8486C39.923 28.023 40.2115 28.1768 40.4691 28.3615C40.9945 28.741 41.52 29.1 42.1278 29.2949C42.3133 29.3564 42.4987 29.459 42.6636 29.5718C43.2199 29.9616 43.7763 30.3718 44.3326 30.7719C44.415 30.8334 44.4975 30.8949 44.6108 30.9873C44.8787 29.7564 45.1465 28.5666 45.4041 27.3871C45.7647 27.4281 46.1356 27.4486 46.4962 27.5409C46.8362 27.623 47.1865 27.7461 47.4955 27.9204C47.918 28.1563 47.9179 28.1871 48.1034 27.7973C48.124 27.7461 48.1343 27.6845 48.1652 27.6537C48.2785 27.5819 48.3919 27.4589 48.5155 27.4589C49.2367 27.4589 49.9373 27.4178 50.5349 27.0486C50.5967 27.0076 50.6585 26.9973 50.7203 26.9665C50.7512 26.987 50.7718 26.9973 50.7821 27.0076C50.8027 27.0281 50.8233 27.0486 50.8439 27.0794C51.3797 27.7666 52.039 28.0127 52.8117 27.9204C53.0075 27.8999 53.2033 27.8691 53.399 27.8486C53.6463 27.8281 53.9038 27.8076 54.1305 27.7871C54.419 28.1563 54.7898 28.5256 55.0474 28.9461C55.6656 29.9616 56.2632 30.9975 56.6238 32.1155C56.7577 32.5463 56.7577 32.9976 56.9122 33.4182C57.0668 33.8284 57.0874 34.1567 56.8916 34.4951C56.7783 34.69 56.9225 34.9054 57.1595 34.9362C57.7674 35.0182 58.3752 35.09 58.9831 35.1618C59.2818 35.1926 59.457 34.9772 59.354 34.6798C59.2922 34.4849 59.1891 34.29 59.0861 34.0951C58.8903 33.7259 58.6637 33.3669 58.6534 32.9361C58.6328 32.3104 58.4989 31.7052 58.2001 31.1103C57.9837 30.6795 57.8086 30.218 57.6746 29.7564C57.3552 28.5871 57.3037 27.3871 56.7783 26.2485C56.7371 26.146 56.7783 25.9819 56.8298 25.8895C56.9431 25.7049 56.9431 25.5613 56.7371 25.4075C56.6753 25.3562 56.6341 25.2639 56.5825 25.1921C56.3353 24.8844 56.088 24.5869 55.8511 24.2895C55.7995 24.2279 55.7686 24.1561 55.7274 24.0946C55.5007 23.7458 55.2741 23.4074 55.0577 23.0586C54.9444 22.8843 54.8414 22.6894 54.7796 22.4945C54.6971 22.2483 54.5838 22.0637 54.3057 22.0022C54.182 21.9714 54.0481 21.8586 53.9347 21.756C53.842 21.6739 53.7699 21.5611 53.6772 21.4791C53.1826 21.0483 52.7087 20.6175 52.1936 20.2174C51.7197 19.8379 51.2148 19.5097 50.6173 19.4071C50.473 19.3866 49.9785 18.7507 49.9991 18.6071C49.9991 18.5763 50.03 18.5456 50.0506 18.5148C50.267 18.2891 50.4112 18.0122 50.473 17.684C50.4936 17.5917 50.5966 17.5199 50.6688 17.4481C50.8439 17.284 50.916 17.0993 50.7718 16.8326C50.71 16.7198 50.71 16.5762 50.6688 16.4531C50.5966 16.2583 50.5452 16.0429 50.4318 15.8788C50.2258 15.5813 49.9785 15.3146 49.7518 15.0274C49.3912 14.5761 49.3912 14.3915 49.7415 13.9812C50.4936 14.3915 51.2766 14.6684 52.1112 14.7813C52.5233 14.8428 52.9354 14.9967 53.3372 15.0787C53.6875 15.1505 53.9244 14.9967 54.0171 14.771C54.2335 14.6582 54.3881 14.5761 54.5426 14.4941C54.6456 14.4325 54.7384 14.3299 54.8517 14.2889C55.0165 14.2376 55.2226 14.2684 55.3771 14.1966C55.511 14.1453 55.645 14.0222 55.6965 13.8889C55.8304 13.5196 55.8819 13.1196 56.0159 12.7504C56.0983 12.5145 56.1189 12.2991 56.0468 12.0529C55.9953 11.8478 55.9953 11.6837 56.2013 11.5606C56.2838 11.5195 56.3147 11.2118 56.2528 11.1708C55.9644 10.9144 56.0056 10.5862 56.0571 10.3502C56.1395 9.96048 56.1189 9.59123 55.985 9.19121C55.748 8.50399 55.511 7.81678 55.2741 7.12956C55.1917 6.90391 55.068 6.79108 54.7898 6.81159C54.8311 7.05776 54.862 7.28341 54.8929 7.51932C54.8929 7.51932 54.8826 7.51932 54.8723 7.51932C54.7384 7.20136 54.6044 6.87314 54.4705 6.55517C54.3983 6.3808 54.2747 6.24746 54.1099 6.32952C54.0378 6.36029 54.0378 6.55517 54.0584 6.67825C54.0893 6.84237 54.1614 6.99622 54.2129 7.16033C54.0481 6.89365 53.9347 6.61671 53.8008 6.35003C53.7596 6.27823 53.636 6.20643 53.5535 6.20643C53.4917 6.20643 53.4402 6.309 53.3887 6.37054C53.3475 6.41157 53.3166 6.47311 53.2651 6.49363C53.1002 6.55517 53.0281 6.67825 53.0796 6.86288C53.1827 7.23213 53.3063 7.60138 53.4093 7.97063C53.5123 8.30911 53.6051 8.64759 53.6875 8.99633C53.6978 9.04761 53.6669 9.13993 53.6154 9.1707C53.3166 9.36558 53.3063 9.38609 53.502 9.75534C53.5741 9.89894 53.6051 10.0425 53.4299 10.0938C53.1002 10.1759 52.8839 10.3913 52.6778 10.6374C52.6675 10.658 52.6263 10.6682 52.6057 10.6682C52.379 10.5451 52.1421 10.422 51.9154 10.2784C51.7712 10.1861 51.6579 10.0528 51.5342 9.93997C51.39 9.81689 51.2251 9.72457 51.1015 9.59123C50.4009 8.85273 49.6179 8.24757 48.7113 7.82703C48.2991 7.63215 47.8149 7.63215 47.5059 7.1911C47.4749 7.15007 47.4028 7.12956 47.3513 7.10905C47.0113 6.91416 46.6816 6.72954 46.3416 6.53466C46.1665 6.43209 46.115 6.31926 46.1974 6.14489C46.2901 5.96027 46.3622 5.74487 46.4653 5.56024C46.7228 5.10894 46.7744 4.6166 46.661 4.06273C46.6301 3.90887 46.661 3.74476 46.6507 3.59091C46.6404 3.27294 46.6507 2.96523 46.5992 2.64727C46.558 2.38059 46.558 2.15493 46.7022 1.94979C46.8671 1.71388 46.8465 1.35489 46.6713 1.16001C46.3829 0.831785 46.012 0.472791 45.6308 0.349707C45.0023 0.144568 44.3326 0.113797 43.6835 0.0214844C43.6526 0.0214844 43.6114 0.0214844 43.5805 0.0419983C43.2405 0.175339 42.8284 0.236881 42.5708 0.472791C42.2824 0.729215 42.0557 1.09847 41.9424 1.48823C41.7981 2.01134 41.9424 2.59598 42.1381 3.16012C41.8806 3.45757 42.0042 4.26787 42.4163 4.53455C42.8284 4.80123 42.7975 5.12945 42.7975 5.52947C42.303 4.91406 41.623 4.72943 41.0563 4.32941C40.9018 4.21658 40.7163 4.05247 40.6648 3.8781C40.603 3.69348 40.6751 3.48834 40.6854 3.2832C40.6854 2.62675 40.3249 2.23699 39.7067 2.3293C39.14 2.41136 38.5837 2.58573 38.0273 2.71907C37.8419 2.76009 37.7698 2.89343 37.7286 3.07806C37.6874 3.24217 37.6255 3.43705 37.5019 3.52937C37.1928 3.75502 36.8941 3.9499 36.7189 4.32941C36.6056 4.55506 36.4922 4.74994 36.5128 5.02688C36.5334 5.30382 36.585 5.54999 36.8734 5.70384C36.9456 5.74487 36.9765 5.84744 37.0383 5.90898C37.1001 5.98078 37.1825 6.04232 37.2546 6.09361C37.4813 6.21669 37.7389 6.29875 37.9243 6.46286C38.1819 6.68851 38.4189 6.75005 38.7279 6.58594L38.6661 6.56543Z" fill="#C34E35"/>
<path d="M38.6659 6.56446C38.3465 6.71831 38.1199 6.66703 37.8623 6.44137C37.6768 6.27726 37.4193 6.20546 37.1926 6.07212C37.1102 6.03109 37.0381 5.9593 36.9763 5.8875C36.9145 5.82596 36.8836 5.72339 36.8114 5.68236C36.5333 5.51825 36.4714 5.27208 36.4508 5.0054C36.4302 4.72846 36.5436 4.53358 36.6569 4.30793C36.8423 3.92842 37.1411 3.73353 37.4399 3.50788C37.5635 3.41557 37.6253 3.22069 37.6666 3.05658C37.7181 2.88221 37.7799 2.73861 37.9653 2.69758C38.5217 2.56424 39.0677 2.38987 39.6447 2.30782C40.2628 2.2155 40.6337 2.60527 40.6234 3.26171C40.6234 3.46685 40.541 3.67199 40.6028 3.85662C40.6646 4.02073 40.8398 4.1951 40.9943 4.30793C41.5507 4.70795 42.241 4.89257 42.7355 5.50799C42.7355 5.09771 42.7767 4.77975 42.3543 4.51306C41.9422 4.24638 41.8186 3.43608 42.0761 3.13863C41.8804 2.5745 41.7361 1.98985 41.8804 1.46675C41.9834 1.08724 42.2204 0.707731 42.5088 0.451306C42.7664 0.215396 43.1785 0.153854 43.5185 0.0205139C43.5494 0.010257 43.5906 0 43.6215 0C44.2706 0.10257 44.9403 0.123084 45.5687 0.328223C45.9499 0.451306 46.3208 0.8103 46.6093 1.13852C46.7948 1.34366 46.8051 1.6924 46.6402 1.92831C46.496 2.14371 46.496 2.36936 46.5372 2.62578C46.5887 2.94375 46.5784 3.25146 46.5887 3.56942C46.5887 3.72328 46.5681 3.88739 46.599 4.04124C46.7123 4.58486 46.6608 5.08745 46.4033 5.53876C46.3002 5.72339 46.2384 5.92853 46.1354 6.12341C46.0427 6.29778 46.0942 6.4106 46.2796 6.51317C46.6196 6.6978 46.9493 6.89268 47.2893 7.08756C47.3408 7.11833 47.4129 7.12859 47.4438 7.16962C47.7529 7.62092 48.2371 7.62092 48.6492 7.80555C49.5559 8.22609 50.3389 8.83125 51.0395 9.56975C51.1631 9.70309 51.328 9.7954 51.4722 9.91848C51.6061 10.0313 51.7195 10.1647 51.8534 10.257C52.0698 10.4006 52.3067 10.5236 52.5437 10.6467C52.5643 10.6467 52.5952 10.6467 52.6158 10.616C52.8218 10.38 53.0485 10.1544 53.3679 10.0723C53.543 10.0313 53.5121 9.88771 53.44 9.73386C53.2442 9.35435 53.2546 9.33384 53.5533 9.14921C53.5946 9.11844 53.6358 9.03639 53.6255 8.97484C53.543 8.63636 53.4503 8.28763 53.3473 7.94915C53.2443 7.5799 53.1206 7.21065 53.0176 6.8414C52.9661 6.65677 53.0382 6.53369 53.2031 6.47214C53.2546 6.45163 53.2855 6.39009 53.3267 6.34906C53.3782 6.28752 53.4297 6.18495 53.4915 6.18495C53.574 6.18495 53.6976 6.25675 53.7388 6.32855C53.883 6.59523 53.9963 6.87217 54.1509 7.13885C54.0994 6.97474 54.017 6.82088 53.9964 6.65677C53.9757 6.53369 53.9861 6.3388 54.0479 6.30803C54.2127 6.22598 54.3363 6.35932 54.4085 6.53369C54.5424 6.85165 54.6763 7.17988 54.8103 7.49784C54.8103 7.49784 54.8206 7.49784 54.8309 7.49784C54.8 7.26193 54.7587 7.02602 54.7278 6.79011C55.006 6.7696 55.1399 6.87217 55.2121 7.10808C55.4387 7.79529 55.6757 8.48251 55.923 9.16973C56.0569 9.56975 56.0775 9.92874 55.9951 10.3288C55.9436 10.5647 55.9024 10.8929 56.1908 11.1493C56.2424 11.2006 56.2115 11.4981 56.1393 11.5391C55.923 11.6519 55.9333 11.8263 55.9848 12.0314C56.0466 12.2776 56.0363 12.5032 55.9539 12.7289C55.8199 13.0981 55.7581 13.4982 55.6345 13.8674C55.583 14.0008 55.449 14.1136 55.3151 14.1751C55.1606 14.2367 54.9545 14.2162 54.7897 14.2674C54.6763 14.2982 54.5836 14.411 54.4806 14.4726C54.3363 14.5649 54.1715 14.6367 53.9551 14.7495C53.8727 14.9649 53.6255 15.129 53.2752 15.0572C52.8631 14.9752 52.451 14.8213 52.0492 14.7598C51.2249 14.6469 50.4316 14.37 49.6795 13.9597C49.3292 14.3598 49.3292 14.5444 49.6898 15.0059C49.9165 15.2931 50.1638 15.5598 50.3698 15.8573C50.4831 16.0214 50.5346 16.2368 50.6068 16.4317C50.648 16.5547 50.648 16.6983 50.7098 16.8112C50.854 17.0778 50.7819 17.2625 50.6068 17.4266C50.5346 17.4984 50.4316 17.5702 50.411 17.6625C50.3492 18.001 50.205 18.2677 49.9886 18.4933C49.968 18.5138 49.9371 18.5548 49.9371 18.5856C49.9165 18.719 50.411 19.3651 50.5553 19.3857C51.1528 19.478 51.6473 19.8165 52.1316 20.196C52.6364 20.596 53.1206 21.037 53.6152 21.4576C53.7079 21.5396 53.78 21.6627 53.8727 21.7345C53.9861 21.8268 54.1097 21.9499 54.2436 21.9807C54.5218 22.0422 54.6351 22.2166 54.7176 22.473C54.7794 22.6679 54.8927 22.8525 54.9957 23.0371C55.2121 23.3859 55.4387 23.7346 55.6654 24.0731C55.7066 24.1346 55.7478 24.2064 55.789 24.268C56.0363 24.5757 56.2836 24.8731 56.5205 25.1706C56.572 25.2424 56.6133 25.3347 56.6751 25.386C56.8811 25.5398 56.8811 25.6834 56.7678 25.8681C56.706 25.9604 56.6648 26.1245 56.7163 26.2271C57.2417 27.3656 57.2932 28.5656 57.6126 29.7349C57.7363 30.1965 57.9114 30.6581 58.138 31.0889C58.4368 31.6838 58.5708 32.2889 58.5914 32.9146C58.6017 33.3454 58.8283 33.7044 59.0241 34.0736C59.1271 34.2583 59.2301 34.4531 59.292 34.6583C59.395 34.9557 59.2198 35.1814 58.9211 35.1404C58.3132 35.0686 57.7053 34.9968 57.0975 34.9147C56.8605 34.8839 56.7163 34.6685 56.8296 34.4737C57.0254 34.1352 57.015 33.807 56.8502 33.3967C56.6854 32.9761 56.6957 32.5248 56.5617 32.094C56.2114 30.9658 55.6036 29.9401 54.9854 28.9246C54.7278 28.4938 54.357 28.1246 54.0685 27.7656C53.8418 27.7861 53.5946 27.8066 53.337 27.8271C53.1412 27.8477 52.9455 27.8784 52.7497 27.8989C51.977 27.9913 51.3177 27.7553 50.7819 27.0579C50.7613 27.0374 50.7407 27.0066 50.7201 26.9861C50.7098 26.9758 50.6892 26.9656 50.6583 26.945C50.6068 26.9656 50.5347 26.9861 50.4728 27.0271C49.8753 27.4066 49.1747 27.4374 48.4535 27.4374C48.3299 27.4374 48.2062 27.5502 48.1032 27.6323C48.062 27.663 48.062 27.7246 48.0414 27.7759C47.8559 28.1656 47.8456 28.1349 47.4335 27.8989C47.1244 27.7246 46.7742 27.6015 46.4342 27.5194C46.0736 27.4271 45.7027 27.4169 45.3421 27.3656C45.0845 28.5451 44.8167 29.7349 44.5488 30.9658C44.4355 30.8837 44.353 30.8119 44.2706 30.7504C43.7142 30.3504 43.1682 29.9401 42.6016 29.5503C42.4367 29.4375 42.2513 29.3349 42.0658 29.2734C41.4579 29.0785 40.9325 28.7195 40.4071 28.34C40.1392 28.1451 39.8507 27.9913 39.5829 27.8271C39.8919 26.9553 40.2216 26.0629 40.541 25.1706C40.5204 25.1501 40.4998 25.1296 40.4792 25.1193C40.1495 25.4168 39.8301 25.704 39.5004 26.0014C39.4386 26.0527 39.3974 26.1245 39.3253 26.1655C38.8205 26.4322 38.4599 26.863 38.1199 27.304C37.9653 27.4989 37.8005 27.4989 37.5738 27.3553C37.3678 27.222 37.1617 27.0989 36.9351 26.9656C36.9145 27.0374 36.8732 27.0989 36.8732 27.1707C36.8114 27.9502 36.7496 28.7298 36.6878 29.5195C36.6672 29.8067 36.729 30.0734 36.8423 30.3606C37.0278 30.8017 37.0896 31.2837 37.1823 31.7453C37.2235 31.9299 37.1308 31.9812 36.9557 31.9607C35.2557 31.7556 33.5558 31.5402 31.8558 31.3453C31.6498 31.3248 31.5158 31.2119 31.4746 31.0478C31.4437 30.9247 31.4849 30.7401 31.5674 30.6683C31.7631 30.5247 31.9898 30.4222 32.2164 30.3298C32.6594 30.1555 33.123 30.0016 33.5661 29.8375C33.7515 29.776 33.9267 29.6837 34.1121 29.6426C34.2873 29.6016 34.3903 29.5093 34.4109 29.3247C34.4933 28.6887 34.586 28.0528 34.6582 27.4169C34.6685 27.304 34.6067 27.181 34.5757 27.0579C34.4624 26.5861 34.3388 26.1142 34.246 25.6322C34.1945 25.3757 34.1842 25.1296 33.9061 24.9757C33.8339 24.9347 33.7824 24.8526 33.7103 24.7911C33.463 24.5757 33.3806 24.35 33.3806 24.0116C33.3909 22.8012 33.8648 21.796 34.3079 20.7601C34.4315 20.4626 34.72 20.3498 35.0703 20.3396C35.266 20.3396 35.4618 20.2472 35.6369 20.1549C36.2757 19.8165 36.8938 19.4369 37.5429 19.119C37.8417 18.9754 38.192 18.9241 38.5217 18.8215C38.6144 18.7908 38.7071 18.76 38.7896 18.7292C38.8823 18.6882 38.975 18.5959 39.0677 18.5959C39.3356 18.5959 39.5623 18.5446 39.6962 18.2882C39.7271 18.2369 39.861 18.2369 39.9435 18.2369C40.304 18.2266 40.6956 18.2984 41.0149 18.1959C41.3137 18.1035 41.561 17.8676 41.7773 17.6522C41.9628 17.4676 42.1379 17.4368 42.3749 17.5702C42.447 17.6112 42.55 17.6727 42.6119 17.6625C42.7046 17.642 42.8179 17.5702 42.8385 17.4881C42.89 17.3138 42.9003 17.1189 42.9209 16.924C42.9209 16.8317 42.9003 16.7291 42.8797 16.6265C42.8797 16.5855 42.8179 16.524 42.8282 16.4932C42.9209 16.1034 42.6016 15.9496 42.3749 15.7342C42.004 15.3854 41.7979 14.9957 41.7155 14.5033C41.5095 13.293 41.2828 12.093 41.0458 10.8826C40.9943 10.6057 40.8089 10.3288 40.7986 10.0518C40.7677 9.62103 40.6234 9.26204 40.2937 8.96459C40.1083 8.80047 39.9332 8.60559 39.7374 8.45174C39.4077 8.20557 39.1295 7.92863 38.9956 7.52861C38.975 7.48758 38.9647 7.41579 38.9338 7.40553C38.5526 7.2209 38.5938 6.90294 38.6041 6.54394L38.6659 6.56446Z" fill="#C34E35"/>
<path d="M114.226 45.3047C114.154 45.356 114.082 45.397 114.01 45.4483C114.072 45.3765 114.133 45.3355 114.226 45.3047Z" fill="#C34E35"/>
<path d="M131.679 39.0586C128.444 38.9663 125.374 40.0432 121.933 38.556C117.235 36.5148 113.268 34.2378 111.548 29.1503C111.311 28.4734 110.693 27.8887 110.157 27.3554C109.322 26.5246 108.313 25.6732 107.118 26.4733C106.108 27.14 104.439 27.6733 104.686 29.1401C105.665 34.9866 100.75 37.5918 98.1233 41.4484C97.7627 41.9818 97.3197 42.4741 96.5573 42.0023C95.9288 41.6126 95.764 41.0177 95.8567 40.351C96.104 38.4021 96.8045 36.6277 98.1954 35.2225C99.8129 33.5711 99.576 31.4376 98.0512 30.6273C96.1452 29.6119 95.6609 28.1452 95.1252 26.504C94.2495 23.8578 92.4156 24.9758 91.921 26.1758C90.4684 29.6427 88.0781 32.0736 85.1316 34.2481C83.7922 35.2225 82.9268 36.761 83.8128 38.6175C84.8225 40.7305 86.337 39.6227 87.7381 39.2432C88.3563 39.0688 88.9642 38.8021 89.5926 38.7303C90.5817 38.6073 91.9005 38.0944 92.4877 38.9663C93.1883 40.0022 92.0035 40.8023 91.3338 41.5408C88.243 44.9358 84.9049 48.1052 82.2365 51.89C81.0208 53.6235 80.7632 60.8854 81.9892 60.8444C84.4207 60.7521 84.9873 58.157 86.3267 56.598C86.6461 56.2287 87.017 55.9005 87.3569 55.562C88.7684 54.2081 89.8811 52.8029 88.0266 50.9669C89.7781 49.7771 90.7465 47.8385 92.7556 45.3256C92.5289 48.7104 92.2404 50.9566 92.2713 53.2132C92.3125 56.3928 90.6744 59.4289 91.5089 62.6188C91.8386 63.8394 91.2102 66.0549 93.1162 65.9523C94.4143 65.8703 94.0846 63.8291 94.1567 62.588C94.4246 57.9929 94.6925 53.3978 94.8779 48.8027C94.95 47.1 95.0325 44.6794 96.3203 44.3204C98.4736 43.7255 101.07 44.782 103.027 42.8229C103.13 43.028 103.203 43.2742 103.336 43.4588C105.201 45.7769 103.398 45.9718 101.698 46.4641C97.3094 47.7565 97.093 48.2386 98.7312 52.1567C99.9263 51.7054 100.184 49.9925 101.678 49.9822C102.564 49.8694 103.45 49.654 104.861 49.5309C103.635 49.9515 103.11 50.413 102.832 51.131C102.832 52.0131 102.481 53.1004 102.883 53.7465C104.356 56.198 102.935 59.6546 104.696 61.3675C106.541 63.1419 109.704 60.7418 112.331 61.6547C113.351 62.0137 114.669 62.3624 115.7 61.6342C118.626 59.552 118.688 51.7464 115.875 49.3668C114.69 48.2693 113.227 48.7411 111.939 48.6283C113.196 48.577 114.546 48.6591 115.885 48.5463C117.771 48.3719 119.924 49.1617 121.284 47.0795C120.47 46.5974 119.656 46.1051 118.852 45.6128C118.121 45.2948 117.389 44.9768 116.658 44.6691H111.929C113.516 43.0178 113.773 41.6741 112.691 40.3202C110.991 39.4586 110.734 36.6277 108.138 36.9867C107.138 38.238 106.86 40.3817 104.459 40.0227C105.407 35.8584 107.293 34.4532 110.517 35.4379C111.568 36.7405 112.609 38.0431 113.66 39.3458C115.566 40.3509 116.266 42.4229 117.647 43.8999C118.317 44.2589 118.997 44.6076 119.677 44.9563C120.614 45.2128 121.603 45.3563 122.263 46.1872C130.762 46.7 131.978 45.7871 131.7 39.1201L131.679 39.0586ZM108.508 53.3568C109.013 53.285 109.518 53.3055 110.023 53.2132C111.311 52.9978 112.568 51.3977 113.856 52.7003C114.906 53.7671 113.804 55.1005 113.474 56.2082C112.897 58.1365 110.878 57.9109 109.353 58.5058C107.447 58.1058 105.479 57.5006 105.263 55.2748C105.036 52.926 107.138 53.5311 108.508 53.3465V53.3568Z" fill="#C34E35"/>
<path d="M36.5541 58.3314C34.8233 56.239 34.8542 54.3927 35.0087 52.5464C35.1839 50.4745 35.6166 48.4437 33.8548 46.6589C33.216 46.0128 33.8342 45.1409 34.6687 44.5563C36.5232 43.2434 38.3159 41.8484 40.0468 39.9099C38.6662 39.7355 37.5844 39.7868 36.5335 40.3099C35.8329 40.6689 35.0499 41.6946 34.473 40.3099C34.0197 39.2124 33.8548 37.961 35.3487 37.3969C36.822 36.843 38.3159 36.1045 39.851 35.9917C45.2496 35.5917 50.5761 36.1968 55.8408 37.4277C56.9947 37.6944 56.8608 38.5457 56.9432 39.2432C57.0565 40.1458 56.2014 39.9201 55.6863 40.0022C53.2033 40.4227 51.1119 38.9252 48.7938 38.5047C47.0629 38.1867 45.3424 37.8995 43.6115 38.0841C42.5812 38.197 41.4479 38.6072 42.6842 39.9919C43.4466 40.8535 43.2509 41.8279 42.9006 42.8844C46.6405 42.8536 50.3186 42.4639 53.8833 44.0845C55.9645 45.0383 57.0565 46.1974 56.7681 48.5155C56.4281 51.2848 56.1705 54.0747 55.8923 56.8544C55.8408 57.3159 55.6554 57.839 55.2639 57.8903C54.9342 57.9314 54.419 57.5826 54.213 57.2646C53.5742 56.3005 53.4815 55.2338 53.5948 54.0542C53.7597 52.3413 54.1203 50.6489 53.8112 48.8847C53.3785 46.382 50.5555 44.2588 48.0211 44.6691C47.0938 44.823 47.5059 45.4589 47.5986 45.8076C48.1138 47.818 48.1962 49.8899 48.2786 51.931C48.3404 53.4696 48.0108 55.0184 47.8974 56.5672C47.8665 56.9364 47.9489 57.3775 47.4853 57.4185C47.0217 57.4493 46.6714 57.1826 46.6611 56.6287C46.6302 55.3261 46.5684 54.0234 46.5272 52.7208C46.4756 50.9874 46.4344 49.254 46.3726 47.5205C46.3417 46.6179 45.8987 45.8794 45.3629 45.1717C44.7551 44.3614 43.8897 44.5152 43.1685 44.6794C42.3855 44.8537 42.7873 45.6435 42.8388 46.1461C43.1066 48.9463 43.1376 51.7259 42.3546 54.4645C42.2412 54.8543 42.3752 55.4492 41.7776 55.4594C41.0667 55.4799 41.0358 54.8337 41.0255 54.3619C41.0255 52.1157 41.0873 49.8694 41.0873 47.6334C41.0873 46.7615 41.0667 45.5717 40.0468 45.5307C38.9753 45.4794 37.8214 45.9615 36.8014 46.423C36.3378 46.6282 36.9765 47.141 37.0487 47.541C37.6771 50.9874 37.368 54.3824 36.5644 58.3314H36.5541Z" fill="#C34E35"/>
<path d="M88.2014 19.6627C85.6566 22.309 83.3076 21.7141 80.9173 20.9448C79.8561 20.6063 78.3417 19.1088 78.4138 23.15C78.4447 24.7399 77.3114 24.7399 76.549 25.2014C73.5818 26.9964 72.8297 29.4068 72.7885 34.7096C72.7267 42.7203 72.4382 50.7207 72.2012 58.7212C72.16 60.0751 72.0055 61.5726 70.8928 61.5931C69.8007 61.6136 69.2134 60.4033 69.1516 58.7622C69.0589 56.3621 68.7292 53.8491 69.3474 51.5618C70.5734 47.0282 70.048 42.2895 70.0171 37.6431C69.9965 34.7917 69.1928 34.0224 67.668 36.0533C65.0923 39.4483 62.4239 42.6485 59.7246 45.7564C58.8798 46.7308 57.7259 46.8744 57.1696 44.9256C56.7266 43.3562 55.9126 43.2126 55.0781 42.7306C55.8817 40.8843 57.0562 40.3407 58.1277 39.8791C61.4349 38.4534 63.8766 34.5865 66.6584 31.6838C67.225 31.0992 67.3074 30.2684 67.3177 29.3657C67.3177 27.222 67.5959 25.7656 69.1928 26.4938C69.811 26.7707 70.3983 26.1143 70.9134 25.4578C72.16 23.868 73.1491 21.3653 72.4588 19.2729C71.9643 17.7651 70.048 18.1754 69.0177 19.4985C66.6996 22.5038 63.7118 21.9602 61.2288 24.0834C60.5488 24.6578 59.5289 26.0938 58.8901 24.0629C58.375 22.4115 58.3132 20.3396 59.1992 18.9754C60.518 16.9446 62.0736 15.0881 63.9075 15.1086C70.5837 15.1906 77.3011 14.2983 83.8948 17.0471C85.2548 17.6215 86.6972 17.919 88.2014 19.6627Z" fill="#C34E35"/>
<path d="M293.597 52.6594C290.434 51.449 287.672 51.1105 284.85 51.3157C283.871 51.3875 282.985 51.2849 282.995 50.1669C283.005 49.1207 283.819 48.6078 284.901 48.5976C288.847 48.5463 292.566 49.5412 295.966 51.3977C297.048 51.9926 297.769 53.4902 297.553 54.9364C297.316 56.4955 295.956 56.0031 294.967 56.0852C294.173 56.1467 293.36 56.0031 292.577 56.1365C290.753 56.4442 289.012 56.9262 289.053 59.3264C289.074 60.4752 288.435 61.388 287.961 62.3522C287.106 64.0856 286.076 65.7062 285.787 67.7063C285.622 68.8551 285.014 69.9116 283.654 70.4654C282.727 70.8449 281.748 71.4706 281.295 70.4347C280.934 69.5936 280.615 68.3423 282.037 67.5012C285.004 65.7267 287.343 59.4392 286.529 55.9826C286.065 54.0133 286.467 53.644 288.455 53.9107C290.073 54.1364 291.577 53.6235 293.576 52.6594H293.597Z" fill="#C34E35"/>
<path d="M265.594 70.2613C266.129 76.0564 266.871 83.2979 267.438 90.5495C267.561 92.1291 268.252 94.6626 266.016 94.9805C263.327 95.36 263.327 92.4676 263.214 90.8162C262.534 80.2515 262.132 69.6663 261.555 59.0914C261.472 57.4913 261.812 55.2451 259.196 55.2758C257.949 55.2861 256.27 55.4297 255.796 56.9272C255.466 57.9632 255.693 59.2042 255.785 60.3428C255.909 62.0659 256.249 63.7891 255.394 65.4405C254.941 66.3123 254.415 67.4303 253.374 67.1226C252.653 66.9072 251.839 65.8508 251.716 65.0712C251.252 62.0865 251.386 59.1017 250.273 56.0861C249.49 53.9732 252.602 53.4603 254.188 52.7321C255.713 52.0244 257.753 52.2193 258.598 50.4038C259.051 49.4191 259.546 48.0447 259.185 47.1831C258.65 45.8907 257.145 46.4138 256.094 46.7933C253.57 47.7164 250.964 48.5575 248.646 49.8807C247.471 50.5576 246.76 52.1167 245.73 50.0038C245.204 48.9165 244.421 47.9524 245.895 46.5061C248.46 43.9624 251.829 43.9932 254.827 42.8854C256.805 42.1469 259.257 41.6956 257.753 38.6493C256.919 36.9671 257.63 35.9722 259.123 35.5927C260.772 35.1722 262.657 36.0645 262.76 37.5005C263.08 42.0136 266.17 41.2135 269.024 41.3571C274.227 41.6238 279.512 41.3776 284.509 43.2649C285.849 43.7675 288.043 44.0034 287.507 46.0138C287.064 47.6959 285.076 47.7164 283.51 47.5523C279.276 47.101 275.062 46.5369 270.838 46.0343C269.746 45.901 268.437 45.3266 267.973 46.9369C267.458 48.6909 268.602 49.4396 270.065 49.7063C272.527 50.1576 275.072 50.2397 277.473 50.8961C283.469 52.527 285.375 56.3118 283.644 62.148C282.665 65.461 280.502 64.2507 278.565 63.6763C276.896 63.1839 275.7 62.8762 277.493 60.4864C278.863 58.6606 279.739 55.0707 275.361 54.445C272.074 53.9732 267.922 51.2961 266.706 57.2554C266.593 57.8196 266.552 58.4042 266.51 58.9786C266.243 62.2403 265.985 65.5123 265.614 70.251L265.594 70.2613Z" fill="#C34E35"/>
<path d="M238.281 36.2075C234.201 36.0126 230.173 36.4024 226.134 36.8947C221.683 37.428 220.117 39.5 221.415 43.9822C222.374 47.2747 223.054 50.7416 223.115 54.1572C223.301 64.7321 223.579 75.3891 214.276 83.2254C212.844 84.4255 211.865 86.8051 213.833 88.241C215.378 89.3898 216.985 88.1795 218.108 86.5589C221.209 82.1279 224.991 77.7174 224.589 72.0863C224.146 66.0552 227.319 64.609 232.172 63.4295C235.51 62.6089 236.354 63.2346 236.045 66.486C235.52 71.8504 234.943 77.2148 234.902 82.5895C234.891 85.923 234.211 90.1488 239.559 91.0925C239.713 89.5437 239.888 88.2103 239.94 86.8666C240.599 71.994 237.447 56.9163 243.092 42.3104C244.36 39.0487 242.423 36.4331 238.281 36.2177V36.2075ZM230.43 42.3514C232.223 42.0437 234.098 42.4129 234.325 44.5669C234.562 46.8747 232.491 46.4542 229.977 46.9363C228.906 47.244 227.844 46.1465 227.638 44.2079C227.422 42.1155 229.328 42.536 230.43 42.3514ZM232.316 56.9368C231.234 56.4137 228.05 57.4394 228.308 54.9367C228.596 52.2288 231.955 51.8288 234.242 51.4698C236.406 51.1314 236.035 53.4289 236.19 54.8546C236.499 57.665 234.665 57.3676 232.326 56.9368H232.316Z" fill="#C34E35"/>
<path d="M128.557 52.9055C128.423 52.885 128.3 52.8132 128.186 52.7619C128.052 52.1465 128.681 51.9311 128.897 51.5003C129.433 50.4541 129.217 49.4489 128.547 48.6797C127.97 48.0232 127.012 47.8283 126.177 48.3822C125.26 48.9874 124.714 49.7669 125.209 50.9362C125.425 51.4696 125.59 52.1055 125.023 52.5158C122.767 54.1671 123.499 56.0955 124.261 58.1879C124.642 59.2238 124.508 60.4649 124.55 61.6137C124.653 64.9985 124.735 65.0908 128.032 64.7113C131.452 64.3147 133.3 62.4514 133.575 59.1213C133.87 55.4766 132.201 53.4047 128.568 52.9055H128.557ZM131.442 60.3521C131.092 62.8343 129.299 63.942 126.847 63.3779C125.776 63.1317 126.177 62.3727 126.208 61.8496C126.27 61.0496 125.58 59.8187 127.136 59.6444C127.991 59.5418 128.866 59.5828 129.732 59.5418C130.134 59.5213 130.711 59.6751 130.803 59.111C130.896 58.4751 130.391 58.2494 129.845 58.2084C129.052 58.1469 128.248 58.0751 127.445 58.0956C126.486 58.1161 126.002 57.7263 125.817 56.7724C125.59 55.6647 126.25 55.3877 127.063 55.1723C127.136 55.1518 127.208 55.1416 127.269 55.121C130.731 54.0646 131.545 54.6492 131.452 58.1879C131.452 58.9059 131.535 59.6444 131.442 60.3521Z" fill="#C34E35"/>
<path d="M139.354 51.5623C141.899 51.6239 144.372 51.3162 146.752 52.0957C147.689 52.4034 148.153 52.7316 148.163 53.8496C148.184 56.0651 147.617 58.1268 146.927 60.1884C146.268 62.1578 145.639 64.1374 145.011 66.1067C144.331 68.2196 141.982 69.9018 139.756 69.8505C138.86 69.83 138.015 69.471 138.128 68.5581C138.273 67.4606 139.447 66.4862 140.292 66.599C142.631 66.917 143.321 65.1015 143.857 63.8091C144.99 61.091 145.732 58.1986 145.783 55.1933C145.804 53.8291 145.392 52.9573 143.857 52.9573C141.703 52.9573 139.55 52.9675 137.551 53.9625C137.016 54.2291 136.49 54.5471 136.264 53.5932C135.718 51.2751 137.891 49.5622 137.696 47.2749C137.665 46.9672 138.777 47.0595 139.282 47.3057C140.076 47.6852 140.467 48.434 140.271 49.275C140.106 50.0135 139.715 50.7007 139.354 51.5521V51.5623Z" fill="#C34E35"/>
<path d="M1.95756 41.1833C10.2409 37.9421 18.308 36.065 26.7871 36.3317C31.0215 36.4651 31.8972 37.8395 30.3931 41.7679C25.8805 53.6044 33.9475 63.5024 46.4962 61.5331C48.1858 61.2664 50.3288 60.4663 50.2464 63.4922C50.1846 65.5538 51.73 67.7898 47.681 68.7642C40.4279 70.5182 29.7337 62.5895 28.1883 52.4044C27.6834 49.0401 26.8283 45.6143 27.5186 42.209C28.0028 39.8396 26.9314 40.0652 25.1902 39.9934C19.1631 39.7268 13.3111 40.6909 7.46951 41.9423C5.76956 42.3013 4.02841 43.0808 1.94727 41.1935L1.95756 41.1833Z" fill="#C34E35"/>
<path d="M0 56.5583C0.432714 52.0144 4.94532 53.3786 7.12949 51.3682C6.55254 50.1374 5.96527 48.8758 5.37802 47.6142C4.89379 46.5782 4.94531 44.8551 6.10952 45.4089C9.4579 47.009 9.85971 42.9473 12.0233 42.8755C12.9711 42.8447 12.7651 44.3115 13.1463 45.0705C13.476 45.7167 13.6717 46.4346 13.9602 47.2142C14.5371 46.7936 14.9905 46.3731 15.5056 46.1167C16.5771 45.5833 15.2686 42.537 18.071 43.8089C19.8224 44.6089 20.9042 45.9628 20.2758 47.6347C19.3073 50.2195 20.8424 50.1682 22.5011 50.4143C23.3769 50.5477 24.8502 50.0861 24.5102 51.9119C24.3144 52.9786 23.9847 53.9633 22.6969 54.1171C21.9551 54.1992 21.203 54.2197 20.4612 54.2504C12.8372 54.5069 12.9196 54.5069 12.6105 62.3842C12.5281 64.4048 13.6923 66.805 11.4154 68.4871C8.61307 64.8254 11.6215 60.9688 10.8076 57.307C10.5809 56.3018 11.9512 54.2504 9.35487 54.5069C7.31493 54.712 6.34648 55.8403 7.37675 57.8301C8.88095 60.7226 6.50102 62.1381 5.20288 63.9638C4.56411 64.8561 3.57506 65.7793 2.63751 64.8972C1.63815 63.9638 0.618169 62.6509 1.39087 61.0098C1.57632 60.6303 2.00904 60.3739 2.29752 60.0354C3.30718 58.8763 5.58408 57.9635 4.43017 56.189C3.51323 54.7838 1.906 57.0301 0 56.5685V56.5583Z" fill="#C34E35"/>
<path d="M10.5188 30.1963C14.5163 29.7655 18.5241 29.4271 22.5112 28.8834C24.2421 28.6475 25.736 28.9245 27.2299 29.7758C28.4353 30.463 28.868 31.6118 28.765 32.7811C28.6207 34.3196 27.0959 33.8478 26.2614 33.8068C20.8525 33.4991 15.5466 34.3914 10.2098 35.0376C9.33403 35.1402 7.87105 35.3761 8.0462 34.3196C8.50982 31.5092 7.40742 29.7758 5.22325 28.2578C4.52266 27.7654 5.0687 26.9346 5.86201 26.5654C7.78862 25.6935 7.92256 23.7755 8.27286 22.1036C8.48921 21.0779 8.32436 19.7958 9.52977 19.5599C10.9 19.2932 12.5279 20.0009 12.837 21.2317C13.7024 24.6678 16.175 23.8883 18.4313 23.7139C20.9658 23.519 23.4797 23.0883 26.0141 22.9036C27.3329 22.8011 28.971 22.76 28.9401 24.7089C28.9092 26.4013 27.3123 26.2474 26.2202 26.2987C21.2852 26.5551 16.3708 26.9038 11.6418 28.5039C11.137 28.6783 10.694 29.0065 10.2201 29.2629C10.3231 29.5707 10.4364 29.8784 10.5395 30.1963H10.5188Z" fill="#C34E35"/>
<path d="M85.1415 43.8282C82.8337 50.6901 79.6707 51.5107 76.7139 45.5924C75.22 42.5974 73.9321 39.1921 72.6649 35.8073C72.3352 34.9252 71.7479 33.4995 72.4794 32.1866C73.3037 30.7198 73.8394 31.9199 74.4473 32.9558C77.5278 38.2177 81.4222 40.3306 85.1415 43.8282Z" fill="#C34E35"/>
<path d="M138.809 57.6249C139.077 57.7685 140.045 57.1018 140.581 57.9121C141.055 58.6199 141.786 59.5122 141.642 60.1584C141.508 60.7636 140.261 60.6507 139.478 60.702C139.128 60.7225 138.695 60.6302 138.428 60.7943C137.717 61.2354 136.944 61.6969 136.315 60.9482C135.811 60.3533 135.697 59.4507 136.223 58.7327C136.738 58.0249 137.119 56.948 138.819 57.6249H138.809Z" fill="#C34E35"/>
<path d="M188.262 39.2538C188.931 41.336 189.003 43.0489 190.765 44.0233C191.765 44.5772 192.032 45.7567 191.857 46.8542C191.167 51.357 189.663 55.4701 185.913 58.4138C185.377 58.8344 184.769 59.6036 183.976 58.8959C183.337 58.3215 183.512 57.4189 183.78 56.7932C184.223 55.747 184.872 54.8854 186.005 54.2393C188.53 52.8033 189.096 50.0236 189.972 47.5312C190.312 46.5773 189.642 45.8593 188.9 45.449C188.056 44.9772 187.314 45.2644 186.675 46.0747C184.635 48.6595 182.472 51.1519 180.504 53.7879C179.762 54.7829 179.02 55.6137 177.784 55.7778C177.083 55.8701 176.918 55.2137 176.929 54.6906C176.939 53.2854 176.805 52.0443 178.412 50.9878C181.276 49.1108 183.255 46.2491 185.387 43.6028C186.273 42.5053 186.448 41.336 186.119 39.8795C183.79 40.618 182.214 42.3822 180.329 43.7566C178.866 39.5821 178.896 39.6539 182.75 37.7255C184.924 36.6383 188.045 35.9203 185.665 32.2176C185.037 31.2431 185.387 29.6943 186.706 29.2635C188.21 28.761 188.715 30.32 189.117 31.2637C189.508 32.1868 189.22 33.3561 189.385 34.4023C189.519 35.2536 187.983 36.4844 189.446 36.8024C190.724 37.0896 192.342 37.9512 193.64 36.4537C195.061 34.8331 196.37 33.2022 196.339 30.8841C196.318 29.1199 196.576 27.1609 198.482 26.6993C200.378 26.2377 200.759 28.2891 201.779 29.4584C206.26 34.6279 209.053 41.7668 217.047 43.0797C218.037 43.2438 218.747 44.1464 218.356 44.9259C217.573 46.5055 216.635 48.2492 214.585 48.4646C211.649 48.7723 209.32 47.7261 208.063 44.9054C206.415 41.2027 204.118 37.9102 201.717 34.6587C200.326 32.7714 199.296 33.0176 198.193 34.8023C198.029 35.069 197.884 35.3562 197.72 35.6331C195.597 39.1615 192.929 41.5001 188.231 39.2743L188.262 39.2538Z" fill="#C34E35"/>
<path d="M200.573 57.1118C198.523 57.1015 196.854 56.9067 196.586 54.8963C196.37 53.2039 195.896 51.2038 198.441 50.5884C198.719 50.5268 199.172 50.1678 199.182 50.1883C201.058 52.927 203.808 51.2858 206.157 51.5936C208.136 51.85 208.146 53.686 208.362 54.9681C208.579 56.2297 207.322 56.2912 206.199 56.363C204.19 56.4861 202.191 56.8861 200.573 57.1118Z" fill="#C34E35"/>
<path d="M199.615 46.4654C197.998 46.5269 197.101 46.1064 197.122 44.5268C197.132 42.8857 198.059 41.7369 199.296 41.0087C200.038 40.5779 204.148 43.4498 204.004 44.1268C203.458 46.7833 200.965 45.7781 199.615 46.4654Z" fill="#C34E35"/>
<path d="M17.3908 56.9883C20.4198 59.0294 24.4172 59.214 23.8918 64.0758C23.5724 67.0093 22.5936 66.8247 20.5743 65.5939C17.4835 63.7066 16.7108 60.9988 17.3908 56.9883Z" fill="#C34E35"/>
<path d="M173.209 45.6127C172.849 47.2743 171.365 48.3 169.748 48.6795C166.894 49.3359 163.514 47.1922 161.701 43.951C160.496 41.8073 159.847 39.3149 157.848 37.2225C157.24 38.9456 156.694 40.3201 156.282 41.7355C155.911 43.0587 154.695 43.1612 153.881 43.0382C152.676 42.8638 153.047 41.674 153.243 40.8227C153.675 38.9764 153.799 36.9353 154.706 35.3454C156.261 32.6273 155.746 30.258 154.572 27.6835C153.634 25.6116 150.718 24.5448 149.06 26.0526C147.731 27.2527 147.226 28.7297 149.266 29.94C150.997 30.9657 151.749 31.8786 149.142 32.8838C147.906 33.3556 147.762 34.6582 147.751 35.9916C147.731 41.8073 145.31 44.228 139.427 44.3921C138.427 44.4126 136.738 44.8126 136.83 43.2125C136.892 42.1561 137.634 40.7098 139.221 40.6175C141.209 40.5047 142.919 39.5713 144.691 38.8431C145.886 38.3507 146.34 36.9968 145.763 36.0326C145.073 34.8839 144.104 35.6224 143.249 36.3506C141.941 37.4584 140.086 37.5917 138.726 38.761C137.861 39.5098 136.181 40.2893 135.615 38.9867C135.141 37.8892 135.388 36.0532 137.036 35.2018C139.107 34.1351 141.209 33.1094 143.177 31.8683C144.032 31.3247 145.443 31.2016 145.546 29.7862C145.608 28.9964 145.917 27.9604 145.546 27.4578C144.897 26.586 144.135 27.6014 143.455 27.8886C142.796 28.1656 142.177 28.5246 141.58 28.9041C140.581 29.5195 139.427 30.1657 138.891 28.6066C138.52 27.5091 137.809 26.0526 139.447 25.1192C141.456 23.9602 144.073 23.7756 145.248 21.2729C145.495 20.7498 146.484 20.8523 147.174 21.3447C148.905 22.596 150.698 23.8063 152.181 21.037C152.398 20.6267 152.789 20.7293 152.872 20.8831C154.314 23.4884 157.044 22.3909 159.136 23.0986C159.692 23.2832 160.248 23.5807 160.702 23.9602C161.238 24.4013 161.794 25.0269 161.567 25.7757C161.289 26.7501 160.424 26.3398 159.754 26.2988C158.548 26.2167 157.333 26.1244 156.035 26.0321C156.035 27.5604 156.704 28.6681 157.189 29.8374C158.538 30.0734 158.229 28.4733 159.259 28.145C160.135 29.7656 162.546 31.1503 159.805 33.3043C159.589 33.4787 159.548 34.0531 159.599 34.412C160.248 38.4533 164.936 43.0074 169.222 43.7972C169.82 43.5818 170.417 43.3664 171.015 43.151C172.571 43.2536 173.477 44.2895 173.189 45.6332L173.209 45.6127Z" fill="#C34E35"/>
<path d="M145.412 18.9042C144.063 19.0375 142.723 18.6067 142.414 17.3862C142.085 16.104 143.816 16.2887 144.506 15.6425C145.629 14.586 146.721 13.5603 148.4 14.8322C149.245 15.4681 150.193 16.0938 150.007 17.1913C149.843 18.1965 148.689 18.3503 147.834 18.576C147.051 18.7811 146.226 18.8016 145.423 18.9042H145.412Z" fill="#C34E35"/>
<path d="M159.342 20.7296C158.631 20.3296 156.962 21.0681 157.137 19.5398C157.26 18.4525 157.724 16.8935 159.403 16.9653C160.774 17.0268 161.701 17.9807 161.639 19.3141C161.577 20.4321 160.619 20.9347 159.352 20.7398L159.342 20.7296Z" fill="#C34E35"/>
<path d="M181.338 63.705C178.587 62.3716 175.311 61.91 173.405 59.1099C172.189 57.3354 172.323 56.4431 174.003 55.5712C175.187 54.9558 175.548 54.1865 175.249 53.0685C174.817 51.3864 173.24 51.2223 171.561 51.0171C169.026 50.5145 167.873 50.7197 166.389 51.9915C165.369 52.8634 165.709 53.8481 166.976 54.5968C167.739 55.0379 168.48 55.7969 168.748 56.5149C168.985 57.12 167.883 57.2534 167.316 57.4482C166.028 57.8893 165.029 58.7714 163.36 58.6791C162.288 58.6175 162.103 59.7663 161.907 60.6074C161.712 61.428 162.33 61.4997 163.051 61.7357C163.875 61.9921 164.596 62.2793 164.905 61.3972C165.524 59.6227 168.151 60.0945 169.15 58.6381C169.665 57.8893 169.985 58.0637 172.571 61.9408C172.921 62.4639 173.395 62.9357 173.611 63.4896C174.786 66.4744 177.382 67.2744 180.699 67.1719C182.379 67.1206 184.862 67.5308 185.109 66.0744C185.336 64.741 182.791 64.423 181.338 63.7255V63.705ZM171.983 53.9609C171.705 54.5045 171.303 54.9045 170.531 54.8943C170.16 54.5763 169.573 54.3199 169.789 53.8275C170.057 53.2121 170.757 53.1301 171.468 53.2121C172.004 53.2634 172.21 53.5301 171.994 53.9609H171.983Z" fill="#C34E35"/>
<path d="M160.372 58.8953C159.558 57.8594 159.785 57.3055 161.001 56.6696C163.36 55.4285 163.659 54.0746 162.258 51.8796C161.567 50.7821 160.64 49.7769 159.878 48.6999C159.538 48.2281 159.198 48.023 158.683 48.4025C156.807 49.7872 154.768 51.0898 153.717 53.0591C153.232 53.972 152.645 55.408 154.17 55.9619C156.272 56.7311 155.406 57.3978 154.695 58.2902C154.036 59.1005 153.377 59.9313 152.831 60.8031C152.336 61.5929 152.223 62.8648 153.335 62.9879C156.952 63.3776 155.757 65.1931 155.375 66.7932C155.262 67.5112 155.046 68.2189 155.056 68.9369C155.066 69.4292 154.675 70.2601 155.684 70.3729C156.447 70.4549 156.725 69.7985 156.838 69.1933C157.127 67.6958 157.395 66.2086 157.724 64.7213C157.9 63.9315 158.126 63.2648 159.538 63.6033C161.361 64.0341 161.742 63.1828 161.464 61.7776C161.269 60.7724 161.083 59.7672 160.403 58.9056L160.372 58.8953ZM158.724 60.4236C157.92 61.357 156.694 61.1108 155.478 60.7006C155.818 59.5928 156.467 58.7825 157.9 59.0184C158.559 59.1313 159.136 59.9416 158.724 60.4236ZM159.445 54.0848C158.61 54.5977 157.797 55.09 156.231 54.3413C155.973 54.1874 154.706 54.6079 154.531 53.6643C154.397 52.936 155.468 52.7822 156.024 52.4027C156.416 52.136 156.828 51.9001 157.271 51.695C157.93 51.377 158.343 50.1462 159.455 51.377C160.331 52.3514 160.826 53.2438 159.445 54.0951V54.0848Z" fill="#C34E35"/>
<path d="M165.822 68.3835C165.936 66.8859 166.688 66.3936 168.161 67.2039C169.366 67.8706 171.499 67.5937 171.571 69.4297C171.602 70.3938 171.448 71.44 169.665 70.722C169.037 70.4759 168.316 70.1784 167.687 70.2297C165.688 70.3836 165.503 69.5117 165.833 68.3835H165.822Z" fill="#C34E35"/>
<path d="M166.183 63.1009C166.307 62.065 167.44 61.8393 168.213 62.1265C169.428 62.5675 171.293 62.7419 171.262 64.3112C171.252 65.0908 170.747 66.0652 169.264 65.5728C167.852 65.1113 165.781 65.2446 166.183 63.1009Z" fill="#C34E35"/>
<path d="M153.047 66.25C152.635 66.8244 152.851 68.2398 151.285 68.3937C150.44 68.4757 150.44 67.5526 150.698 67.2654C151.481 66.4038 150.461 64.6294 152.336 64.4653C153.16 64.3935 153.48 65.2243 153.047 66.25Z" fill="#C34E35"/>
<path d="M159.692 65.8281C160.754 66.4333 161.032 67.3462 161.176 68.2693C161.269 68.8744 160.65 69.6745 160.207 69.5411C158.786 69.1206 159.064 67.9103 158.961 66.9564C158.909 66.4948 158.94 65.9204 159.703 65.8281H159.692Z" fill="#C34E35"/>
<path d="M219.87 29.3471C223.857 29.5522 227.71 30.4343 231.832 31.4805C229.544 32.5199 227.388 32.7079 225.361 32.0447C224.393 31.737 223.425 31.419 222.446 31.1831C221.549 30.9677 221.024 31.1728 220.859 32.3011C220.437 35.2756 218.799 37.3783 215.914 38.5065C215.254 38.763 214.626 39.1322 214.296 38.2912C214.039 37.6244 213.606 36.7834 214.698 36.2603C215.739 35.7577 216.759 35.1935 217.727 34.5679C218.778 33.8909 219.437 32.7421 218.912 31.6549C218.49 30.7728 217.222 31.0702 216.326 31.2754C214.575 31.6754 212.751 31.8908 211.195 32.9575C210.763 33.255 210.072 33.7371 209.722 33.0293C209.423 32.4344 210.113 31.9113 210.598 31.7062C211.865 31.1831 213.225 30.8856 214.492 30.383C215.491 29.983 217.191 30.4753 217.057 28.4342C217.037 28.0342 217.933 28.1162 218.417 28.0137C219.128 28.2188 219.324 28.9573 219.85 29.3471H219.87Z" fill="#C34E35"/>
<path d="M230.266 27.4282C230.039 27.7154 229.709 27.7872 229.534 27.6231C229.04 27.1205 228.061 26.8333 228.319 25.9101C228.916 23.8587 227.556 23.7972 226.186 23.6946C222.178 23.4074 218.212 23.869 214.235 24.2485C213.544 24.7101 212.761 24.5972 211.989 24.6485C211.257 24.9562 210.515 25.2742 209.774 25.5819C209.609 25.1306 209.197 25.0896 208.805 25.028C209.537 24.2588 210.649 24.7306 211.463 24.2383C212.329 23.1613 211.927 21.8997 212.009 20.6996C212.02 19.9611 211.113 19.2944 211.865 18.5046C212.257 17.92 212.669 17.3456 213.029 16.7404C213.307 16.2789 213.689 16.2276 214.111 16.4122C214.503 16.5866 214.863 16.8635 214.904 17.3353C214.946 17.8789 214.554 18.0123 214.101 18.1354C213.606 18.2687 212.885 18.0943 212.813 18.9251C213.503 18.9867 214.183 19.038 214.873 19.0995C214.719 20.0021 213.596 19.5816 213.204 20.2996C213.606 21.0894 214.389 20.5252 215.049 20.874C214.101 21.5509 213.132 22.1663 212.792 23.3049C212.731 23.6434 212.978 23.7049 213.215 23.7869C213.792 23.6331 214.379 23.4792 214.956 23.3254C215.914 23.069 216.893 22.9048 217.882 22.8946C219.376 22.8741 220.849 22.6177 222.333 22.4535C222.765 22.4023 223.229 22.392 223.239 21.7868C223.25 20.956 222.662 21.1509 222.168 21.1612C221.807 21.1612 221.447 21.1817 221.086 21.1919C221.086 21.0483 221.086 20.9047 221.076 20.7611C221.879 19.9611 224.486 21.1099 223.569 18.4636C223.229 16.9866 221.735 18.2584 221.024 17.3456C222.096 16.3814 223.177 16.5353 224.383 17.0276C225.485 17.4687 225.64 18.3918 225.609 19.3047C225.578 20.3406 224.826 21.9612 225.217 22.2689C226.227 23.0484 227.669 23.2946 228.978 23.6434C230.657 24.1049 231.348 26.0537 230.266 27.4179V27.4282Z" fill="#C34E35"/>
<path d="M221.096 21.2028C221.096 21.2028 221.086 21.2336 221.076 21.2336C221.076 21.2336 221.065 21.2233 221.065 21.2131C220.983 21.1002 220.952 20.9669 220.952 20.8438C220.952 20.7925 220.952 20.7515 220.962 20.7002C220.962 20.7002 220.973 20.6797 220.983 20.6797C221.014 20.7105 221.055 20.7412 221.086 20.772C221.086 20.9156 221.096 21.0592 221.096 21.2028Z" fill="#C34E35"/>
<path d="M219.87 29.3466C219.18 29.1209 218.49 28.9158 218.438 28.0132C218.881 27.0798 219.891 26.8849 220.643 26.3413C221.168 25.89 220.457 25.1104 221.096 24.6797C221.735 24.4437 222.322 24.772 222.703 25.1104C223.579 25.9002 224.197 26.69 222.466 27.4285C221.518 27.8285 219.88 27.5721 219.891 29.3363L219.87 29.3466Z" fill="#C34E35"/>
<path d="M221.086 24.6895C221.035 25.2638 221.302 25.9305 220.633 26.3511C220.53 25.0279 219.633 25.5818 219.067 25.7869C217.738 26.2895 216.44 26.8947 215.141 27.4896C214.637 27.7255 214.152 27.8999 213.823 27.3563C213.514 26.8434 213.884 26.546 214.255 26.1357C215.028 25.2536 216.048 25.2844 217.017 25.1305C218.366 24.9151 219.726 24.8331 221.086 24.6895Z" fill="#C34E35"/>
<path d="M218.995 18.9153C218.819 19.1204 218.624 19.1409 218.407 18.9768C217.861 18.9153 217.305 18.8435 216.749 18.7717C217.676 18.0947 216.439 17.0075 217.037 16.5459C217.604 16.1049 218.788 15.7664 219.314 16.0536C221.117 17.0588 219.489 17.9716 218.995 18.905V18.9153Z" fill="#C34E35"/>
<path d="M221.075 21.2326C220.808 21.725 220.478 22.0224 220.117 22.207C219.437 22.5558 218.623 22.4737 217.809 22.4327C217.614 22.4224 217.418 22.4019 217.222 22.4019C216.645 20.9249 218.088 20.1351 218.407 18.9658C218.623 19.1299 218.819 19.1094 218.994 18.9043C219.272 19.0582 219.54 19.212 219.818 19.3659C219.839 19.3966 219.86 19.4274 219.88 19.4479C220.138 19.9915 219.169 21.6326 220.952 20.8326C220.952 20.9659 220.983 21.089 221.065 21.2019C221.065 21.2019 221.065 21.2121 221.075 21.2224V21.2326Z" fill="#C34E35"/>
<path d="M218.407 18.9776C218.603 18.957 218.799 18.9365 218.994 18.916C218.819 19.1212 218.624 19.1417 218.407 18.9776Z" fill="#C34E35"/>
<path d="M221.096 21.2028C221.096 21.2028 221.086 21.2336 221.076 21.2336C221.076 21.2336 221.065 21.2233 221.065 21.2131C220.983 21.1002 220.952 20.9669 220.952 20.8438C220.952 20.7925 220.952 20.7515 220.962 20.7002C220.962 20.7002 220.973 20.6797 220.983 20.6797C221.014 20.7105 221.055 20.7412 221.086 20.772C221.086 20.9156 221.096 21.0592 221.096 21.2028Z" fill="#C34E35"/>
<path d="M209.784 25.5822C209.918 26.495 210.083 27.4079 210.165 28.331C210.206 28.7618 210.041 29.2337 209.547 29.3362C209.32 29.3875 208.99 29.2439 208.784 29.0901C208.063 28.5259 208.104 25.7873 208.826 25.0283C209.423 24.7411 209.835 24.7719 209.794 25.5822H209.784Z" fill="#C34E35"/>
<path d="M221.097 21.2031C221.097 21.2031 221.087 21.2352 221.076 21.2352C221.076 21.2352 221.065 21.2245 221.065 21.2138C221.076 21.2138 221.087 21.2138 221.097 21.2031Z" fill="#C34E35"/>
<path d="M221.086 20.7725C221.086 20.7725 220.993 20.8135 220.952 20.834C220.952 20.7827 220.952 20.7417 220.962 20.6904C220.962 20.6904 220.973 20.6699 220.983 20.6699C221.014 20.7007 221.055 20.7315 221.086 20.7622V20.7725Z" fill="#C34E35"/>
<path d="M223.198 18.5668C222.652 19.8899 221.653 19.7566 220.571 19.3668C221.179 18.2488 222.271 18.6386 223.198 18.5668Z" fill="#C34E35"/>
<path d="M256.785 23.8791C256.877 23.8586 256.908 23.797 256.96 23.7458C257.382 23.3662 257.815 22.9867 258.227 22.5867C258.691 22.1457 258.928 21.6123 258.928 21.0071C258.928 18.7609 258.928 16.5146 258.928 14.2683C258.928 13.817 259.237 13.4272 259.68 13.3247C260.319 13.1708 260.916 13.5298 260.999 14.1247C261.019 14.2478 261.019 14.3606 261.019 14.4837C261.019 16.6274 261.019 18.7609 261.019 20.9046C261.019 21.5918 261.277 22.1867 261.812 22.6688C262.204 23.0278 262.606 23.3868 262.997 23.7355C263.049 23.7765 263.1 23.8176 263.172 23.8791C263.193 23.756 263.203 23.6637 263.214 23.5714C263.296 22.2893 263.214 21.0071 262.997 19.7353C262.925 19.3353 262.832 18.925 262.946 18.5147C263.069 18.0224 263.327 17.5916 263.739 17.2531C264.058 16.9967 264.45 16.9556 264.862 17.0377C265.707 17.2223 266.469 17.5813 267.19 17.9916C268.015 18.4532 268.767 19.007 269.437 19.643C269.972 20.1456 270.426 20.6994 270.848 21.2841C271.312 21.92 271.765 22.5662 272.177 23.2329C272.733 24.1253 273.238 25.0381 273.681 25.9715C274.124 26.9152 274.495 27.8793 274.784 28.864C275.072 29.8692 275.247 30.9051 275.433 31.9308C275.567 32.6796 275.731 33.4283 275.855 34.1771C275.979 34.9464 276.082 35.7259 276.133 36.5054C276.185 37.3465 276.164 38.1876 276.082 39.0184C276.03 39.5517 275.979 39.3158 275.731 39.8082C275.453 40.3518 275.082 40.7723 274.423 40.68C273.97 40.6082 273.063 40.4543 272.672 40.2492C272.002 39.9005 271.806 40.0338 271.116 39.7261C270.673 39.5312 270.22 39.3569 269.756 39.1927C268.849 38.8748 267.922 38.6184 266.995 38.3517C266.222 38.126 265.48 37.8593 264.821 37.4183C264.316 37.0798 263.935 36.6593 263.646 36.1567C263.121 35.2643 262.843 34.3002 262.74 33.295C262.668 32.5667 262.76 31.8693 262.925 31.1615C263.049 30.6179 263.142 30.0538 263.131 29.4897C263.131 29.1409 263.049 28.7922 263.008 28.4434C262.946 27.8691 262.925 27.2947 262.977 26.7203C262.997 26.5049 262.956 26.351 262.781 26.1869C262.163 25.6433 261.555 25.0792 260.947 24.5253C260.834 24.4227 260.71 24.3099 260.576 24.2176C260.257 23.9714 259.649 23.9919 259.33 24.2586C258.65 24.833 258.021 25.4689 257.331 26.0433C257.042 26.2792 256.95 26.5151 256.98 26.8741C257.042 27.5921 257.001 28.3101 256.857 29.0178C256.733 29.6127 256.857 30.1871 256.95 30.7718C257.022 31.2333 257.156 31.6846 257.207 32.1462C257.279 32.8334 257.217 33.5104 257.073 34.1771C256.867 35.1002 256.527 35.9618 255.909 36.7311C255.476 37.2747 254.868 37.6337 254.219 37.9106C253.447 38.2491 252.622 38.444 251.819 38.6799C250.819 38.9773 249.841 39.2851 248.893 39.7056C248.347 39.9415 247.821 40.2287 247.306 40.5261C246.791 40.8133 246.276 41.121 245.658 41.2236C244.895 41.357 244.432 41.121 244.164 40.4543C243.989 40.0236 243.917 39.5722 243.865 39.1209C243.803 38.4953 243.783 37.8798 243.783 37.2542C243.783 36.3208 243.896 35.3977 244.04 34.4848C244.246 33.1616 244.525 31.859 244.761 30.5461C244.937 29.5512 245.204 28.587 245.555 27.6331C245.987 26.4844 246.503 25.3766 247.121 24.2996C247.687 23.3047 248.316 22.3508 248.996 21.4174C249.532 20.6789 250.109 19.9814 250.809 19.366C251.613 18.6686 252.489 18.0839 253.478 17.6223C253.931 17.4069 254.395 17.2223 254.889 17.089C255.682 16.8736 256.259 17.1403 256.682 17.7967C257.073 18.4019 257.073 19.0275 256.96 19.684C256.826 20.402 256.754 21.1302 256.713 21.8585C256.682 22.5047 256.713 23.1508 256.754 23.7868C256.754 23.8073 256.764 23.8381 256.774 23.8586L256.785 23.8791Z" fill="#C34E35"/>
</svg>
