<svg width="519" height="95" viewBox="0 0 519 95" fill="none" xmlns="http://www.w3.org/2000/svg">
<g clip-path="url(#clip0_594_686)">
<path d="M259.572 6.55371C259.572 6.9127 259.521 7.23067 259.902 7.41529C259.933 7.42555 259.954 7.49735 259.964 7.53838C260.098 7.9384 260.376 8.21534 260.706 8.4615C260.901 8.6051 261.077 8.79998 261.262 8.97435C261.602 9.2718 261.746 9.62054 261.767 10.0616C261.787 10.3283 261.963 10.6052 262.014 10.8924C262.251 12.1027 262.478 13.3028 262.684 14.5131C262.766 15.0054 262.972 15.4055 263.343 15.7439C263.57 15.9491 263.889 16.1132 263.796 16.503C263.796 16.5337 263.838 16.585 263.848 16.6363C263.869 16.7389 263.889 16.8414 263.889 16.9338C263.879 17.1286 263.869 17.3235 263.807 17.4979C263.786 17.5799 263.673 17.6517 263.58 17.6723C263.518 17.6928 263.426 17.621 263.343 17.5799C263.106 17.4569 262.921 17.4774 262.746 17.662C262.529 17.8877 262.272 18.1236 261.983 18.2056C261.664 18.2979 261.272 18.2364 260.912 18.2466C260.829 18.2466 260.695 18.2466 260.664 18.2979C260.531 18.5441 260.304 18.5954 260.036 18.6056C259.933 18.6056 259.851 18.698 259.758 18.739C259.675 18.78 259.583 18.8108 259.49 18.8313C259.16 18.9236 258.81 18.9749 258.511 19.1287C257.862 19.4467 257.244 19.8262 256.605 20.1647C256.43 20.257 256.234 20.3391 256.039 20.3493C255.688 20.3493 255.4 20.4827 255.276 20.7699C254.843 21.7956 254.369 22.811 254.349 24.0213C254.349 24.3495 254.431 24.5855 254.679 24.8008C254.751 24.8624 254.802 24.9444 254.874 24.9855C255.152 25.1393 255.163 25.3855 255.214 25.6419C255.307 26.1137 255.431 26.5958 255.544 27.0676C255.575 27.1907 255.637 27.3138 255.626 27.4266C255.554 28.0626 255.462 28.6985 255.379 29.3344C255.359 29.5088 255.256 29.6114 255.08 29.6524C254.895 29.6934 254.72 29.7755 254.534 29.8473C254.081 30.0114 253.628 30.1652 253.185 30.3396C252.958 30.4319 252.721 30.5345 252.536 30.6781C252.453 30.7396 252.412 30.9345 252.443 31.0576C252.484 31.2217 252.618 31.3345 252.824 31.355C254.524 31.5499 256.224 31.7551 257.924 31.9705C258.109 31.991 258.192 31.9397 258.151 31.7551C258.048 31.2935 257.986 30.8114 257.811 30.3704C257.687 30.0729 257.625 29.8062 257.656 29.5293C257.718 28.7498 257.78 27.9702 257.842 27.1805C257.842 27.1189 257.883 27.0574 257.903 26.9753C258.13 27.1189 258.346 27.2317 258.542 27.3651C258.769 27.5087 258.934 27.5087 259.088 27.3138C259.428 26.8728 259.789 26.442 260.294 26.1753C260.366 26.1445 260.407 26.0727 260.469 26.0112C260.798 25.7137 261.118 25.4265 261.447 25.1291C261.468 25.1496 261.489 25.1701 261.509 25.1804C261.19 26.0727 260.871 26.9651 260.551 27.8369C260.829 28.0113 261.118 28.1651 261.375 28.3498C261.901 28.7293 262.426 29.0883 263.034 29.2831C263.22 29.3447 263.405 29.4473 263.57 29.5601C264.126 29.9498 264.683 30.3601 265.239 30.7601C265.321 30.8217 265.404 30.8832 265.517 30.9755C265.785 29.7447 266.053 28.5549 266.31 27.3753C266.671 27.4164 267.042 27.4369 267.402 27.5292C267.742 27.6113 268.093 27.7343 268.402 27.9087C268.824 28.1446 268.824 28.1754 269.01 27.7856C269.03 27.7343 269.041 27.6728 269.071 27.642C269.185 27.5702 269.298 27.4471 269.422 27.4471C270.143 27.4471 270.844 27.4061 271.441 27.0369C271.503 26.9958 271.565 26.9856 271.627 26.9548C271.657 26.9753 271.678 26.9856 271.688 26.9958C271.709 27.0164 271.73 27.0369 271.75 27.0676C272.286 27.7549 272.945 28.001 273.718 27.9087C273.914 27.8882 274.11 27.8574 274.305 27.8369C274.553 27.8164 274.81 27.7959 275.037 27.7754C275.325 28.1446 275.696 28.5139 275.954 28.9344C276.572 29.9498 277.169 30.9858 277.53 32.1038C277.664 32.5346 277.664 32.9859 277.818 33.4064C277.973 33.8167 277.994 34.1449 277.798 34.4834C277.685 34.6783 277.829 34.8937 278.066 34.9245C278.674 35.0065 279.281 35.0783 279.889 35.1501C280.188 35.1809 280.363 34.9655 280.26 34.668C280.198 34.4732 280.095 34.2783 279.992 34.0834C279.797 33.7141 279.57 33.3552 279.56 32.9244C279.539 32.2987 279.405 31.6935 279.106 31.0986C278.89 30.6678 278.715 30.2063 278.581 29.7447C278.261 28.5754 278.21 27.3753 277.685 26.2368C277.643 26.1343 277.685 25.9701 277.736 25.8778C277.849 25.6932 277.849 25.5496 277.643 25.3958C277.582 25.3445 277.54 25.2522 277.489 25.1804C277.242 24.8726 276.994 24.5752 276.757 24.2777C276.706 24.2162 276.675 24.1444 276.634 24.0829C276.407 23.7341 276.18 23.3956 275.964 23.0469C275.851 22.8725 275.748 22.6777 275.686 22.4828C275.603 22.2366 275.49 22.052 275.212 21.9904C275.088 21.9597 274.954 21.8468 274.841 21.7443C274.748 21.6622 274.676 21.5494 274.583 21.4673C274.089 21.0365 273.615 20.6057 273.1 20.2057C272.626 19.8262 272.121 19.498 271.524 19.3954C271.379 19.3749 270.885 18.739 270.905 18.5954C270.905 18.5646 270.936 18.5338 270.957 18.5031C271.173 18.2774 271.317 18.0005 271.379 17.6723C271.4 17.5799 271.503 17.5081 271.575 17.4363C271.75 17.2722 271.822 17.0876 271.678 16.8209C271.616 16.7081 271.616 16.5645 271.575 16.4414C271.503 16.2465 271.451 16.0311 271.338 15.867C271.132 15.5696 270.885 15.3029 270.658 15.0157C270.297 14.5644 270.297 14.3798 270.648 13.9695C271.4 14.3798 272.183 14.6567 273.017 14.7695C273.43 14.8311 273.842 14.9849 274.243 15.067C274.594 15.1388 274.831 14.9849 274.923 14.7593C275.14 14.6465 275.294 14.5644 275.449 14.4823C275.552 14.4208 275.645 14.3182 275.758 14.2772C275.923 14.2259 276.129 14.2567 276.283 14.1849C276.417 14.1336 276.551 14.0105 276.603 13.8772C276.737 13.5079 276.788 13.1079 276.922 12.7387C277.005 12.5027 277.025 12.2874 276.953 12.0412C276.902 11.836 276.902 11.6719 277.108 11.5489C277.19 11.5078 277.221 11.2001 277.159 11.1591C276.871 10.9027 276.912 10.5744 276.963 10.3385C277.046 9.94876 277.025 9.57951 276.891 9.17949C276.654 8.49227 276.417 7.80506 276.18 7.11784C276.098 6.89219 275.974 6.77936 275.696 6.79988C275.737 7.04604 275.768 7.2717 275.799 7.50761C275.799 7.50761 275.789 7.50761 275.779 7.50761C275.645 7.18964 275.511 6.86142 275.377 6.54345C275.305 6.36908 275.181 6.23574 275.016 6.3178C274.944 6.34857 274.944 6.54345 274.965 6.66653C274.996 6.83065 275.068 6.9845 275.119 7.14861C274.954 6.88193 274.841 6.60499 274.707 6.33831C274.666 6.26651 274.542 6.19471 274.46 6.19471C274.398 6.19471 274.346 6.29728 274.295 6.35883C274.254 6.39985 274.223 6.4614 274.171 6.48191C274.006 6.54345 273.934 6.66653 273.986 6.85116C274.089 7.22041 274.213 7.58966 274.316 7.95891C274.419 8.29739 274.511 8.63587 274.594 8.98461C274.604 9.03589 274.573 9.12821 274.522 9.15898C274.223 9.35386 274.213 9.37437 274.408 9.74362C274.48 9.88722 274.511 10.0308 274.336 10.0821C274.006 10.1642 273.79 10.3796 273.584 10.6257C273.574 10.6462 273.533 10.6565 273.512 10.6565C273.285 10.5334 273.048 10.4103 272.822 10.2667C272.677 10.1744 272.564 10.0411 272.44 9.92825C272.296 9.80517 272.131 9.71285 272.008 9.57951C271.307 8.84101 270.524 8.23585 269.618 7.81531C269.205 7.62043 268.721 7.62043 268.412 7.17938C268.381 7.13836 268.309 7.11784 268.258 7.09733C267.918 6.90245 267.588 6.71782 267.248 6.52294C267.073 6.42037 267.021 6.30754 267.104 6.13317C267.196 5.94855 267.268 5.73315 267.372 5.54853C267.629 5.09722 267.681 4.60489 267.567 4.05101C267.536 3.89716 267.567 3.73304 267.557 3.57919C267.547 3.26122 267.557 2.95351 267.505 2.63555C267.464 2.36887 267.464 2.14321 267.608 1.93807C267.773 1.70216 267.753 1.34317 267.578 1.14829C267.289 0.820066 266.918 0.461072 266.537 0.337988C265.909 0.132849 265.239 0.102078 264.59 0.00976562C264.559 0.00976562 264.518 0.00976562 264.487 0.0302796C264.147 0.16362 263.735 0.225162 263.477 0.461072C263.189 0.717496 262.962 1.08675 262.849 1.47651C262.704 1.99962 262.849 2.58426 263.044 3.1484C262.787 3.44585 262.91 4.25615 263.323 4.52283C263.735 4.78951 263.704 5.11773 263.704 5.51776C263.209 4.90234 262.529 4.71771 261.963 4.31769C261.808 4.20486 261.623 4.04075 261.571 3.86638C261.509 3.68176 261.581 3.47662 261.592 3.27148C261.592 2.61503 261.231 2.22527 260.613 2.31758C260.046 2.39964 259.49 2.57401 258.934 2.70735C258.748 2.74838 258.676 2.88172 258.635 3.06634C258.594 3.23045 258.532 3.42533 258.408 3.51765C258.099 3.7433 257.8 3.93818 257.625 4.31769C257.512 4.54334 257.398 4.73823 257.419 5.01516C257.44 5.2921 257.491 5.53827 257.78 5.69212C257.852 5.73315 257.883 5.83572 257.945 5.89726C258.006 5.96906 258.089 6.0306 258.161 6.08189C258.388 6.20497 258.645 6.28703 258.831 6.45114C259.088 6.67679 259.325 6.73833 259.634 6.57422L259.572 6.55371Z" fill="#C34E35"/>
<path d="M259.572 6.55371C259.253 6.70757 259.026 6.65628 258.769 6.43063C258.583 6.26652 258.326 6.19472 258.099 6.06138C258.016 6.02035 257.944 5.94855 257.883 5.87676C257.821 5.81521 257.79 5.71264 257.718 5.67162C257.44 5.5075 257.378 5.26134 257.357 4.99466C257.336 4.71772 257.45 4.52284 257.563 4.29718C257.749 3.91768 258.047 3.72279 258.346 3.49714C258.47 3.40483 258.532 3.20994 258.573 3.04583C258.624 2.87146 258.686 2.72787 258.872 2.68684C259.428 2.5535 259.974 2.37913 260.551 2.29707C261.169 2.20476 261.54 2.59453 261.53 3.25097C261.53 3.45611 261.447 3.66125 261.509 3.84588C261.571 4.00999 261.746 4.18436 261.901 4.29718C262.457 4.6972 263.147 4.88183 263.642 5.49725C263.642 5.08697 263.683 4.769 263.261 4.50232C262.848 4.23564 262.725 3.42534 262.982 3.12789C262.787 2.56376 262.642 1.97911 262.787 1.456C262.89 1.0765 263.127 0.696988 263.415 0.440564C263.673 0.204654 264.085 0.143112 264.425 0.00977174C264.456 -0.000485224 264.497 -0.0107422 264.528 -0.0107422C265.177 0.0918275 265.847 0.112341 266.475 0.317481C266.856 0.440564 267.227 0.799558 267.516 1.12778C267.701 1.33292 267.711 1.68166 267.546 1.91757C267.402 2.13296 267.402 2.35862 267.443 2.61504C267.495 2.93301 267.485 3.24072 267.495 3.55868C267.495 3.71254 267.474 3.87665 267.505 4.0305C267.619 4.57412 267.567 5.07671 267.31 5.52802C267.206 5.71264 267.145 5.91778 267.042 6.11267C266.949 6.28703 267 6.39986 267.186 6.50243C267.526 6.68706 267.856 6.88194 268.196 7.07682C268.247 7.10759 268.319 7.11785 268.35 7.15888C268.659 7.61018 269.143 7.61018 269.555 7.79481C270.462 8.21534 271.245 8.8205 271.946 9.559C272.069 9.69235 272.234 9.78466 272.378 9.90774C272.512 10.0206 272.626 10.1539 272.76 10.2462C272.976 10.3898 273.213 10.5129 273.45 10.636C273.471 10.636 273.501 10.636 273.522 10.6052C273.728 10.3693 273.955 10.1437 274.274 10.0616C274.449 10.0206 274.418 9.87697 274.346 9.72312C274.15 9.34361 274.161 9.3231 274.46 9.13847C274.501 9.1077 274.542 9.02564 274.532 8.9641C274.449 8.62562 274.357 8.27689 274.254 7.93841C274.151 7.56915 274.027 7.1999 273.924 6.83065C273.872 6.64603 273.944 6.52294 274.109 6.4614C274.161 6.44089 274.192 6.37935 274.233 6.33832C274.284 6.27678 274.336 6.17421 274.398 6.17421C274.48 6.17421 274.604 6.24601 274.645 6.3178C274.789 6.58449 274.903 6.86142 275.057 7.1281C275.006 6.96399 274.923 6.81014 274.903 6.64603C274.882 6.52294 274.892 6.32806 274.954 6.29729C275.119 6.21524 275.243 6.34858 275.315 6.52294C275.449 6.84091 275.583 7.16913 275.717 7.4871C275.717 7.4871 275.727 7.4871 275.737 7.4871C275.706 7.25119 275.665 7.01528 275.634 6.77937C275.912 6.75885 276.046 6.86142 276.118 7.09733C276.345 7.78455 276.582 8.47177 276.829 9.15898C276.963 9.55901 276.984 9.918 276.901 10.318C276.85 10.5539 276.809 10.8822 277.097 11.1386C277.149 11.1899 277.118 11.4873 277.046 11.5283C276.829 11.6412 276.84 11.8155 276.891 12.0207C276.953 12.2668 276.943 12.4925 276.86 12.7182C276.726 13.0874 276.664 13.4874 276.541 13.8567C276.489 13.99 276.355 14.1028 276.221 14.1644C276.067 14.2259 275.861 14.2054 275.696 14.2567C275.583 14.2875 275.49 14.4003 275.387 14.4618C275.243 14.5541 275.078 14.6259 274.861 14.7388C274.779 14.9542 274.532 15.1183 274.181 15.0465C273.769 14.9644 273.357 14.8106 272.955 14.749C272.131 14.6362 271.338 14.3593 270.586 13.949C270.235 14.349 270.235 14.5336 270.596 14.9952C270.823 15.2824 271.07 15.5491 271.276 15.8465C271.389 16.0106 271.441 16.226 271.513 16.4209C271.554 16.544 271.554 16.6876 271.616 16.8004C271.76 17.0671 271.688 17.2517 271.513 17.4158C271.441 17.4876 271.338 17.5594 271.317 17.6517C271.255 17.9902 271.111 18.2569 270.895 18.4826C270.874 18.5031 270.843 18.5441 270.843 18.5749C270.823 18.7082 271.317 19.3544 271.462 19.3749C272.059 19.4672 272.554 19.8057 273.038 20.1852C273.543 20.5852 274.027 21.0263 274.521 21.4468C274.614 21.5289 274.686 21.652 274.779 21.7238C274.892 21.8161 275.016 21.9392 275.15 21.9699C275.428 22.0315 275.541 22.2058 275.624 22.4623C275.686 22.6571 275.799 22.8418 275.902 23.0264C276.118 23.3751 276.345 23.7239 276.572 24.0624C276.613 24.1239 276.654 24.1957 276.695 24.2572C276.943 24.5649 277.19 24.8624 277.427 25.1598C277.478 25.2316 277.52 25.324 277.581 25.3752C277.787 25.5291 277.787 25.6727 277.674 25.8573C277.612 25.9496 277.571 26.1137 277.623 26.2163C278.148 27.3548 278.199 28.5549 278.519 29.7242C278.642 30.1858 278.818 30.6473 279.044 31.0781C279.343 31.673 279.477 32.2782 279.498 32.9039C279.508 33.3346 279.735 33.6936 279.93 34.0629C280.033 34.2475 280.136 34.4424 280.198 34.6475C280.301 34.945 280.126 35.1706 279.827 35.1296C279.219 35.0578 278.612 34.986 278.004 34.904C277.767 34.8732 277.623 34.6578 277.736 34.4629C277.932 34.1244 277.921 33.7962 277.756 33.3859C277.592 32.9654 277.602 32.5141 277.468 32.0833C277.118 30.955 276.51 29.9293 275.892 28.9139C275.634 28.4831 275.263 28.1139 274.975 27.7549C274.748 27.7754 274.501 27.7959 274.243 27.8164C274.047 27.8369 273.852 27.8677 273.656 27.8882C272.883 27.9805 272.224 27.7446 271.688 27.0471C271.668 27.0266 271.647 26.9958 271.626 26.9753C271.616 26.9651 271.595 26.9548 271.565 26.9343C271.513 26.9548 271.441 26.9753 271.379 27.0164C270.782 27.3959 270.081 27.4266 269.36 27.4266C269.236 27.4266 269.112 27.5395 269.009 27.6215C268.968 27.6523 268.968 27.7138 268.948 27.7651C268.762 28.1549 268.752 28.1241 268.34 27.8882C268.031 27.7138 267.68 27.5907 267.34 27.5087C266.98 27.4164 266.609 27.4061 266.248 27.3548C265.991 28.5344 265.723 29.7242 265.455 30.955C265.342 30.873 265.259 30.8012 265.177 30.7396C264.62 30.3396 264.074 29.9293 263.508 29.5396C263.343 29.4267 263.158 29.3242 262.972 29.2626C262.364 29.0678 261.839 28.7088 261.313 28.3293C261.045 28.1344 260.757 27.9805 260.489 27.8164C260.798 26.9446 261.128 26.0522 261.447 25.1598C261.427 25.1393 261.406 25.1188 261.385 25.1086C261.056 25.406 260.736 25.6932 260.407 25.9907C260.345 26.0419 260.304 26.1137 260.232 26.1548C259.727 26.4215 259.366 26.8522 259.026 27.2933C258.872 27.4882 258.707 27.4882 258.48 27.3446C258.274 27.2112 258.068 27.0882 257.841 26.9548C257.821 27.0266 257.779 27.0882 257.779 27.16C257.718 27.9395 257.656 28.719 257.594 29.5088C257.573 29.796 257.635 30.0627 257.749 30.3499C257.934 30.7909 257.996 31.273 258.089 31.7346C258.13 31.9192 258.037 31.9705 257.862 31.95C256.162 31.7448 254.462 31.5294 252.762 31.3345C252.556 31.314 252.422 31.2012 252.381 31.0371C252.35 30.914 252.391 30.7294 252.474 30.6576C252.669 30.514 252.896 30.4114 253.123 30.3191C253.566 30.1447 254.029 29.9909 254.472 29.8268C254.658 29.7652 254.833 29.6729 255.018 29.6319C255.194 29.5909 255.297 29.4985 255.317 29.3139C255.4 28.678 255.492 28.0421 255.564 27.4061C255.575 27.2933 255.513 27.1702 255.482 27.0471C255.369 26.5753 255.245 26.1035 255.152 25.6214C255.101 25.365 255.09 25.1188 254.812 24.965C254.74 24.9239 254.689 24.8419 254.617 24.7803C254.369 24.5649 254.287 24.3393 254.287 24.0008C254.297 22.7905 254.771 21.7853 255.214 20.7494C255.338 20.4519 255.626 20.3391 255.977 20.3288C256.172 20.3288 256.368 20.2365 256.543 20.1442C257.182 19.8057 257.8 19.4262 258.449 19.1082C258.748 18.9646 259.098 18.9134 259.428 18.8108C259.521 18.78 259.613 18.7492 259.696 18.7185C259.789 18.6774 259.881 18.5851 259.974 18.5851C260.242 18.5851 260.469 18.5338 260.602 18.2774C260.633 18.2261 260.767 18.2261 260.85 18.2261C261.21 18.2159 261.602 18.2877 261.921 18.1851C262.22 18.0928 262.467 17.8569 262.684 17.6415C262.869 17.4569 263.044 17.4261 263.281 17.5594C263.353 17.6005 263.456 17.662 263.518 17.6517C263.611 17.6312 263.724 17.5594 263.745 17.4774C263.796 17.303 263.807 17.1081 263.827 16.9132C263.827 16.8209 263.807 16.7184 263.786 16.6158C263.786 16.5748 263.724 16.5132 263.734 16.4825C263.827 16.0927 263.508 15.9388 263.281 15.7234C262.91 15.3747 262.704 14.9849 262.622 14.4926C262.416 13.2823 262.189 12.0822 261.952 10.8719C261.901 10.595 261.715 10.318 261.705 10.0411C261.674 9.61029 261.53 9.2513 261.2 8.95384C261.015 8.78973 260.839 8.59485 260.644 8.441C260.314 8.19483 260.036 7.91789 259.902 7.51787C259.881 7.47684 259.871 7.40504 259.84 7.39479C259.459 7.21016 259.5 6.89219 259.51 6.5332L259.572 6.55371Z" fill="#C34E35"/>
<path d="M335.132 45.2939C335.06 45.3452 334.988 45.3863 334.916 45.4375C334.978 45.3657 335.04 45.3247 335.132 45.2939Z" fill="#C34E35"/>
<path d="M352.585 39.0478C349.35 38.9555 346.28 40.0325 342.839 38.5452C338.141 36.5041 334.175 34.2271 332.454 29.1396C332.217 28.4626 331.599 27.878 331.063 27.3446C330.229 26.5138 329.219 25.6625 328.024 26.4625C327.014 27.1292 325.345 27.6626 325.592 29.1293C326.571 34.9758 321.657 37.5811 319.03 41.4377C318.669 41.9711 318.226 42.4634 317.464 41.9916C316.835 41.6018 316.67 41.0069 316.763 40.3402C317.01 38.3914 317.711 36.6169 319.102 35.2117C320.719 33.5604 320.482 31.4269 318.957 30.6166C317.051 29.6012 316.567 28.1344 316.031 26.4933C315.156 23.847 313.322 24.965 312.827 26.1651C311.375 29.6319 308.984 32.0628 306.038 34.2373C304.698 35.2117 303.833 36.7503 304.719 38.6068C305.729 40.7197 307.243 39.612 308.644 39.2325C309.263 39.0581 309.87 38.7914 310.499 38.7196C311.488 38.5965 312.807 38.0837 313.394 38.9555C314.095 39.9915 312.91 40.7915 312.24 41.53C309.149 44.9251 305.811 48.0945 303.143 51.8793C301.927 53.6127 301.669 60.8746 302.895 60.8336C305.327 60.7413 305.894 58.1463 307.233 56.5872C307.552 56.218 307.923 55.8898 308.263 55.5513C309.675 54.1974 310.787 52.7922 308.933 50.9562C310.684 49.7664 311.653 47.8278 313.662 45.3148C313.435 48.6996 313.147 50.9459 313.178 53.2024C313.219 56.3821 311.581 59.4182 312.415 62.6081C312.745 63.8287 312.116 66.0442 314.022 65.9416C315.321 65.8595 314.991 63.8184 315.063 62.5773C315.331 57.9822 315.599 53.3871 315.784 48.7919C315.856 47.0893 315.939 44.6686 317.227 44.3097C319.38 43.7148 321.976 44.7712 323.934 42.8121C324.037 43.0173 324.109 43.2634 324.243 43.4481C326.108 45.7661 324.305 45.961 322.605 46.4534C318.216 47.7457 317.999 48.2278 319.637 52.146C320.833 51.6947 321.09 49.9818 322.584 49.9715C323.47 49.8587 324.356 49.6433 325.768 49.5202C324.541 49.9407 324.016 50.4023 323.738 51.1203C323.738 52.0024 323.388 53.0896 323.789 53.7358C325.263 56.1872 323.841 59.6438 325.603 61.3567C327.447 63.1312 330.61 60.731 333.237 61.6439C334.257 62.0029 335.576 62.3517 336.606 61.6234C339.532 59.5412 339.594 51.7357 336.781 49.3561C335.596 48.2586 334.133 48.7304 332.845 48.6176C334.102 48.5663 335.452 48.6483 336.791 48.5355C338.677 48.3612 340.83 49.1509 342.19 47.0688C341.376 46.5867 340.562 46.0944 339.759 45.602C339.027 45.2841 338.296 44.9661 337.564 44.6584H332.835C334.422 43.007 334.679 41.6634 333.598 40.3094C331.898 39.4479 331.64 36.6169 329.044 36.9759C328.044 38.2273 327.766 40.371 325.366 40.012C326.314 35.8477 328.199 34.4425 331.424 35.4271C332.475 36.7298 333.515 38.0324 334.566 39.335C336.472 40.3402 337.173 42.4121 338.553 43.8891C339.223 44.2481 339.903 44.5968 340.583 44.9456C341.52 45.202 342.509 45.3456 343.169 46.1764C351.669 46.6893 352.884 45.7764 352.606 39.1094L352.585 39.0478ZM329.415 53.346C329.92 53.2742 330.424 53.2948 330.929 53.2024C332.217 52.987 333.474 51.387 334.762 52.6896C335.813 53.7563 334.71 55.0897 334.381 56.1975C333.804 58.1258 331.784 57.9001 330.26 58.495C328.354 58.095 326.386 57.4899 326.169 55.2641C325.943 52.9152 328.044 53.5204 329.415 53.3358V53.346Z" fill="#C34E35"/>
<path d="M257.46 58.3206C255.73 56.2282 255.76 54.382 255.915 52.5357C256.09 50.4638 256.523 48.4329 254.761 46.6482C254.122 46.002 254.74 45.1302 255.575 44.5455C257.429 43.2326 259.222 41.8377 260.953 39.8991C259.572 39.7248 258.491 39.776 257.44 40.2991C256.739 40.6581 255.956 41.6838 255.379 40.2991C254.926 39.2017 254.761 37.9503 256.255 37.3862C257.728 36.8323 259.222 36.0938 260.757 35.981C266.156 35.5809 271.482 36.1861 276.747 37.4169C277.901 37.6836 277.767 38.5349 277.849 39.2324C277.963 40.135 277.108 39.9094 276.593 39.9914C274.11 40.412 272.018 38.9145 269.7 38.4939C267.969 38.176 266.249 37.8888 264.518 38.0734C263.487 38.1862 262.354 38.5965 263.59 39.9812C264.353 40.8428 264.157 41.8172 263.807 42.8736C267.547 42.8429 271.225 42.4531 274.79 44.0737C276.871 45.0276 277.963 46.1866 277.674 48.5047C277.334 51.2741 277.077 54.064 276.799 56.8436C276.747 57.3052 276.562 57.8283 276.17 57.8796C275.84 57.9206 275.325 57.5719 275.119 57.2539C274.48 56.2898 274.388 55.223 274.501 54.0435C274.666 52.3306 275.027 50.6382 274.717 48.874C274.285 46.3713 271.462 44.2481 268.927 44.6584C268 44.8122 268.412 45.4481 268.505 45.7969C269.02 47.8072 269.102 49.8791 269.185 51.9203C269.247 53.4588 268.917 55.0076 268.804 56.5564C268.773 56.9257 268.855 57.3667 268.392 57.4078C267.928 57.4385 267.578 57.1719 267.567 56.618C267.536 55.3153 267.475 54.0127 267.433 52.7101C267.382 50.9766 267.341 49.2432 267.279 47.5098C267.248 46.6072 266.805 45.8687 266.269 45.1609C265.661 44.3506 264.796 44.5045 264.075 44.6686C263.292 44.843 263.694 45.6328 263.745 46.1354C264.013 48.9355 264.044 51.7151 263.261 54.4538C263.147 54.8435 263.281 55.4384 262.684 55.4487C261.973 55.4692 261.942 54.823 261.932 54.3512C261.932 52.1049 261.994 49.8586 261.994 47.6226C261.994 46.7508 261.973 45.561 260.953 45.5199C259.882 45.4687 258.728 45.9507 257.708 46.4123C257.244 46.6174 257.883 47.1303 257.955 47.5303C258.583 50.9766 258.274 54.3717 257.471 58.3206H257.46Z" fill="#C34E35"/>
<path d="M309.108 19.6519C306.563 22.2982 304.214 21.7033 301.824 20.934C300.762 20.5956 299.248 19.098 299.32 23.1393C299.351 24.7291 298.218 24.7291 297.455 25.1907C294.488 26.9856 293.736 29.396 293.695 34.6989C293.633 42.7096 293.344 50.71 293.107 58.7104C293.066 60.0644 292.912 61.5619 291.799 61.5824C290.707 61.6029 290.12 60.3926 290.058 58.7515C289.965 56.3513 289.635 53.8384 290.254 51.5511C291.48 47.0175 290.954 42.2788 290.923 37.6324C290.903 34.7809 290.099 34.0117 288.574 36.0425C285.999 39.4376 283.33 42.6378 280.631 45.7456C279.786 46.72 278.632 46.8636 278.076 44.9148C277.633 43.3455 276.819 43.2019 275.984 42.7198C276.788 40.8736 277.962 40.33 279.034 39.8684C282.341 38.4427 284.783 34.5758 287.565 31.6731C288.131 31.0884 288.214 30.2576 288.224 29.355C288.224 27.2113 288.502 25.7548 290.099 26.4831C290.717 26.76 291.305 26.1035 291.82 25.4471C293.066 23.8573 294.055 21.3546 293.365 19.2622C292.871 17.7544 290.954 18.1647 289.924 19.4878C287.606 22.4931 284.618 21.9495 282.135 24.0727C281.455 24.6471 280.435 26.083 279.796 24.0522C279.281 22.4008 279.219 20.3289 280.105 18.9647C281.424 16.9338 282.98 15.0773 284.814 15.0978C291.49 15.1799 298.207 14.2875 304.801 17.0364C306.161 17.6108 307.603 17.9082 309.108 19.6519Z" fill="#C34E35"/>
<path d="M514.503 52.6486C511.34 51.4383 508.579 51.0998 505.756 51.3049C504.777 51.3767 503.891 51.2742 503.901 50.1562C503.912 49.11 504.725 48.5971 505.807 48.5868C509.753 48.5356 513.472 49.5305 516.872 51.387C517.954 51.9819 518.675 53.4794 518.459 54.9257C518.222 56.4847 516.862 55.9924 515.873 56.0744C515.08 56.136 514.266 55.9924 513.483 56.1257C511.659 56.4334 509.918 56.9155 509.959 59.3156C509.98 60.4644 509.341 61.3773 508.867 62.3414C508.012 64.0749 506.982 65.6955 506.693 67.6956C506.528 68.8444 505.921 69.9008 504.561 70.4547C503.633 70.8342 502.655 71.4599 502.201 70.4239C501.841 69.5829 501.521 68.3315 502.943 67.4904C505.91 65.716 508.249 59.4285 507.435 55.9719C506.971 54.0025 507.373 53.6333 509.362 53.9C510.979 54.1256 512.483 53.6128 514.482 52.6486H514.503Z" fill="#C34E35"/>
<path d="M486.5 70.2495C487.036 76.0447 487.777 83.2861 488.344 90.5378C488.468 92.1174 489.158 94.6508 486.922 94.9688C484.233 95.3483 484.233 92.4559 484.12 90.8045C483.44 80.2398 483.038 69.6546 482.461 59.0797C482.379 57.4796 482.719 55.2333 480.102 55.2641C478.855 55.2744 477.176 55.418 476.702 56.9155C476.372 57.9514 476.599 59.1925 476.692 60.3311C476.815 62.0542 477.155 63.7774 476.3 65.4288C475.847 66.3006 475.321 67.4186 474.281 67.1109C473.56 66.8955 472.746 65.839 472.622 65.0595C472.158 62.0747 472.292 59.09 471.18 56.0744C470.397 53.9615 473.508 53.4486 475.095 52.7204C476.619 52.0127 478.659 52.2075 479.504 50.3921C479.958 49.4074 480.452 48.033 480.091 47.1714C479.556 45.879 478.052 46.4021 477.001 46.7816C474.477 47.7047 471.87 48.5458 469.552 49.8689C468.377 50.5459 467.666 52.105 466.636 49.992C466.111 48.9048 465.328 47.9406 466.801 46.4944C469.366 43.9507 472.735 43.9815 475.733 42.8737C477.712 42.1352 480.164 41.6839 478.659 38.6376C477.825 36.9554 478.536 35.9605 480.03 35.581C481.678 35.1605 483.564 36.0528 483.667 37.4888C483.986 42.0019 487.077 41.2018 489.931 41.3454C495.133 41.6121 500.419 41.3659 505.416 43.2532C506.755 43.7558 508.949 43.9917 508.414 46.0021C507.971 47.6842 505.982 47.7047 504.416 47.5406C500.182 47.0893 495.968 46.5252 491.744 46.0226C490.652 45.8892 489.343 45.3149 488.88 46.9252C488.365 48.6791 489.508 49.4279 490.971 49.6946C493.434 50.1459 495.978 50.2279 498.379 50.8844C504.375 52.5152 506.281 56.3001 504.55 62.1363C503.571 65.4493 501.408 64.239 499.471 63.6646C497.802 63.1722 496.607 62.8645 498.399 60.4746C499.77 58.6489 500.645 55.059 496.267 54.4333C492.98 53.9615 488.828 51.2844 487.612 57.2437C487.499 57.8078 487.458 58.3925 487.417 58.9669C487.149 62.2286 486.891 65.5006 486.52 70.2393L486.5 70.2495Z" fill="#C34E35"/>
<path d="M459.187 36.1958C455.107 36.0009 451.079 36.3906 447.04 36.883C442.59 37.4163 441.024 39.4882 442.322 43.9705C443.28 47.263 443.96 50.7299 444.022 54.1454C444.207 64.7204 444.485 75.3773 435.182 83.2137C433.75 84.4137 432.771 86.7934 434.739 88.2293C436.284 89.3781 437.892 88.1678 439.015 86.5472C442.116 82.1162 445.897 77.7057 445.495 72.0746C445.052 66.0435 448.225 64.5973 453.078 63.4177C456.416 62.5972 457.261 63.2228 456.952 66.4743C456.426 71.8387 455.849 77.2031 455.808 82.5777C455.798 85.9113 455.118 90.1371 460.465 91.0808C460.619 89.532 460.795 88.1986 460.846 86.8549C461.505 71.9823 458.353 56.9046 463.999 42.2986C465.266 39.0369 463.329 36.4214 459.187 36.206V36.1958ZM451.337 42.3397C453.129 42.032 455.004 42.4012 455.231 44.5552C455.468 46.863 453.397 46.4425 450.883 46.9245C449.812 47.2322 448.751 46.1347 448.545 44.1962C448.328 42.1038 450.234 42.5243 451.337 42.3397ZM453.222 56.9251C452.14 56.402 448.957 57.4277 449.214 54.925C449.503 52.2171 452.861 51.8171 455.149 51.4581C457.312 51.1196 456.941 53.4172 457.096 54.8429C457.405 57.6533 455.571 57.3559 453.232 56.9251H453.222Z" fill="#C34E35"/>
<path d="M349.464 52.8948C349.33 52.8743 349.206 52.8025 349.093 52.7512C348.959 52.1358 349.587 51.9204 349.804 51.4896C350.339 50.4434 350.123 49.4382 349.453 48.6689C348.876 48.0125 347.918 47.8176 347.084 48.3715C346.167 48.9766 345.621 49.7562 346.115 50.9255C346.332 51.4588 346.496 52.0948 345.93 52.505C343.673 54.1564 344.405 56.0847 345.167 58.1771C345.549 59.2131 345.415 60.4542 345.456 61.603C345.559 64.9878 345.641 65.0801 348.938 64.7006C352.359 64.304 354.206 62.4406 354.481 59.1105C354.776 55.4659 353.107 53.394 349.474 52.8948H349.464ZM352.348 60.3414C351.998 62.8235 350.205 63.9313 347.753 63.3672C346.682 63.121 347.084 62.362 347.115 61.8389C347.176 61.0388 346.486 59.808 348.042 59.6336C348.897 59.5311 349.773 59.5721 350.638 59.5311C351.04 59.5105 351.617 59.6644 351.71 59.1003C351.802 58.4643 351.297 58.2387 350.751 58.1977C349.958 58.1361 349.154 58.0643 348.351 58.0848C347.393 58.1053 346.908 57.7156 346.723 56.7617C346.496 55.6539 347.156 55.377 347.97 55.1616C348.042 55.1411 348.114 55.1308 348.176 55.1103C351.637 54.0538 352.451 54.6385 352.359 58.1771C352.359 58.8951 352.441 59.6336 352.348 60.3414Z" fill="#C34E35"/>
<path d="M360.261 51.5506C362.805 51.6122 365.278 51.3044 367.658 52.084C368.596 52.3917 369.059 52.7199 369.069 53.8379C369.09 56.0534 368.523 58.1151 367.833 60.1767C367.174 62.1461 366.545 64.1256 365.917 66.095C365.237 68.2079 362.888 69.8901 360.662 69.8388C359.766 69.8183 358.921 69.4593 359.035 68.5464C359.179 67.4489 360.353 66.4745 361.198 66.5873C363.537 66.9053 364.227 65.0898 364.763 63.7974C365.896 61.0793 366.638 58.1869 366.69 55.1816C366.71 53.8174 366.298 52.9456 364.763 52.9456C362.61 52.9456 360.456 52.9558 358.458 53.9507C357.922 54.2174 357.396 54.5354 357.17 53.5815C356.624 51.2634 358.798 49.5505 358.602 47.2632C358.571 46.9555 359.684 47.0478 360.188 47.294C360.982 47.6735 361.373 48.4222 361.178 49.2633C361.013 50.0018 360.621 50.689 360.261 51.5404V51.5506Z" fill="#C34E35"/>
<path d="M222.864 41.1706C231.147 37.9294 239.214 36.0523 247.693 36.319C251.928 36.4524 252.803 37.8268 251.299 41.7552C246.787 53.5917 254.854 63.4897 267.402 61.5204C269.092 61.2537 271.235 60.4537 271.153 63.4795C271.091 65.5411 272.636 67.7771 268.587 68.7515C261.334 70.5055 250.64 62.5768 249.095 52.3917C248.59 49.0274 247.735 45.6016 248.425 42.1963C248.909 39.8269 247.838 40.0526 246.096 39.9808C240.069 39.7141 234.217 40.6782 228.376 41.9296C226.676 42.2886 224.935 43.0681 222.854 41.1808L222.864 41.1706Z" fill="#C34E35"/>
<path d="M220.906 56.5456C221.339 52.0017 225.852 53.3659 228.036 51.3555C227.459 50.1247 226.872 48.8631 226.284 47.6015C225.8 46.5655 225.852 44.8424 227.016 45.3962C230.364 46.9963 230.766 42.9346 232.93 42.8628C233.877 42.832 233.671 44.2988 234.053 45.0578C234.382 45.704 234.578 46.4219 234.866 47.2015C235.443 46.7809 235.897 46.3604 236.412 46.104C237.483 45.5706 236.175 42.5243 238.977 43.7962C240.729 44.5962 241.81 45.9501 241.182 47.622C240.214 50.2068 241.749 50.1555 243.407 50.4016C244.283 50.535 245.756 50.0734 245.416 51.8992C245.221 52.9659 244.891 53.9506 243.603 54.1044C242.861 54.1865 242.109 54.207 241.367 54.2378C233.743 54.4942 233.826 54.4942 233.517 62.3715C233.434 64.3921 234.599 66.7923 232.322 68.4744C229.519 64.8127 232.528 60.9561 231.714 57.2943C231.487 56.2891 232.857 54.2378 230.261 54.4942C228.221 54.6993 227.253 55.8276 228.283 57.8174C229.787 60.7099 227.407 62.1254 226.109 63.9511C225.47 64.8435 224.481 65.7666 223.544 64.8845C222.544 63.9511 221.524 62.6382 222.297 60.9971C222.483 60.6176 222.915 60.3612 223.204 60.0227C224.213 58.8636 226.49 57.9508 225.336 56.1763C224.419 54.7711 222.812 57.0174 220.906 56.5558V56.5456Z" fill="#C34E35"/>
<path d="M231.425 30.1856C235.423 29.7548 239.43 29.4163 243.417 28.8727C245.148 28.6368 246.642 28.9137 248.136 29.7651C249.342 30.4523 249.774 31.6011 249.671 32.7703C249.527 34.3089 248.002 33.8371 247.168 33.796C241.759 33.4883 236.453 34.3807 231.116 35.0269C230.24 35.1294 228.777 35.3654 228.952 34.3089C229.416 31.4985 228.314 29.7651 226.129 28.247C225.429 27.7547 225.975 26.9239 226.768 26.5546C228.695 25.6828 228.829 23.7647 229.179 22.0928C229.395 21.0672 229.231 19.785 230.436 19.5491C231.806 19.2824 233.434 19.9902 233.743 21.221C234.609 24.6571 237.081 23.8776 239.338 23.7032C241.872 23.5083 244.386 23.0775 246.92 22.8929C248.239 22.7903 249.877 22.7493 249.846 24.6981C249.815 26.3905 248.219 26.2367 247.126 26.2879C242.191 26.5444 237.277 26.8931 232.548 28.4932C232.043 28.6676 231.6 28.9958 231.126 29.2522C231.229 29.5599 231.343 29.8676 231.446 30.1856H231.425Z" fill="#C34E35"/>
<path d="M306.048 43.8165C303.74 50.6784 300.577 51.499 297.62 45.5807C296.126 42.5857 294.838 39.1804 293.571 35.7956C293.241 34.9135 292.654 33.4877 293.386 32.1749C294.21 30.7081 294.746 31.9082 295.354 32.9441C298.434 38.2059 302.328 40.3189 306.048 43.8165Z" fill="#C34E35"/>
<path d="M359.715 57.6122C359.983 57.7558 360.951 57.0891 361.487 57.8994C361.961 58.6072 362.692 59.4995 362.548 60.1457C362.414 60.7509 361.168 60.638 360.385 60.6893C360.034 60.7098 359.602 60.6175 359.334 60.7816C358.623 61.2227 357.85 61.6842 357.222 60.9355C356.717 60.3406 356.604 59.438 357.129 58.72C357.644 58.0123 358.025 56.9353 359.725 57.6122H359.715Z" fill="#C34E35"/>
<path d="M409.168 39.2421C409.838 41.3243 409.91 43.0372 411.671 44.0116C412.671 44.5655 412.939 45.745 412.764 46.8425C412.073 51.3453 410.569 55.4584 406.819 58.4021C406.283 58.8227 405.675 59.5919 404.882 58.8842C404.243 58.3098 404.418 57.4072 404.686 56.7815C405.129 55.7353 405.778 54.8737 406.912 54.2275C409.436 52.7916 410.002 50.0119 410.878 47.5195C411.218 46.5656 410.548 45.8476 409.807 45.4373C408.962 44.9655 408.22 45.2527 407.581 46.063C405.541 48.6477 403.378 51.1402 401.41 53.7762C400.668 54.7712 399.926 55.602 398.69 55.7661C397.989 55.8584 397.825 55.2019 397.835 54.6788C397.845 53.2736 397.711 52.0325 399.319 50.9761C402.183 49.0991 404.161 46.2374 406.293 43.5911C407.179 42.4936 407.355 41.3243 407.025 39.8678C404.697 40.6063 403.12 42.3705 401.235 43.7449C399.772 39.5703 399.803 39.6421 403.656 37.7138C405.83 36.6266 408.952 35.9086 406.572 32.2058C405.943 31.2314 406.293 29.6826 407.612 29.2518C409.116 28.7492 409.621 30.3083 410.023 31.2519C410.415 32.1751 410.126 33.3444 410.291 34.3906C410.425 35.2419 408.89 36.4727 410.353 36.7907C411.63 37.0779 413.248 37.9395 414.546 36.442C415.968 34.8214 417.276 33.1905 417.245 30.8724C417.225 29.1082 417.482 27.1491 419.388 26.6876C421.284 26.226 421.665 28.2774 422.685 29.4467C427.167 34.6162 429.959 41.7551 437.954 43.068C438.943 43.2321 439.654 44.1347 439.262 44.9142C438.479 46.4938 437.542 48.2375 435.491 48.4529C432.555 48.7606 430.227 47.7144 428.97 44.8937C427.321 41.1909 425.024 37.8984 422.623 34.647C421.232 32.7597 420.202 33.0059 419.1 34.7906C418.935 35.0573 418.791 35.3445 418.626 35.6214C416.503 39.1498 413.835 41.4884 409.137 39.2626L409.168 39.2421Z" fill="#C34E35"/>
<path d="M421.48 57.0991C419.429 57.0888 417.76 56.894 417.492 54.8836C417.276 53.1912 416.802 51.1911 419.347 50.5757C419.625 50.5141 420.078 50.1551 420.089 50.1757C421.964 52.9143 424.715 51.2731 427.064 51.5809C429.042 51.8373 429.052 53.6733 429.268 54.9554C429.485 56.217 428.228 56.2785 427.105 56.3503C425.096 56.4734 423.097 56.8734 421.48 57.0991Z" fill="#C34E35"/>
<path d="M420.521 46.4527C418.904 46.5142 418.008 46.0937 418.028 44.5141C418.038 42.873 418.966 41.7242 420.202 40.996C420.944 40.5652 425.055 43.4371 424.91 44.1141C424.364 46.7706 421.871 45.7654 420.521 46.4527Z" fill="#C34E35"/>
<path d="M238.297 56.9766C241.326 59.0177 245.323 59.2023 244.798 64.0641C244.479 66.9976 243.5 66.813 241.481 65.5822C238.39 63.6949 237.617 60.987 238.297 56.9766Z" fill="#C34E35"/>
<path d="M394.116 45.6019C393.755 47.2635 392.271 48.2892 390.654 48.6687C387.8 49.3252 384.421 47.1815 382.607 43.9403C381.402 41.7966 380.753 39.3041 378.754 37.2117C378.146 38.9349 377.6 40.3093 377.188 41.7248C376.817 43.0479 375.602 43.1505 374.788 43.0274C373.582 42.853 373.953 41.6632 374.149 40.8119C374.582 38.9657 374.705 36.9245 375.612 35.3347C377.168 32.6166 376.652 30.2472 375.478 27.6727C374.54 25.6008 371.625 24.5341 369.966 26.0419C368.637 27.2419 368.132 28.7189 370.172 29.9293C371.903 30.955 372.655 31.8678 370.048 32.873C368.812 33.3448 368.668 34.6475 368.658 35.9809C368.637 41.7966 366.216 44.2172 360.333 44.3813C359.334 44.4018 357.644 44.8019 357.737 43.2018C357.798 42.1453 358.54 40.6991 360.127 40.6068C362.115 40.4939 363.826 39.5606 365.598 38.8323C366.793 38.34 367.246 36.9861 366.669 36.0219C365.979 34.8731 365.01 35.6116 364.155 36.3399C362.847 37.4476 360.992 37.581 359.632 38.7503C358.767 39.499 357.088 40.2785 356.521 38.9759C356.047 37.8784 356.294 36.0424 357.943 35.1911C360.014 34.1244 362.115 33.0987 364.083 31.8576C364.938 31.314 366.35 31.1909 366.453 29.7754C366.515 28.9856 366.824 27.9497 366.453 27.4471C365.804 26.5752 365.041 27.5907 364.361 27.8779C363.702 28.1548 363.084 28.5138 362.486 28.8933C361.487 29.5087 360.333 30.1549 359.797 28.5959C359.426 27.4984 358.715 26.0419 360.354 25.1085C362.363 23.9495 364.979 23.7648 366.154 21.2621C366.401 20.739 367.39 20.8416 368.081 21.3339C369.811 22.5853 371.604 23.7956 373.088 21.0262C373.304 20.6159 373.696 20.7185 373.778 20.8724C375.22 23.4776 377.951 22.3801 380.042 23.0879C380.598 23.2725 381.155 23.57 381.608 23.9495C382.144 24.3905 382.7 25.0162 382.473 25.7649C382.195 26.7394 381.33 26.3291 380.66 26.288C379.455 26.206 378.239 26.1137 376.941 26.0214C376.941 27.5497 377.611 28.6574 378.095 29.8267C379.444 30.0626 379.135 28.4625 380.166 28.1343C381.041 29.7549 383.452 31.1396 380.712 33.2936C380.495 33.4679 380.454 34.0423 380.506 34.4013C381.155 38.4426 385.842 42.9966 390.128 43.7864C390.726 43.571 391.323 43.3556 391.921 43.1402C393.477 43.2428 394.383 44.2788 394.095 45.6224L394.116 45.6019Z" fill="#C34E35"/>
<path d="M366.319 18.8925C364.969 19.0258 363.63 18.595 363.321 17.3744C362.991 16.0923 364.722 16.277 365.412 15.6308C366.535 14.5743 367.627 13.5486 369.306 14.8205C370.151 15.4564 371.099 16.0821 370.914 17.1796C370.749 18.1847 369.595 18.3386 368.74 18.5643C367.957 18.7694 367.133 18.7899 366.329 18.8925H366.319Z" fill="#C34E35"/>
<path d="M380.248 20.7179C379.537 20.3178 377.868 21.0564 378.043 19.5281C378.167 18.4408 378.63 16.8818 380.31 16.9536C381.68 17.0151 382.607 17.969 382.545 19.3024C382.484 20.4204 381.525 20.923 380.258 20.7281L380.248 20.7179Z" fill="#C34E35"/>
<path d="M402.244 63.6952C399.494 62.3618 396.217 61.9003 394.311 59.1001C393.096 57.3257 393.23 56.4333 394.909 55.5615C396.094 54.946 396.454 54.1768 396.156 53.0588C395.723 51.3766 394.147 51.2125 392.467 51.0074C389.933 50.5048 388.779 50.7099 387.295 51.9818C386.275 52.8536 386.615 53.8383 387.882 54.587C388.645 55.0281 389.387 55.7871 389.655 56.5051C389.891 57.1103 388.789 57.2436 388.222 57.4385C386.935 57.8795 385.935 58.7616 384.266 58.6693C383.195 58.6078 383.009 59.7566 382.814 60.5976C382.618 61.4182 383.236 61.49 383.957 61.7259C384.781 61.9823 385.503 62.2695 385.812 61.3874C386.43 59.613 389.057 60.0848 390.056 58.6283C390.571 57.8795 390.891 58.0539 393.477 61.931C393.827 62.4541 394.301 62.926 394.517 63.4798C395.692 66.4646 398.288 67.2647 401.606 67.1621C403.285 67.1108 405.768 67.5211 406.015 66.0646C406.242 64.7312 403.697 64.4132 402.244 63.7157V63.6952ZM392.89 53.9511C392.611 54.4947 392.21 54.8948 391.437 54.8845C391.066 54.5665 390.479 54.3101 390.695 53.8178C390.963 53.2024 391.664 53.1203 392.374 53.2024C392.91 53.2536 393.116 53.5203 392.9 53.9511H392.89Z" fill="#C34E35"/>
<path d="M381.278 58.8846C380.465 57.8486 380.691 57.2948 381.907 56.6588C384.266 55.4177 384.565 54.0638 383.164 51.8688C382.474 50.7713 381.546 49.7662 380.784 48.6892C380.444 48.2174 380.104 48.0122 379.589 48.3917C377.714 49.7764 375.674 51.0791 374.623 53.0484C374.139 53.9613 373.551 55.3972 375.076 55.9511C377.178 56.7204 376.313 57.3871 375.602 58.2794C374.942 59.0897 374.283 59.9206 373.737 60.7924C373.242 61.5822 373.129 62.854 374.242 62.9771C377.858 63.3669 376.663 65.1824 376.282 66.7825C376.168 67.5005 375.952 68.2082 375.962 68.9262C375.973 69.4185 375.581 70.2493 376.591 70.3621C377.353 70.4442 377.631 69.7878 377.745 69.1826C378.033 67.6851 378.301 66.1978 378.631 64.7106C378.806 63.9208 379.032 63.2541 380.444 63.5925C382.268 64.0233 382.649 63.172 382.371 61.7668C382.175 60.7616 381.989 59.7564 381.309 58.8949L381.278 58.8846ZM379.63 60.4129C378.826 61.3463 377.6 61.1001 376.385 60.6898C376.725 59.5821 377.374 58.7718 378.806 59.0077C379.465 59.1205 380.042 59.9308 379.63 60.4129ZM380.351 54.0741C379.517 54.5869 378.703 55.0793 377.137 54.3305C376.879 54.1767 375.612 54.5972 375.437 53.6536C375.303 52.9253 376.374 52.7715 376.931 52.3919C377.322 52.1253 377.734 51.8894 378.177 51.6842C378.837 51.3662 379.249 50.1354 380.362 51.3662C381.237 52.3407 381.732 53.233 380.351 54.0843V54.0741Z" fill="#C34E35"/>
<path d="M386.729 68.3727C386.842 66.8752 387.594 66.3829 389.067 67.1932C390.273 67.8599 392.405 67.5829 392.477 69.4189C392.508 70.3831 392.354 71.4293 390.571 70.7113C389.943 70.4651 389.222 70.1677 388.593 70.219C386.595 70.3728 386.409 69.501 386.739 68.3727H386.729Z" fill="#C34E35"/>
<path d="M387.089 63.0902C387.213 62.0542 388.346 61.8286 389.119 62.1158C390.335 62.5568 392.2 62.7312 392.169 64.3005C392.158 65.08 391.653 66.0544 390.17 65.5621C388.758 65.1005 386.688 65.2339 387.089 63.0902Z" fill="#C34E35"/>
<path d="M373.953 66.2392C373.541 66.8136 373.758 68.2291 372.192 68.3829C371.347 68.465 371.347 67.5419 371.604 67.2547C372.387 66.3931 371.367 64.6186 373.242 64.4545C374.067 64.3827 374.386 65.2135 373.953 66.2392Z" fill="#C34E35"/>
<path d="M380.599 65.8184C381.66 66.4235 381.938 67.3364 382.082 68.2595C382.175 68.8647 381.557 69.6647 381.114 69.5314C379.692 69.1108 379.97 67.9005 379.867 66.9466C379.816 66.4851 379.846 65.9107 380.609 65.8184H380.599Z" fill="#C34E35"/>
<path d="M440.776 29.3344C444.764 29.5395 448.617 30.4216 452.738 31.4678C450.451 32.5072 448.294 32.6952 446.268 32.032C445.299 31.7243 444.331 31.4063 443.352 31.1704C442.456 30.955 441.93 31.1601 441.765 32.2884C441.343 35.2629 439.705 37.3656 436.82 38.4939C436.161 38.7503 435.532 39.1195 435.203 38.2785C434.945 37.6118 434.512 36.7707 435.604 36.2476C436.645 35.745 437.665 35.1809 438.633 34.5552C439.684 33.8782 440.344 32.7294 439.818 31.6422C439.396 30.7601 438.129 31.0576 437.232 31.2627C435.481 31.6627 433.657 31.8781 432.101 32.9448C431.669 33.2423 430.978 33.7244 430.628 33.0166C430.329 32.4217 431.02 31.8986 431.504 31.6935C432.771 31.1704 434.131 30.8729 435.398 30.3703C436.398 29.9703 438.098 30.4626 437.964 28.4215C437.943 28.0215 438.839 28.1035 439.324 28.001C440.035 28.2061 440.23 28.9446 440.756 29.3344H440.776Z" fill="#C34E35"/>
<path d="M451.172 27.4155C450.945 27.7027 450.616 27.7745 450.44 27.6104C449.946 27.1078 448.967 26.8206 449.225 25.8974C449.822 23.8461 448.462 23.7845 447.092 23.6819C443.084 23.3947 439.118 23.8563 435.141 24.2358C434.451 24.6974 433.668 24.5846 432.895 24.6358C432.163 24.9435 431.422 25.2615 430.68 25.5692C430.515 25.1179 430.103 25.0769 429.711 25.0153C430.443 24.2461 431.556 24.7179 432.37 24.2256C433.235 23.1486 432.833 21.887 432.916 20.6869C432.926 19.9484 432.019 19.2817 432.771 18.4919C433.163 17.9073 433.575 17.3329 433.936 16.7277C434.214 16.2662 434.595 16.2149 435.017 16.3995C435.409 16.5739 435.769 16.8508 435.811 17.3226C435.852 17.8662 435.46 17.9996 435.007 18.1227C434.512 18.256 433.791 18.0816 433.719 18.9125C434.409 18.974 435.089 19.0253 435.78 19.0868C435.625 19.9894 434.502 19.5689 434.111 20.2869C434.512 21.0767 435.295 20.5125 435.955 20.8613C435.007 21.5382 434.039 22.1537 433.699 23.2922C433.637 23.6307 433.884 23.6922 434.121 23.7743C434.698 23.6204 435.285 23.4665 435.862 23.3127C436.82 23.0563 437.799 22.8922 438.788 22.8819C440.282 22.8614 441.755 22.605 443.239 22.4408C443.672 22.3896 444.135 22.3793 444.146 21.7741C444.156 20.9433 443.569 21.1382 443.074 21.1485C442.713 21.1485 442.353 21.169 441.992 21.1792C441.992 21.0356 441.992 20.892 441.982 20.7484C442.786 19.9484 445.392 21.0972 444.475 18.4509C444.135 16.9739 442.641 18.2458 441.93 17.3329C443.002 16.3687 444.084 16.5226 445.289 17.0149C446.392 17.456 446.546 18.3791 446.515 19.292C446.484 20.3279 445.732 21.9485 446.124 22.2562C447.133 23.0358 448.576 23.2819 449.884 23.6307C451.563 24.0922 452.254 26.041 451.172 27.4052V27.4155Z" fill="#C34E35"/>
<path d="M442.003 21.1901C442.003 21.1901 441.992 21.2209 441.982 21.2209C441.982 21.2209 441.972 21.2106 441.972 21.2004C441.889 21.0875 441.858 20.9542 441.858 20.8311C441.858 20.7798 441.858 20.7388 441.869 20.6875C441.869 20.6875 441.879 20.667 441.889 20.667C441.92 20.6978 441.961 20.7285 441.992 20.7593C441.992 20.9029 442.003 21.0465 442.003 21.1901Z" fill="#C34E35"/>
<path d="M440.776 29.3339C440.086 29.1082 439.396 28.9031 439.344 28.0005C439.787 27.0671 440.797 26.8722 441.549 26.3286C442.074 25.8773 441.364 25.0978 442.002 24.667C442.641 24.431 443.228 24.7593 443.61 25.0978C444.485 25.8875 445.103 26.6773 443.373 27.4158C442.425 27.8158 440.787 27.5594 440.797 29.3236L440.776 29.3339Z" fill="#C34E35"/>
<path d="M441.992 24.6777C441.941 25.2521 442.209 25.9188 441.539 26.3394C441.436 25.0162 440.54 25.5701 439.973 25.7752C438.644 26.2778 437.346 26.883 436.048 27.4779C435.543 27.7138 435.059 27.8882 434.729 27.3445C434.42 26.8317 434.791 26.5342 435.162 26.124C435.934 25.2419 436.954 25.2726 437.923 25.1188C439.272 24.9034 440.632 24.8213 441.992 24.6777Z" fill="#C34E35"/>
<path d="M439.901 18.9026C439.726 19.1077 439.53 19.1282 439.314 18.9641C438.767 18.9026 438.211 18.8308 437.655 18.759C438.582 18.082 437.346 16.9948 437.943 16.5332C438.51 16.0922 439.695 15.7537 440.22 16.0409C442.023 17.0461 440.395 17.959 439.901 18.8923V18.9026Z" fill="#C34E35"/>
<path d="M441.982 21.2209C441.714 21.7132 441.384 22.0107 441.023 22.1953C440.344 22.5441 439.53 22.462 438.716 22.421C438.52 22.4107 438.324 22.3902 438.128 22.3902C437.551 20.9132 438.994 20.1234 439.313 18.9541C439.53 19.1182 439.725 19.0977 439.901 18.8926C440.179 19.0464 440.447 19.2003 440.725 19.3541C440.745 19.3849 440.766 19.4157 440.787 19.4362C441.044 19.9798 440.076 21.6209 441.858 20.8209C441.858 20.9542 441.889 21.0773 441.971 21.1901C441.971 21.1901 441.971 21.2004 441.982 21.2107V21.2209Z" fill="#C34E35"/>
<path d="M439.313 18.9639C439.509 18.9434 439.705 18.9229 439.901 18.9023C439.726 19.1075 439.53 19.128 439.313 18.9639Z" fill="#C34E35"/>
<path d="M442.003 21.1901C442.003 21.1901 441.992 21.2209 441.982 21.2209C441.982 21.2209 441.972 21.2106 441.972 21.2004C441.889 21.0875 441.858 20.9542 441.858 20.8311C441.858 20.7798 441.858 20.7388 441.869 20.6875C441.869 20.6875 441.879 20.667 441.889 20.667C441.92 20.6978 441.961 20.7285 441.992 20.7593C441.992 20.9029 442.003 21.0465 442.003 21.1901Z" fill="#C34E35"/>
<path d="M430.69 25.5695C430.824 26.4823 430.989 27.3952 431.071 28.3183C431.112 28.7491 430.948 29.221 430.453 29.3235C430.226 29.3748 429.897 29.2312 429.691 29.0774C428.969 28.5132 429.011 25.7746 429.732 25.0156C430.329 24.7284 430.742 24.7592 430.7 25.5695H430.69Z" fill="#C34E35"/>
<path d="M442.004 21.1895C442.004 21.1895 441.993 21.2215 441.982 21.2215C441.982 21.2215 441.972 21.2108 441.972 21.2001C441.982 21.2001 441.993 21.2001 442.004 21.1895Z" fill="#C34E35"/>
<path d="M441.992 20.7588C441.992 20.7588 441.9 20.7998 441.858 20.8204C441.858 20.7691 441.858 20.728 441.869 20.6768C441.869 20.6768 441.879 20.6562 441.889 20.6562C441.92 20.687 441.961 20.7178 441.992 20.7486V20.7588Z" fill="#C34E35"/>
<path d="M444.104 18.5541C443.558 19.8772 442.559 19.7439 441.477 19.3541C442.085 18.2361 443.177 18.6259 444.104 18.5541Z" fill="#C34E35"/>
<path d="M477.691 23.8674C477.784 23.8469 477.815 23.7853 477.866 23.734C478.289 23.3545 478.721 22.975 479.133 22.575C479.597 22.1339 479.834 21.6006 479.834 20.9954C479.834 18.7491 479.834 16.5029 479.834 14.2566C479.834 13.8053 480.143 13.4155 480.586 13.313C481.225 13.1591 481.822 13.5181 481.905 14.113C481.925 14.2361 481.925 14.3489 481.925 14.472C481.925 16.6157 481.925 18.7491 481.925 20.8929C481.925 21.5801 482.183 22.175 482.719 22.6571C483.11 23.016 483.512 23.375 483.904 23.7238C483.955 23.7648 484.007 23.8058 484.079 23.8674C484.099 23.7443 484.11 23.652 484.12 23.5597C484.202 22.2775 484.12 20.9954 483.904 19.7236C483.831 19.3235 483.739 18.9133 483.852 18.503C483.976 18.0106 484.233 17.5799 484.645 17.2414C484.965 16.985 485.356 16.9439 485.768 17.026C486.613 17.2106 487.376 17.5696 488.097 17.9799C488.921 18.4414 489.673 18.9953 490.343 19.6312C490.878 20.1338 491.332 20.6877 491.754 21.2724C492.218 21.9083 492.671 22.5545 493.083 23.2212C493.64 24.1135 494.144 25.0264 494.587 25.9598C495.03 26.9034 495.401 27.8676 495.69 28.8523C495.978 29.8574 496.153 30.8934 496.339 31.9191C496.473 32.6679 496.638 33.4166 496.761 34.1654C496.885 34.9346 496.988 35.7142 497.04 36.4937C497.091 37.3348 497.07 38.1758 496.988 39.0067C496.936 39.54 496.885 39.3041 496.638 39.7964C496.36 40.3401 495.989 40.7606 495.329 40.6683C494.876 40.5965 493.969 40.4426 493.578 40.2375C492.908 39.8888 492.712 40.0221 492.022 39.7144C491.579 39.5195 491.126 39.3451 490.662 39.181C489.755 38.8631 488.828 38.6066 487.901 38.34C487.128 38.1143 486.386 37.8476 485.727 37.4066C485.222 37.0681 484.841 36.6476 484.553 36.145C484.027 35.2526 483.749 34.2885 483.646 33.2833C483.574 32.555 483.667 31.8575 483.831 31.1498C483.955 30.6062 484.048 30.0421 484.037 29.4779C484.037 29.1292 483.955 28.7805 483.914 28.4317C483.852 27.8573 483.831 27.2829 483.883 26.7086C483.904 26.4932 483.862 26.3393 483.687 26.1752C483.069 25.6316 482.461 25.0674 481.853 24.5136C481.74 24.411 481.616 24.2982 481.482 24.2059C481.163 23.9597 480.555 23.9802 480.236 24.2469C479.556 24.8213 478.927 25.4572 478.237 26.0316C477.949 26.2675 477.856 26.5034 477.887 26.8624C477.949 27.5804 477.907 28.2984 477.763 29.0061C477.639 29.601 477.763 30.1754 477.856 30.7601C477.928 31.2216 478.062 31.6729 478.113 32.1345C478.186 32.8217 478.124 33.4987 477.979 34.1654C477.773 35.0885 477.433 35.9501 476.815 36.7193C476.383 37.263 475.775 37.622 475.126 37.8989C474.353 38.2374 473.529 38.4323 472.725 38.6682C471.726 38.9656 470.747 39.2733 469.799 39.6939C469.253 39.9298 468.728 40.217 468.213 40.5144C467.697 40.8016 467.182 41.1093 466.564 41.2119C465.802 41.3452 465.338 41.1093 465.07 40.4426C464.895 40.0118 464.823 39.5605 464.771 39.1092C464.71 38.4835 464.689 37.8681 464.689 37.2425C464.689 36.3091 464.802 35.3859 464.947 34.4731C465.153 33.1499 465.431 31.8473 465.668 30.5344C465.843 29.5395 466.111 28.5753 466.461 27.6214C466.894 26.4726 467.409 25.3649 468.027 24.2879C468.594 23.293 469.222 22.3391 469.902 21.4057C470.438 20.6672 471.015 19.9697 471.715 19.3543C472.519 18.6568 473.395 18.0722 474.384 17.6106C474.837 17.3952 475.301 17.2106 475.795 17.0773C476.589 16.8619 477.166 17.1285 477.588 17.785C477.979 18.3902 477.979 19.0158 477.866 19.6723C477.732 20.3903 477.66 21.1185 477.619 21.8468C477.588 22.4929 477.619 23.1391 477.66 23.7751C477.66 23.7956 477.67 23.8263 477.681 23.8469L477.691 23.8674Z" fill="#C34E35"/>
<path d="M98.4276 34.269C98.4997 33.9203 97.0985 32.1151 95.4604 32.6279C94.1828 33.0279 93.0702 33.5203 93.6265 35.1819C93.9871 36.2384 94.3786 37.2846 94.8525 38.3C95.4913 39.6642 94.6877 44.4234 93.4307 45.0286C90.4327 46.4851 89.4024 49.4493 87.9188 51.993C86.497 54.4342 85.714 54.7214 83.3753 53.2649C80.4184 51.4289 79.7487 48.3723 79.5015 45.4696C79.316 43.2336 78.7803 40.6899 80.2639 38.4744C80.5317 38.0641 80.3772 37.3666 80.3978 36.8025C80.4287 35.746 80.6245 34.5665 79.45 33.9716C78.3064 33.3972 78.2239 34.6998 77.6573 35.1511C77.4821 35.2845 77.1937 35.3563 76.967 35.3255C73.0932 34.7819 70.8987 38.1154 67.777 39.336C65.531 40.2181 63.3674 41.4386 61.616 43.3259C61.1214 39.0283 63.5735 35.1101 61.8323 31.0791C60.1118 31.9407 59.8233 32.4125 59.5966 34.0126C59.1742 37.0281 58.5457 40.0232 58.2367 43.049C57.7937 47.3979 57.5361 51.7674 57.2476 56.1266C57.2064 56.7933 57.0931 57.6241 58.2573 57.7062C59.8542 57.819 62.0899 55.5625 61.1729 54.506C59.8748 53.0187 61.4305 52.0136 61.1111 50.8032C60.7917 49.5724 62.2959 50.0545 62.6977 49.3468C62.945 48.8954 63.5014 49.4083 63.6147 49.716C64.3359 51.7161 65.2219 52.311 66.6025 49.8288C65.2734 52.4649 67.3649 53.5624 68.4467 54.8958C68.8279 55.3676 69.7139 56.4138 70.7648 55.583C71.7847 54.7829 71.7229 53.8803 71.146 52.7828C70.5278 51.6135 69.8684 50.6186 68.8588 49.6852C67.4473 48.3826 65.5825 48.1159 64.1195 47.0184C63.2953 46.403 62.8214 45.6953 63.6559 45.0901C64.6965 44.3311 65.6134 43.3157 66.6643 42.7208C70.0642 40.8232 73.2065 38.4231 77.0494 37.0999C76.9361 38.0333 76.8537 38.9257 76.7094 39.8078C75.7822 45.3876 76.8537 50.4135 80.7584 54.7214C82.6335 56.7831 86.9503 57.8088 88.7327 56.1061C92.9259 52.0956 96.5113 47.6749 98.273 41.9412C99.0766 39.3257 97.9227 36.8435 98.4276 34.2895V34.269Z" fill="#C34E35"/>
<path d="M116.128 34.3819C114.984 34.3101 113.645 33.7973 113.511 35.8384C113.264 39.5514 112.408 43.1824 111.481 46.8339C110.235 45.3056 111.11 41.9926 107.556 42.5977C108.432 41.2336 108.081 40.1874 106.969 39.1104C105.815 37.9924 105.537 39.4694 104.238 40.1463C105.444 38.5257 105.516 37.2128 105.423 36.1051C105.31 34.5871 105.052 32.5357 102.971 32.4331C100.952 32.3305 100.581 34.0434 100.478 35.6948C100.395 37.0692 100.323 38.4539 100.241 39.8284C99.9422 45.1517 99.0767 50.4443 99.5507 55.7985C99.5713 56.0344 99.8907 56.2498 100.231 56.6703C100.303 55.9523 100.344 55.5113 100.385 55.0805C101.395 54.8446 101.178 57.3267 102.24 55.9831C102.878 55.183 103.785 54.424 103.888 53.0086C104.115 49.8289 103.126 46.5672 104.434 43.4593C106.824 46.2492 107.875 49.6135 108.833 52.9265C109.379 54.8343 109.956 56.0241 112.017 56.4446C113.944 56.8447 115.139 56.0549 115.211 54.0753C115.262 52.547 114.613 51.0905 114.943 49.5315C115.468 47.08 115.891 44.6594 115.922 42.0644C115.953 40.0233 115.479 37.4693 116.88 35.4281C116.952 35.3256 116.694 34.4024 116.107 34.3614L116.128 34.3819Z" fill="#C34E35"/>
<path d="M21.0643 32.7918C18.8184 32.6892 17.1699 34.3098 17.3657 36.5561C17.3966 36.9459 18.0766 37.6639 17.1905 37.5818C15.3566 37.4177 15.027 39.0588 14.45 39.9512C12.7088 42.659 10.4319 45.3258 11.6889 49.5517C10.2362 47.3465 8.71139 45.8284 8.87623 43.4898C9.01017 41.5923 7.04235 40.6589 6.73327 38.8845C6.30055 36.4228 6.03268 33.9303 5.04362 31.5405C4.25031 29.6122 3.12732 30.5968 2.07644 30.6994C0.716481 30.8225 0.242556 31.6225 0.634059 32.9252C2.17947 38.0331 3.8073 43.1308 5.24968 48.2696C5.83693 50.3723 7.9799 51.9723 7.609 54.2084C7.36173 55.7161 7.80475 55.2341 8.58776 55.0699C9.02047 54.9776 9.5253 54.8443 9.92711 55.2443C9.65924 55.7982 9.1132 55.7264 8.64957 55.829C8.19625 55.9315 7.56779 55.829 7.52658 56.5059C7.49567 56.9675 7.93869 57.1931 8.33019 57.3162C9.05138 57.5419 9.54591 59.0804 10.5041 57.8496C11.7095 56.311 12.4101 54.5058 12.6985 52.5775C12.6985 52.5467 11.7713 52.198 11.967 51.6031C12.3689 50.3825 12.7913 51.9108 13.1828 51.6339C13.4403 51.4492 13.7906 51.1826 13.8215 50.9159C14.1203 48.7209 16.0984 47.3875 16.7166 45.4181C17.5614 42.7103 19.1068 40.3204 20.0135 37.6331C20.4153 36.433 21.5898 35.4279 21.7134 33.9919C21.7546 33.4893 22.074 32.8431 21.0643 32.7918Z" fill="#C34E35"/>
<path d="M134.827 40.1764C133.179 38.7609 132.468 40.6892 131.489 41.4893C131.458 41.5201 131.334 41.4072 131.262 41.4175C128.522 41.8073 125.946 42.7201 123.401 43.7561C122.052 44.31 122.196 45.4382 123.041 46.0229C124.349 46.9255 126.018 48.0435 127.564 46.6485C129.233 45.1305 131.448 45.6536 133.22 44.71C133.477 44.5766 134.281 44.4536 134.096 45.0279C133.735 46.2178 134.528 47.8999 133.168 48.5666C131.685 49.2948 131.18 50.659 130.263 51.7668C128.491 53.9002 125.369 55.1003 123.638 54.3208C121.238 53.2438 120.074 50.4026 120.331 47.3358C120.65 43.4586 123.803 41.3149 125.534 38.3096C126.204 37.1403 126.976 36.0531 128.666 35.6531C130.16 35.2941 129.789 33.6222 129.181 32.535C128.357 31.058 128.027 32.7401 127.44 32.9145C125.699 33.4478 124.844 34.771 124.164 36.3095C123.947 36.7916 123.813 37.407 123.082 37.5096C121.248 37.7763 120.403 39.2635 119.435 40.5662C117.951 42.556 116.818 44.8536 117.003 47.2537C117.158 49.3256 118.198 51.377 119.084 53.3361C120.094 55.5618 122.546 56.1465 124.473 57.0696C127.522 58.5261 132.612 55.808 133.859 52.5258C134.147 51.7668 134.332 50.4641 134.806 50.3513C137.743 49.6231 136.372 47.1614 136.764 46.269C137.372 43.3048 136.403 41.4995 134.858 40.1661L134.827 40.1764Z" fill="#C34E35"/>
<path d="M181.828 35.2437C182.271 33.3872 180.777 33.4487 180.159 32.782C179.314 31.8692 178.305 32.782 177.542 33.2436C176.605 33.8077 176.718 34.8334 177.223 35.6437C177.789 36.5361 177.604 37.6233 178.377 38.5259C179.149 39.4286 177.903 44.5468 176.872 45.0494C173.71 46.5777 172.741 49.7471 171.124 52.4139C169.99 54.2806 168.826 54.6499 166.982 53.4909C163.932 51.5728 163.294 48.4239 162.861 45.3058C162.593 43.3877 162.634 41.2338 163.263 39.4388C163.757 38.0439 163.778 36.7617 163.788 35.4181C163.788 34.6488 163.335 33.9616 162.49 33.8693C161.655 33.7872 161.47 34.5873 161.233 35.1617C160.079 38.0131 159.811 40.9979 159.914 44.7314C159.121 46.9674 160.78 49.3265 161.954 51.6856C164.149 56.0961 170.062 59.2963 174.008 54.4858C174.627 53.737 175.255 52.9985 175.853 52.2395C178.603 48.7829 181.086 45.2032 181.9 40.7107C182.24 38.8337 181.416 36.9259 181.828 35.254V35.2437Z" fill="#C34E35"/>
<path d="M160.924 31.4691C161.027 30.2587 159.327 30.5357 158.317 30.4639C157.957 30.4331 157.575 30.7716 157.184 30.8536C152.836 31.7563 149.014 34.4026 144.47 34.6692C143.924 34.7 143.543 35.1103 143.389 35.5616C142.894 36.9258 142.307 38.3002 142.09 39.7157C141.596 43.0184 140.287 46.1263 140.277 49.6034C140.277 51.9933 139.607 54.5165 139.278 56.9986C139.175 57.7372 139.587 58.0449 139.937 58.4449C140.566 59.1526 140.834 58.4449 141.277 58.1269C142.482 57.2653 143.78 52.8138 143.213 51.2342C142.77 49.9829 143.08 49.8085 144.223 49.3264C145.923 48.5982 148.066 49.0085 149.354 47.0699C150.425 45.4596 150.302 47.6135 150.848 47.8289C151.332 47.2238 151.991 46.116 152.197 46.1981C154.794 47.2033 155.257 45.0288 156.37 43.6954C156.71 43.2851 157.102 42.9979 156.772 42.5568C156.586 42.3004 155.979 42.1055 155.69 42.2184C151.991 43.6236 147.736 43.2953 144.553 45.675C142.513 42.5261 145.841 40.3311 145.748 37.5104C145.738 37.1104 146.181 36.7206 146.613 36.8027C149.488 37.3771 151.703 34.0025 154.773 35.4898C155.278 35.736 156.185 35.2847 156.628 34.5564C156.998 33.941 157.586 33.7974 158.328 33.9102C160.131 34.1666 160.852 32.2691 160.914 31.4896L160.924 31.4691Z" fill="#C34E35"/>
<path d="M40.8662 46.8237C39.7535 46.157 38.6099 47.0391 38.2287 47.9519C37.4457 49.8084 35.8282 50.5675 34.3137 51.4803C31.1405 53.3779 27.0812 52.8445 25.2988 50.3931C24.9176 49.8597 24.4849 49.3982 24.9279 48.6494C27.4212 44.5158 29.183 39.9105 33.3865 36.9257C34.9731 35.7974 36.0961 34.4025 37.7548 36.659C38.3833 37.5103 39.259 37.3155 39.8669 36.6282C40.5572 35.8487 41.3711 34.9358 40.825 33.8076C40.2172 32.546 36.0343 31.6331 34.8185 32.3819C31.0787 34.6692 28.0291 37.6539 25.3503 41.1105C22.9704 44.1876 22.5274 47.7673 22.2286 51.3983C22.0947 53.0394 23.1147 54.1882 24.4643 54.9369C25.9273 55.7575 27.5036 56.2601 29.152 56.0139C33.3246 57.0499 35.5294 52.9881 39.0427 52.3009C39.5475 52.1983 40.279 50.5777 40.8456 49.6341C41.3608 48.793 42.1026 47.5622 40.8559 46.8134L40.8662 46.8237Z" fill="#C34E35"/>
<path d="M188.731 70.4034C188.885 70.4957 189.256 70.6393 189.215 70.5367L188.607 70.2188L188.731 70.4034Z" fill="#C34E35"/>
<path d="M190.101 70.4138C189.833 70.1984 189.338 69.8702 188.741 69.6855C189.307 70.024 189.05 69.942 189.73 70.3317C189.771 70.4343 189.472 70.3728 189.246 70.2599C189.4 70.3522 189.06 70.3112 189.441 70.5164C189.967 70.6292 190.039 70.5164 189.689 70.2189C189.843 70.2497 189.987 70.342 190.101 70.4035V70.4138Z" fill="#C34E35"/>
<path d="M194.119 63.7773H194.026C194.026 63.7773 194.098 63.7876 194.119 63.7773Z" fill="#C34E35"/>
<path d="M196.344 59.5615C196.344 59.5615 196.406 59.6436 196.458 59.6641C196.427 59.6128 196.406 59.5718 196.344 59.5615Z" fill="#C34E35"/>
<path d="M197.354 59.1104C197.354 59.1104 197.313 59.1309 197.292 59.1411C197.354 59.1411 197.395 59.1411 197.354 59.1104Z" fill="#C34E35"/>
<path d="M194.119 63.7778L194.366 63.747C194.17 63.6547 194.191 63.747 194.119 63.7778Z" fill="#C34E35"/>
<path d="M189.009 68.8037C189.009 68.8037 189.081 68.8858 189.143 68.937C189.122 68.9063 189.112 68.8755 189.102 68.8447C189.071 68.8242 189.04 68.814 189.009 68.8037Z" fill="#C34E35"/>
<path d="M193.799 65.9214V65.9522C193.851 65.9932 193.933 66.0445 194.026 66.0855L193.799 65.9111V65.9214Z" fill="#C34E35"/>
<path d="M193.253 67.4391C193.253 67.4391 192.759 67.1724 192.532 67.0596C192.749 67.1724 192.841 67.2442 192.862 67.2852C192.965 67.3263 193.089 67.3775 193.243 67.4288L193.253 67.4391Z" fill="#C34E35"/>
<path d="M191.316 69.3877L191.368 69.4595C191.368 69.4595 191.337 69.4082 191.316 69.3877Z" fill="#C34E35"/>
<path d="M194.366 64.916C194.449 64.9468 194.521 64.9673 194.562 64.9878C194.5 64.957 194.428 64.9365 194.366 64.916Z" fill="#C34E35"/>
<path d="M208.172 21.8679C208.172 21.8679 208.234 21.8987 208.265 21.9089C208.213 21.8782 208.182 21.8576 208.172 21.8679Z" fill="#C34E35"/>
<path d="M211.541 21.2832L211.562 21.3242C211.665 21.3653 211.757 21.4165 211.86 21.4576L211.541 21.2935V21.2832Z" fill="#C34E35"/>
<path d="M198.621 58.0332C198.621 58.0332 198.621 58.0332 198.611 58.0332C198.653 58.0965 198.653 58.0754 198.621 58.0332Z" fill="#C34E35"/>
<path d="M203.628 45.3356C203.093 45.2741 203.113 44.8433 202.495 44.833C202.711 44.9048 203.237 45.3766 203.628 45.3356Z" fill="#C34E35"/>
<path d="M189.101 68.793C189.101 68.793 189.101 68.752 189.122 68.7314C189.091 68.752 189.091 68.7725 189.101 68.793Z" fill="#C34E35"/>
<path d="M199.662 54.7515C199.569 54.7207 199.487 54.7002 199.415 54.6797C199.466 54.7002 199.538 54.7207 199.662 54.7515Z" fill="#C34E35"/>
<path d="M197.89 56.772L197.982 56.7412C197.921 56.7412 197.9 56.7515 197.89 56.772Z" fill="#C34E35"/>
<path d="M199.435 53.2129C199.487 53.2027 199.569 53.2129 199.517 53.1411C199.487 53.1411 199.466 53.1309 199.445 53.1309C199.507 53.1821 199.538 53.2129 199.445 53.2129H199.435Z" fill="#C34E35"/>
<path d="M199.971 51.9512C199.971 51.9512 199.888 51.9409 199.857 51.9307C199.857 51.9512 199.857 51.9614 199.868 51.9819L199.971 51.9512Z" fill="#C34E35"/>
<path d="M206.771 25.8264C206.935 25.8674 207.1 25.9187 207.275 25.97C206.884 25.8264 206.832 25.5802 206.771 25.8264Z" fill="#C34E35"/>
<path d="M189.308 68.9263C189.174 68.8648 189.112 68.8237 189.091 68.793C189.091 68.8135 189.091 68.8237 189.102 68.8443C189.184 68.8853 189.256 68.916 189.308 68.9263Z" fill="#C34E35"/>
<path d="M195.252 51.377L195.417 51.2129C195.345 51.2437 195.283 51.3052 195.252 51.377Z" fill="#C34E35"/>
<path d="M202.938 34.9448L202.897 34.873C202.897 34.873 202.887 34.9038 202.938 34.9448Z" fill="#C34E35"/>
<path d="M195.603 50.5772C195.809 50.6182 195.932 50.6284 196.015 50.6182C195.973 50.5874 195.943 50.5669 195.891 50.5361L195.603 50.5772Z" fill="#C34E35"/>
<path d="M206.585 24.1139C206.492 24.2985 207.234 24.4934 207.615 24.7088C207.718 25.0267 207.059 24.5959 206.667 24.5241C206.791 24.7498 207.389 25.1293 207.317 25.2216C207.193 25.1806 207.152 25.1806 207.018 25.0985C207.512 25.4883 206.853 25.5601 207.471 26.0319C207.399 26.0217 207.347 26.0011 207.286 25.9806C207.646 26.1037 208.007 26.2473 208.254 26.3601C208.233 26.4525 208.625 26.7089 208.161 26.5448C208.203 26.4935 208.017 26.4114 207.883 26.3294L208.048 26.5037C207.358 26.3089 207.873 26.2883 207.389 26.0729C207.523 26.3396 207.986 26.7807 207.739 26.832C207.08 26.5858 207.657 26.4217 207.007 26.3601L207.347 26.2576C206.266 25.9806 207.471 26.1653 206.327 25.8473C206.018 26.0422 206.523 26.2986 206.214 26.4832C206.544 26.6986 206.75 26.6884 207.08 26.9038C207.553 27.5705 205.328 26.5243 206.06 27.1704C206.461 27.4269 207.255 27.8064 206.74 27.8269L206.039 27.4474C205.854 27.6833 207.018 28.0423 206.41 28.1141C206.142 27.9397 206.255 27.8064 206.152 27.8064C205.503 27.7448 206.513 28.1141 206.451 28.2474L205.792 28.0013C205.771 28.3295 206.101 28.8321 206.091 29.2013C205.905 29.0987 205.73 28.9654 205.503 28.9552C205.658 29.4885 205.06 29.7655 204.514 29.9808L205.009 30.3604C205.009 30.3604 204.731 30.3193 204.638 30.2373C204.36 30.2988 204.988 30.3911 205.174 30.5552C205.174 30.6578 204.803 30.5347 204.658 30.4014C205.019 30.8629 205.349 31.5809 204.638 31.6014L204.494 31.4784C204.174 31.6014 205.524 32.2066 204.926 32.1861L204.844 32.104C204.401 32.463 204.689 33.2015 203.7 33.2015C204.473 33.6118 203.144 33.5092 204.246 34.0118C203.577 34.0426 203.412 33.8785 202.876 34.0939C202.783 34.1759 203.505 34.5452 203.577 34.7093L202.989 34.4631L203.525 34.8939L202.794 34.6888L202.897 34.8734C202.948 34.8427 203.206 34.8837 203.371 34.9657C203.556 35.2632 202.773 35.2324 202.474 35.1093L202.783 35.7453C202.557 35.6324 202.505 35.5299 202.382 35.4068C202.876 35.8889 201.753 35.1811 202.206 35.6324C202.351 35.6632 202.546 35.7965 202.66 35.8478C202.258 35.8068 202.155 36.0427 202.227 36.2786L201.835 36.0735C201.599 36.3504 201.743 36.8222 201.578 37.1812C201.825 37.13 202.505 37.4582 202.526 37.5915L201.887 37.3659C202.237 37.5915 202.165 37.3659 202.577 37.6941C202.454 37.7967 201.835 37.4889 201.671 37.3248L201.815 37.5813C201.629 37.5095 201.547 37.4377 201.32 37.3248C201.671 37.5505 200.579 37.3453 201.207 37.7249L201.022 37.6531C200.867 38.0121 201.001 38.2582 200.908 38.5659C201.434 38.8018 201.269 38.8634 201.66 39.1301C201.403 39.2737 200.877 39.3249 200.816 39.6019C201.001 39.8993 201.248 39.848 201.526 40.0634C201.032 39.8686 200.97 40.1455 200.682 39.8686C200.63 40.207 200.609 40.2994 200.836 40.8635C201.052 40.9045 201.156 40.8943 201.31 40.9866C201.362 41.0891 201.032 41.0584 200.805 40.9558L200.764 40.9148C201.3 41.6635 198.91 41.3251 199.775 42.1046L199.734 42.0636L200.105 42.6482C199.95 42.7815 199.785 42.3918 199.435 42.3918C200.074 43.1303 199.054 42.9559 199.456 43.5098C197.92 43.1508 199.177 44.4329 198.116 44.3816L198.466 44.5047C198.755 44.7304 198.23 44.5252 198.127 44.556C198.394 44.6586 198.466 44.5868 198.631 44.7201C198.724 45.633 197.488 46.033 196.859 46.6587C196.653 46.8946 198.539 47.5613 197.58 47.5613L196.993 47.192C197.508 48.0741 196.478 48.3203 196.88 49.1409C196.746 49.0485 196.56 48.9665 196.591 48.9152C196.087 48.8331 196.385 49.3357 196.756 49.4896C196.674 49.5614 196.416 49.3665 196.2 49.3357C195.881 49.3357 196.653 49.8691 196.179 49.746C196.097 49.7255 196.045 49.6537 196.025 49.6127C196.21 49.7768 195.819 49.9409 196.375 50.0948C196.035 50.1973 196.437 50.5871 196.056 50.6179C196.591 50.9769 195.623 50.8435 196.437 51.2333C195.582 50.8538 195.592 51.2948 195.942 51.6025C195.705 51.4487 195.623 51.6025 195.293 51.3974C195.242 51.5512 195.345 51.7564 195.798 51.9205C194.654 51.7564 196.385 52.8231 195.005 52.4128C195.273 53.0488 195.417 53.5821 195.448 54.0642C194.603 53.6847 195.551 53.5924 194.644 53.2231C194.84 53.7462 195.479 54.2796 195.108 54.5565C194.953 54.6078 194.758 54.3411 194.634 54.2488C194.83 54.7719 194.242 54.936 194.572 55.4694C194.49 55.4386 194.418 55.3566 194.366 55.295C194.366 55.3771 194.181 55.3976 194.562 55.5515L194.479 55.4386C195.087 55.572 195.541 56.1976 195.839 56.3412C194.778 55.7566 195.417 56.5464 194.088 55.7771C194.139 55.8489 194.304 55.9823 194.572 56.0848C194.469 56.1156 194.304 56.0746 194.036 55.8797C194.15 56.2079 194.593 56.3002 194.5 56.5054C194.315 56.4233 194.263 56.3515 194.047 56.2387C194.366 56.5054 194.685 56.772 194.448 56.8746C194.335 56.8131 194.181 56.772 194.211 56.7208C194.139 57.049 194.964 57.6644 194.459 57.849C193.686 57.3977 194.139 57.849 193.428 57.5618L193.562 57.8388L193.933 57.9106C193.851 58.0644 194.304 58.4234 194.016 58.4644L193.779 58.2183V58.5773L194.129 58.526C194.428 58.8439 195.036 58.8952 194.747 59.0183C194.696 58.9465 194.665 59.1722 194.222 59.0799C194.418 59.2542 194.613 59.4389 194.387 59.4799C194.15 59.4183 193.614 59.1209 193.459 59.0799C194.016 59.4081 193.459 59.5209 194.047 59.8902C193.913 59.7978 193.542 59.6337 193.459 59.6132L193.913 59.8799C193.727 59.8799 193.645 59.8696 193.356 59.726C193.171 59.9107 194.284 60.0338 193.779 60.1363C193.748 60.0953 193.676 60.0748 193.614 60.003C193.295 60.1773 193.696 60.6492 193.356 60.7928C192.615 60.5569 193.274 60.5056 192.635 60.3312C192.615 60.7415 193.171 61.4184 192.862 61.6954L192.965 61.6646C193.954 62.1364 192.357 61.7056 192.759 62.0749C192.707 62.0031 192.223 61.7774 192.336 61.839C192.079 62.0031 192.378 62.4236 192.542 62.9057L192.305 62.7518C192.017 62.7929 192.017 63.0596 191.832 63.1519C192.069 63.3057 191.996 63.3775 192.388 63.4801C190.719 63.3057 192.8 64.6904 191.399 64.5673C191.419 64.516 191.224 64.3519 191.203 64.393L191.296 64.8443C191.749 65.0084 191.584 64.9161 191.955 64.9879C192.192 65.1417 192.357 65.3263 192.316 65.4084C192.089 65.1315 191.615 65.1109 191.337 65.0699C191.471 65.1109 191.615 65.2033 191.749 65.2545C190.894 65.1007 192.615 65.6648 191.986 65.6853L191.759 65.5725C191.842 65.7161 192.099 65.9315 191.996 66.0033C191.471 65.8289 191.801 65.8084 191.389 65.6238C191.358 65.7777 192.233 66.311 191.667 66.2187C191.553 66.0956 191.584 66.0136 191.471 65.8905C190.822 65.7776 190.966 65.8597 190.822 65.9212H190.842L190.472 66.0341H190.657C191.904 66.7828 190.75 66.5059 191.512 67.1008C190.791 66.5264 191.059 66.8649 190.492 66.5982C190.307 66.5982 190.09 66.5982 189.936 66.5059C190.348 66.8136 189.493 66.5367 190.101 66.9777C189.915 66.9059 190.029 67.0905 189.575 66.8649C189.658 67.07 189.915 66.9675 190.142 67.0803C190.678 67.5726 189.153 67.2752 189.874 67.9726C190.111 68.4034 190.709 68.7214 190.915 69.1112C190.585 69.0701 190.276 68.7522 190.276 68.7522C189.946 68.7727 189.946 68.906 190.101 69.1214C189.946 69.0291 189.802 68.9983 189.575 68.9471C189.575 69.0701 190.214 69.306 189.884 69.3266C189.689 69.2137 189.369 69.0394 189.184 68.906C189.297 69.1009 189.596 69.3778 189.699 69.5727C189.359 69.4702 189.246 69.2855 189.05 69.1522C189.132 69.3573 189.184 69.6548 189.668 69.9112H189.895C189.895 69.9112 189.441 69.7368 189.369 69.6548C189.019 69.3573 189.627 69.5522 189.812 69.624L189.895 69.7676C191.018 70.1369 189.884 69.3266 190.018 69.1624L190.77 69.5727L190.193 69.1009C190.42 69.1522 190.863 69.306 190.946 69.4496C191.389 69.4804 190.719 69.2137 191.203 69.2855C191.275 69.306 191.316 69.3266 191.337 69.3471L191.162 69.1214C191.316 69.2137 191.729 69.3368 191.584 69.3676C192.141 69.3266 191.152 68.7419 191.79 68.906L191.832 68.9471C191.708 68.5163 191.265 68.6701 190.688 68.1368L192.182 68.5881L191.615 68.3111C191.615 68.3111 191.718 68.2393 191.945 68.3521C191.605 68.0547 191.687 68.2701 191.337 68.0342C191.935 68.0957 191.286 67.4906 192.213 67.8496C191.801 67.6034 191.811 67.8496 191.574 67.5521C192.584 67.9214 191.492 67.2854 192.007 67.3265C192.501 67.5931 192.172 67.6136 192.687 67.6649C191.862 67.2034 192.996 67.4598 192.882 67.2649C192.192 66.9675 192.707 66.8751 192.573 66.5674C192.8 66.6803 193.119 66.3418 193.449 66.2495L193.562 66.3008C192.882 65.9623 193.099 65.8289 193.016 65.6135C193.428 65.7982 193.583 65.8905 193.738 66.0546L193.789 65.9212C193.583 65.7982 193.48 65.7059 193.439 65.5828L193.944 65.8392C193.995 65.6443 193.49 65.2135 193.944 65.1315C193.459 64.9161 192.512 64.7417 192.295 64.3519C192.563 64.4545 193.016 64.6391 193.088 64.752C193.068 64.7212 192.903 64.5878 193.037 64.5878L193.439 64.875C193.676 64.8545 193.099 64.6596 193.171 64.5981C193.542 64.7622 193.47 64.6494 193.758 64.793C193.789 64.834 193.573 64.793 193.707 64.8956C193.81 64.8238 194.088 64.8032 194.387 64.8956C194.17 64.8135 193.882 64.6802 193.861 64.5878C193.913 64.393 194.335 64.7212 194.572 64.6904C194.335 64.5366 194.654 64.5366 194.088 64.2904C194.108 64.2391 194.376 64.3417 194.541 64.3827C194.335 64.1878 194.654 63.9109 194.016 63.7673H193.964C193.964 63.7673 193.964 63.7673 193.944 63.7468C193.521 63.2032 194.531 63.2442 194.428 62.8339L194.613 62.916C194.479 62.639 194.665 62.4544 194.314 62.1569C194.335 62.1057 194.706 62.1775 194.922 62.2903C194.84 62.0954 194.634 61.9826 195.036 61.921C195.304 62.198 195.345 61.9928 195.211 62.1672C195.448 62.0544 195.767 62.1467 195.334 61.7262C195.788 61.9928 195.994 61.8492 195.891 61.7056L195.489 61.6851C195.458 61.562 195.541 61.4902 195.613 61.4287L196.221 61.7467C197.148 61.7056 195.201 60.5261 196.612 60.7928C196.21 60.5056 196.221 60.8646 195.736 60.5569C195.891 60.4235 196.87 60.6287 196.9 60.5774C197.354 60.4953 196.076 59.9722 196.416 59.8286C196.179 59.7671 195.561 59.5414 195.427 59.2645C195.582 59.1311 196.457 59.4594 196.591 59.644C196.591 59.6953 196.509 59.685 196.437 59.644C196.499 59.7363 196.56 59.8491 196.828 59.8799L196.612 59.7568C196.88 59.7671 196.952 59.5312 197.302 59.7363C197.148 59.5209 196.952 59.5209 196.797 59.5722C197.22 59.4901 196.952 59.2337 197.271 59.1004C197.127 59.0799 196.859 59.0081 196.87 58.967C197.292 58.7516 196.509 58.6388 196.499 58.3721C196.9 58.3926 197.292 58.7619 197.107 58.4234C197.395 58.3824 197.714 58.6491 197.879 58.7824C197.539 58.3926 198.333 58.526 198.456 58.4337L198.59 58.6183C198.508 58.5055 198.539 58.4542 198.559 58.4029L198.085 58.2696C198.188 58.2388 198.219 58.1875 198.405 58.2696C198.137 58.0747 197.632 58.0029 197.292 57.6952C197.56 57.7054 197.158 57.3362 197.766 57.5618C197.447 57.7362 198.374 57.7875 198.374 58.0542C198.322 57.9824 198.343 57.9311 198.456 57.9003C198.528 57.9208 198.58 57.9618 198.6 57.9926C199.239 57.9618 197.972 57.5926 198.106 57.3259C198.425 57.5003 198.765 57.5413 198.714 57.4593C198.662 57.5618 198.126 57.2746 197.92 57.0592C198.25 56.9977 197.807 56.7925 197.869 56.7208L197.704 56.772C197.385 56.5977 197.467 56.5259 197.405 56.3618C197.673 56.4643 197.539 56.5464 197.673 56.5566C197.137 56.1771 198.415 56.5259 198.096 56.1669C198.363 56.1771 198.734 56.4233 198.92 56.4233C198.57 56.0335 199.476 56.4028 199.208 56.0335C198.734 55.9002 198.837 55.9617 198.456 55.6233L198.621 56.1156L198.065 55.613C198.013 55.7156 198.25 55.9617 198.147 55.9925C197.828 55.7258 197.931 55.7874 197.539 55.6745C198.281 55.8181 197.271 55.213 197.797 55.2438L198.91 55.7258C199.517 55.6848 198.528 55.0284 198.951 54.8232L198.714 54.8437C198.291 54.6078 198.734 54.6181 198.6 54.4334C198.971 54.6078 199.136 54.5976 199.383 54.6488C199.105 54.536 199.507 54.4232 198.776 54.0745L199.332 54.136C199.651 53.9616 198.394 53.377 198.631 53.1821C199.002 53.4283 199.322 53.4283 199.538 53.7257C199.579 53.6437 199.682 53.5924 199.425 53.4795C199.682 53.5308 199.023 53.0282 199.414 53.1C199.27 52.9975 198.879 52.8129 198.951 52.7308C199.033 52.7513 199.136 52.8129 199.136 52.8129C198.951 52.7308 198.951 52.5564 198.497 52.4641C199.775 52.7 198.724 51.6948 199.826 51.8897C199.785 51.6538 199.754 51.3769 199.806 51.1923C199.909 51.2538 199.991 51.2743 199.94 51.2846C200.383 51.2025 198.93 50.6794 199.435 50.5871C200.094 50.7102 199.703 50.864 199.971 50.8845C201.217 51.3769 199.94 50.4948 200.733 50.6179L200.785 50.6897C201.259 50.7307 200.465 50.1563 200.64 49.9717C200.64 49.9717 200.743 50.0332 200.826 50.0537C200.259 49.6332 200.177 49.2537 200.094 48.9665C200.548 49.2434 200.311 49.1716 200.816 49.3357C200.785 49.2127 200.022 49.028 199.96 48.7819C200.249 48.8332 200.537 48.7921 201.073 48.9973L201.022 49.1921C201.732 49.387 201.104 48.946 201.259 48.9049L201.547 49.0383C201.568 48.7203 200.826 48.4024 201.011 48.1254L200.774 48.0639C200.105 47.5818 201.248 48.1049 200.774 47.7049L201.547 47.9716C201.413 47.7869 200.991 47.2843 200.929 47.0382C201.434 47.3869 201.619 47.7254 201.887 48.0126C201.939 47.91 201.99 47.6228 201.64 47.4177C201.691 47.4895 201.856 47.6228 201.722 47.6126C201.186 47.2331 200.98 46.9356 201.083 46.7305C202.515 47.3869 201.691 46.3305 202.876 46.6587C202.505 46.0535 203.422 46.0125 203.525 45.5407C202.33 45.2124 203.546 45.3971 202.382 44.9355C202.351 44.8022 202.382 44.7714 202.464 44.7919H203.288C203.659 44.8534 203.505 44.9868 203.762 45.0894C203.948 44.9047 204.298 45.2022 204.669 45.1919C204.246 45.0483 204.112 44.8637 204.318 44.8022L203.711 44.7509C203.226 44.1765 204.803 44.8945 204.318 44.3201L204.638 44.5765C204.494 44.3201 204.906 43.9816 204.04 43.4277C204.184 43.4585 204.514 43.5508 204.576 43.6636C204.885 43.3354 203.958 42.3815 204.658 42.3302L204.926 42.4841C204.875 42.3815 204.452 42.1354 204.772 42.1661C204.885 42.2174 205.04 42.32 205.071 42.2892C204.988 42.2071 204.658 41.8892 204.864 41.8584L205.153 42.0738C205.689 41.8584 204.628 41.1712 204.566 40.7712C205.4 41.1302 205.792 40.9455 205.998 40.8532L206.111 40.9045C206.4 40.5148 205.74 39.8686 205.586 39.3249C206.595 39.4583 206.327 38.6377 207.007 38.4428C206.832 38.4428 206.358 38.1556 206.307 38.0531C206.513 38.0326 205.843 37.5402 206.595 37.889L206.564 37.9197C207.347 38.1659 207.234 37.889 207.317 37.7454L206.327 37.2941C207.955 37.5197 206.245 36.0222 207.636 36.3607C207.43 36.1555 207.481 36.0427 207.275 35.8376L207.811 36.0735C208.058 35.8683 208.192 35.7658 208.203 35.376L208.553 35.6017C208.666 35.4273 207.11 34.7093 207.152 34.5247L207.976 34.8119C208.1 34.4837 208.944 34.4529 208.357 33.8272C208.47 33.8785 208.697 33.9913 208.707 34.0529C208.79 33.9093 209.501 33.6939 208.378 33.2836C209.099 33.581 208.594 32.9759 208.347 32.6682L208.862 32.9246C208.254 32.4938 208.069 32.4015 207.976 32.1246C208.069 32.104 208.419 32.2579 208.254 32.2682C208.604 32.2271 207.811 31.9297 208.172 31.8476L208.481 32.063C208.594 31.9092 208.409 31.8476 208.058 31.5912C207.893 31.3963 208.326 31.3348 208.821 31.5091C208.543 31.3655 208.192 31.1091 208.367 31.0681C208.553 31.1296 208.646 31.2117 208.697 31.2527C209.181 31.1296 208.264 30.5758 208.862 30.6065C209.037 30.6783 209.13 30.6988 209.192 30.7091C209.089 30.9245 208.975 31.0886 208.944 31.0578C209.429 31.263 209.593 31.1194 210.201 31.5502C209.892 31.2527 209.202 30.6578 209.511 30.586C209.563 30.5963 209.614 30.6065 209.686 30.6373L209.738 30.6783C209.799 30.6578 209.779 30.6065 209.707 30.5347C209.81 30.5142 209.882 30.504 209.913 30.4527C210.325 30.6065 210.222 30.3398 210.273 30.2578C209.738 30.0424 209.872 29.9603 209.387 29.8783C209.429 29.8783 209.439 29.9193 209.439 29.9911C209.439 30.0116 209.449 30.0321 209.48 30.0526C209.47 30.0526 209.449 30.0321 209.439 30.0219C209.439 30.0834 209.408 30.1655 209.377 30.2578C209.14 30.0732 208.944 29.8988 209.284 29.9296C208.965 29.7347 208.635 29.5398 208.481 29.4372C209.274 29.6321 209.779 29.5706 210.253 29.7244C210.067 29.3244 210.335 28.9962 209.408 28.4013C209.315 28.2679 209.738 28.432 209.903 28.4731C209.985 28.5654 209.944 28.6064 210.078 28.6885C209.892 28.4218 210.181 28.1859 209.49 27.8474C209.892 27.7859 210.088 28.2269 210.088 27.9089L210.284 28.032C211.633 27.9807 208.872 26.4114 210.562 26.4319C210.459 26.4319 210.407 26.4319 210.284 26.4012C211.201 26.0011 210.284 24.7703 211.572 24.5344C211.85 24.4318 211.417 24.2267 211.129 23.96L211.716 24.1651L211.139 23.6831C210.778 23.201 212.746 23.7959 211.984 23.0574L211.582 22.9343C211.705 22.842 211.53 22.442 211.963 22.6471C211.901 22.6061 211.582 22.4317 211.798 22.4728L212.097 22.5958L211.716 22.0625C212.035 21.9189 212.89 22.6061 213.096 22.2779C213.035 22.0932 212.385 21.5394 212.159 21.4983C212.118 21.5496 211.912 21.5496 211.613 21.4265L211.51 21.2419C210.634 20.8419 209.769 20.3701 209.027 20.4008L209.48 20.8316L209.027 20.7188L209.078 20.5342C208.635 20.4624 208.965 20.6778 209.181 20.8522C208.944 20.7701 208.78 20.7291 208.676 20.7393L209.429 21.3035C209.068 21.1804 208.78 20.924 208.532 20.9752C208.883 21.2317 209.346 21.2111 209.532 21.4778C209.089 21.406 208.78 21.2317 209.068 21.4983C208.831 21.4163 208.697 21.3342 208.615 21.2419C208.841 21.4573 208.615 21.5599 209.058 21.8163C208.522 21.7035 209.037 22.2163 208.203 21.8471C208.388 21.9599 208.78 22.3086 208.78 22.4112C207.852 21.8163 208.573 22.7394 207.523 22.2368C208.367 22.7497 207.729 22.8625 208.13 23.3036C208.069 23.2625 207.935 23.1702 207.986 23.1702C207.863 23.2625 207.574 23.1907 207.368 23.1907C208.1 23.519 208.192 23.7959 208.604 24.0934C207.821 23.9395 207.77 23.6318 207.069 23.3856C207.677 23.6318 207.553 23.9087 208.079 24.0728C207.584 24.001 207.821 24.0831 207.183 23.878C208.1 24.2985 207.296 24.0523 207.821 24.4011C207.286 24.3805 206.935 24.0728 207.131 24.3805C206.812 24.3498 206.554 24.0421 206.554 24.0421L206.585 24.1139ZM206.266 29.2731C206.266 29.2731 206.266 29.2731 206.255 29.2731C206.255 29.2321 206.255 29.1911 206.255 29.1705C206.255 29.1911 206.255 29.2218 206.255 29.2834L206.266 29.2731ZM206.111 29.6526C206.111 29.6526 206.183 29.5603 206.204 29.4988C206.389 29.5603 206.575 29.6629 206.554 29.6937C206.441 29.6219 206.297 29.6629 206.121 29.6526H206.111ZM210.139 30.4322C210.191 30.5245 210.078 30.504 209.964 30.4629C209.964 30.4322 209.964 30.3911 209.944 30.3296C209.923 30.3296 209.903 30.3091 209.882 30.2988C209.985 30.3501 210.078 30.3911 210.139 30.4322Z" fill="#C34E35"/>
<path d="M209.491 30.0215C209.491 30.0215 209.46 29.9907 209.46 29.9805C209.408 29.9805 209.367 29.9702 209.326 29.96C209.377 29.9907 209.429 30.0215 209.48 30.0523C209.48 30.042 209.48 30.0318 209.48 30.0215H209.491Z" fill="#C34E35"/>
<path d="M194.006 63.7979H194.026C194.026 63.7979 193.975 63.7979 193.944 63.7773C193.975 63.7773 193.985 63.7876 194.016 63.7979H194.006Z" fill="#C34E35"/>
<path d="M202.855 34.4121L202.989 34.4737L202.886 34.3916L202.855 34.4121Z" fill="#C34E35"/>
<path d="M191.286 65.0903C191.286 65.0903 191.183 65.0596 191.142 65.0596C191.173 65.0698 191.234 65.0801 191.286 65.0903Z" fill="#C34E35"/>
<path d="M190.781 65.9316L190.534 65.9727C190.668 65.9727 190.729 65.9419 190.781 65.9316Z" fill="#C34E35"/>
<path d="M190.225 66.5166C190.317 66.5679 190.379 66.5987 190.451 66.6294L190.225 66.5166Z" fill="#C34E35"/>
<path d="M194.315 55.3055C194.315 55.3055 194.315 55.285 194.305 55.2645C194.232 55.1619 194.253 55.2132 194.315 55.3055Z" fill="#C34E35"/>
<path d="M194.15 59.0904C194.067 59.0186 193.985 58.9365 193.944 58.875C193.882 58.916 193.851 58.9571 194.15 59.0904Z" fill="#C34E35"/>
<path d="M195.243 51.3878C195.243 51.3878 195.243 51.377 195.243 51.3662L195.221 51.3878H195.243Z" fill="#C34E35"/>
<path d="M194.026 58.7314C193.892 58.7417 193.892 58.8032 193.954 58.875C194.005 58.8443 194.088 58.8135 194.026 58.7314Z" fill="#C34E35"/>
<path d="M188.7 69.3877L188.659 69.4082C188.659 69.4082 188.721 69.439 188.741 69.4492L188.69 69.3877H188.7Z" fill="#C34E35"/>
<path d="M188.751 69.46L188.802 69.5215C188.802 69.5215 188.802 69.4907 188.751 69.46Z" fill="#C34E35"/>
<path d="M188.896 69.6548L188.793 69.5215C188.793 69.5215 188.751 69.5728 188.896 69.6548Z" fill="#C34E35"/>
<path d="M189.338 68.5884L189.153 68.4961C189.153 68.4961 189.256 68.5474 189.338 68.5884Z" fill="#C34E35"/>
<path d="M189.4 68.2803C189.328 68.3316 188.916 68.2803 188.999 68.4136L189.153 68.4854C188.885 68.3213 189.699 68.4854 189.4 68.2803Z" fill="#C34E35"/>
<path d="M192.285 68.1475L192.027 68.3116C192.254 68.3629 192.553 68.4244 192.553 68.5475C193.295 68.5167 192.069 68.4141 192.285 68.1475Z" fill="#C34E35"/>
<path d="M192.893 67.5526C192.934 67.7167 193.192 67.6756 193.305 67.7372C193.151 67.5731 193.109 67.5423 192.893 67.5526Z" fill="#C34E35"/>
<path d="M195.128 62.3516L195.602 62.567C195.571 62.4439 195.417 62.4849 195.128 62.3516Z" fill="#C34E35"/>
<path d="M193.058 60.2905L192.718 60.2598L193.14 60.4957L193.058 60.2905Z" fill="#C34E35"/>
<path d="M196.757 61.1827L196.808 61.2545L196.705 61.0186L196.757 61.1827Z" fill="#C34E35"/>
<path d="M200.352 52.3721L199.744 52.1465C199.827 52.2593 200.486 52.5568 200.352 52.3721Z" fill="#C34E35"/>
<path d="M201.362 48.3404C201.681 48.4224 201.918 48.4019 201.65 48.207C201.568 48.2788 201.3 48.2583 201.362 48.3404Z" fill="#C34E35"/>
<path d="M207.203 37.4585L207.368 37.6124L207.265 37.4072L207.203 37.4585Z" fill="#C34E35"/>
</g>
<defs>
<clipPath id="clip0_594_686">
<rect width="518" height="95" fill="white" transform="translate(0.5)"/>
</clipPath>
</defs>
</svg>
